<svg width="141" height="43" fill="none" xmlns="http://www.w3.org/2000/svg"><path d="m6.188 42.003 4.715-10.885.042 3.447L0 10.19h5.978l6.103 14.457c.197.364.393.854.59 1.47.196.589.365 1.177.505 1.765l-1.053.337c.197-.533.407-1.093.632-1.681.224-.617.435-1.247.631-1.892l5.22-14.456h6.02l-9.261 22.147-3.789 9.666H6.188ZM38.404 32.757c-2.329 0-4.391-.49-6.188-1.47-1.768-.981-3.157-2.312-4.167-3.993-.982-1.709-1.473-3.656-1.473-5.841 0-1.738.28-3.32.842-4.75.561-1.428 1.333-2.661 2.315-3.698a10.16 10.16 0 0 1 3.578-2.437c1.403-.588 2.933-.883 4.588-.883 1.46 0 2.82.28 4.084.84a10.1 10.1 0 0 1 3.283 2.312c.926.953 1.628 2.102 2.105 3.446.505 1.317.743 2.76.715 4.329l-.042 1.807H30.07l-.968-3.53h14.607l-.674.714v-.924c-.084-.869-.365-1.625-.842-2.27a4.76 4.76 0 0 0-1.852-1.554c-.73-.393-1.544-.589-2.442-.589-1.375 0-2.54.266-3.493.799-.927.532-1.628 1.302-2.105 2.311-.477.98-.716 2.213-.716 3.698 0 1.43.295 2.676.884 3.74a6.429 6.429 0 0 0 2.568 2.48c1.123.56 2.427.84 3.915.84 1.038 0 1.992-.168 2.862-.504.87-.336 1.81-.938 2.82-1.807l2.569 3.572a11.67 11.67 0 0 1-2.61 1.807 15.69 15.69 0 0 1-3.031 1.135c-1.067.28-2.12.42-3.157.42ZM53.277 32.337V1.238h5.22v31.1h-5.22ZM65.185 32.337V1.238h5.22v31.1h-5.22ZM86.786 32.757c-2.217 0-4.196-.49-5.936-1.47a11.18 11.18 0 0 1-4.125-4.119c-1.01-1.737-1.515-3.712-1.515-5.926 0-2.213.505-4.188 1.515-5.925a10.866 10.866 0 0 1 4.125-4.077c1.74-1.008 3.719-1.513 5.936-1.513 2.189 0 4.153.505 5.893 1.513 1.74.98 3.101 2.34 4.083 4.077 1.01 1.737 1.516 3.712 1.516 5.925 0 2.214-.505 4.189-1.516 5.926a10.865 10.865 0 0 1-4.083 4.119c-1.74.98-3.704 1.47-5.893 1.47Zm0-4.58c1.206 0 2.273-.309 3.199-.925a6.353 6.353 0 0 0 2.231-2.48c.561-1.036.828-2.213.8-3.53.028-1.344-.239-2.535-.8-3.572-.533-1.036-1.277-1.849-2.231-2.437-.926-.617-1.993-.925-3.2-.925-1.206 0-2.3.308-3.283.925-.954.588-1.698 1.415-2.23 2.48-.534 1.036-.8 2.213-.8 3.53 0 1.316.266 2.493.8 3.53a6.353 6.353 0 0 0 2.23 2.479c.983.616 2.077.925 3.284.925ZM107.869 32.337l-7.451-22.147 5.304-.042 4.968 15.801-.926-.084 5.388-12.355h3.115l5.514 12.355-1.094.126 5.009-15.801H133l-7.493 22.147h-3.704l-5.683-13.28.8.084-5.388 13.196h-3.663ZM135.916 32.8c-1.01 0-1.796-.295-2.357-.883-.533-.589-.8-1.415-.8-2.48 0-.98.281-1.779.842-2.395.59-.645 1.361-.967 2.315-.967 1.011 0 1.782.294 2.316.883.561.56.842 1.387.842 2.48 0 .98-.295 1.793-.884 2.437-.562.616-1.319.924-2.274.924Z" fill="#121212"/></svg>