<svg width="109" height="33" fill="none" xmlns="http://www.w3.org/2000/svg"><path d="M5.567 32.002 9.16 23.71l.032 2.626L.853 7.763h4.554l4.65 11.015c.15.278.3.651.45 1.12.15.45.277.897.384 1.346l-.802.256c.15-.406.31-.833.481-1.281.172-.47.332-.95.482-1.44l3.977-11.016h4.586l-7.056 16.875-2.886 7.364H5.566ZM30.113 24.958c-1.774 0-3.346-.374-4.715-1.12-1.347-.748-2.405-1.762-3.175-3.043-.748-1.302-1.122-2.785-1.122-4.45 0-1.324.214-2.53.641-3.618.428-1.09 1.016-2.028 1.764-2.818a7.74 7.74 0 0 1 2.726-1.857c1.07-.449 2.235-.673 3.496-.673 1.112 0 2.15.214 3.111.64a7.695 7.695 0 0 1 2.502 1.762c.706.726 1.24 1.6 1.604 2.625.385 1.004.566 2.103.545 3.298l-.032 1.377H23.763l-.738-2.69h11.13l-.514.545v-.705c-.064-.661-.278-1.238-.641-1.729a3.626 3.626 0 0 0-1.412-1.184 3.866 3.866 0 0 0-1.86-.449c-1.047 0-1.935.203-2.662.609a3.896 3.896 0 0 0-1.603 1.76c-.364.748-.546 1.687-.546 2.819 0 1.088.225 2.038.674 2.85a4.898 4.898 0 0 0 1.956 1.888c.856.427 1.85.64 2.983.64a6 6 0 0 0 2.181-.383c.663-.257 1.38-.716 2.149-1.377l1.956 2.721a8.893 8.893 0 0 1-1.988 1.377c-.727.363-1.497.651-2.31.865a9.437 9.437 0 0 1-2.405.32ZM41.444 24.638V.943h3.977v23.695h-3.977ZM50.518 24.638V.943h3.977v23.695h-3.977ZM66.975 24.958c-1.69 0-3.197-.374-4.522-1.12a8.518 8.518 0 0 1-3.143-3.139c-.77-1.323-1.155-2.828-1.155-4.514 0-1.687.385-3.192 1.155-4.515a8.28 8.28 0 0 1 3.143-3.106c1.325-.768 2.833-1.153 4.522-1.153 1.668 0 3.165.385 4.49 1.153a8.05 8.05 0 0 1 3.111 3.106c.77 1.323 1.155 2.828 1.155 4.515 0 1.686-.385 3.19-1.155 4.514a8.278 8.278 0 0 1-3.11 3.138c-1.326.747-2.823 1.12-4.491 1.12Zm0-3.49c.92 0 1.732-.235 2.438-.705a4.84 4.84 0 0 0 1.7-1.889c.427-.79.63-1.686.609-2.69.021-1.024-.182-1.931-.61-2.721a4.61 4.61 0 0 0-1.7-1.857c-.705-.47-1.518-.705-2.437-.705a4.61 4.61 0 0 0-2.502.705c-.727.448-1.293 1.078-1.7 1.889-.406.79-.609 1.686-.609 2.69 0 1.003.203 1.9.61 2.69a4.84 4.84 0 0 0 1.7 1.888 4.61 4.61 0 0 0 2.501.705ZM83.039 24.638 77.362 7.763l4.041-.032 3.785 12.04-.706-.064 4.105-9.414h2.374l4.201 9.414-.834.096 3.817-12.04h4.041l-5.709 16.875h-2.822l-4.33-10.118.61.064-4.106 10.054h-2.79ZM104.408 24.99c-.77 0-1.369-.224-1.796-.672-.406-.449-.61-1.079-.61-1.89 0-.747.214-1.355.642-1.825.449-.49 1.037-.736 1.764-.736.77 0 1.358.224 1.764.672.428.427.641 1.057.641 1.89 0 .747-.224 1.366-.673 1.857-.428.47-1.005.704-1.732.704Z" fill="#FEDD00"/></svg>