<svg width="232" height="150" fill="none" xmlns="http://www.w3.org/2000/svg"><path fill-rule="evenodd" clip-rule="evenodd" d="M39.468 74.942c0-16.016 34.16-28.79 76.777-28.79 42.336 0 76.779 12.915 76.779 28.79 0 15.874-34.443 28.79-76.779 28.79-42.335 0-76.778-12.873-76.778-28.79Zm76.776 26.285c-40.633 0-73.572-11.764-73.572-26.276 0-14.514 32.939-26.276 73.572-26.276 40.629 0 73.565 11.762 73.565 26.276 0 14.512-32.936 26.276-73.565 26.276Zm0-50.366c-39.206 0-70.985 10.834-70.985 24.09 0 13.259 31.779 24.093 70.985 24.093 39.205 0 70.982-10.834 70.982-24.093 0-13.256-31.777-24.09-70.982-24.09ZM79.786 90.788c-4.193.027-7.887-2.562-8.31-7.047-.236-2.486.466-4.701 1.873-6.526 1.248-1.626 3.36-2.977 5.148-3.307.581-.107 1.363-.041 1.686.346.507.59.361 1.238-.146 1.496-1.364.697-3.005 1.889-3.817 3.516-.658 1.33-.791 2.93.215 4.456 1.683 2.542 6.377 2.612 10.74-1.442 1.081-.993 2.049-1.946 3.032-3.075 1.922-2.198 2.561-2.999 5.116-6.543.027-.04.041-.094.027-.12-.02-.049-.055-.055-.13-.062-1.706.048-3.193.555-4.639 1.635-.416.304-1.015.261-1.277-.138-.292-.452-.083-1.04.397-1.373 2.115-1.47 4.406-1.846 6.755-2.231l.704-.117c-.002 0 .18.007.329-.188a63.74 63.74 0 0 0 1.257-1.685 48.255 48.255 0 0 1 1.746-2.296c1.144-1.402 2.621-2.69 3.75-3.657 1.361-1.17 2.301-1.67 3.193-2.145.141-.074.28-.148.42-.224.27-.142-.035-.31-.117-.31-.421-.08-.843-.16-1.266-.242-5.341-1.022-10.844-2.076-16.12-.123-3.943 1.472-5.67 4.599-4.84 6.688.591 1.483 2.54 1.723 4.366.83a9.868 9.868 0 0 0 3.913-3.48c.556-.856 1.728-.238 1.095 1.247-1.666 3.916-4.85 7.023-8.727 7.154-3.3.107-5.428-2.32-5.421-5.315.014-5.907 6.59-9.798 13.5-10.38 5.823-.48 11.431.46 17.104 1.412 2.436.408 4.883.819 7.365 1.12 6.331.767 12.401.782 18.765-.68.752-.163 1.28.317 1.231 1.077-.062 1.098-.913 2.156-3.009 3.3-2.384 1.306-4.877 1.703-7.482 1.724-4.331.038-8.458-1.112-12.588-2.264-1.875-.522-3.751-1.045-5.646-1.457.001.046.004.094.007.142.015.23.031.47-.153.608-3.362 2.48-6.402 5-8.437 8.537-.069.081-.035.159.087.15.576-.03 1.134-.056 1.681-.08a97.081 97.081 0 0 0 3.326-.19c.288-.028.299-.097.274-.307-.147-1.22.21-2.61 1.282-3.566 1.098-.984 2.473-1.096 3.384-.387 1.036.807.944 2.258.377 3.347-.576 1.105-1.529 1.696-2.444 1.983 0 0-.192.04-.163.215.021.168.483.486.869.752.255.175.477.328.519.401.103.175.048.447-.139.655a.788.788 0 0 1-.603.288c-.206-.004-.335-.074-.59-.212l-.027-.014c-.559-.303-1.257-.801-1.723-1.388-.159-.199-.24-.203-.636-.18-1.786.102-4.57.371-6.456.607-.458.055-.525.142-.62.3l-.203.337c-2.949 4.863-6.094 10.052-9.54 13.552-3.782 3.84-6.927 4.85-10.264 4.876Zm28.66-22.038c.048.254.147.304.262.282.573-.114 1.2-.585 1.571-1.132.338-.495.496-1.21.161-1.496-.3-.257-.787-.184-1.149.135a2.548 2.548 0 0 0-.845 2.211Zm52.904-2.068c.1-.176-.005-.305-.227-.305l-1.901.002h-.001l-1.978.001c-.287 0-.436.034-.571.302-.293.56-2.737 4.266-4.664 7.187-1.003 1.52-1.867 2.83-2.213 3.37-.17.24-.377.207-.401-.069-.103-.937-.912-2.014-2.187-2.53-.972-.394-1.922-.466-2.91-.334-1.784.24-3.373 1.18-4.769 2.241-.882.67-1.714 1.424-2.554 2.187-1.167 1.057-2.351 2.13-3.713 3.02-1.28.835-3.033 1.563-4.206.477-1.062-.984-.942-3.17.682-4.86.171-.178.377-.028.345.129-.154.764.034 1.525.615 2.058.708.635 1.722.707 2.59.283 1.025-.508 1.627-1.488 1.802-2.6.271-1.725-1.057-3.247-2.719-3.369-1.349-.095-2.644.375-3.906 1.416-.632.525-.991.913-1.538 1.69-.133.192-.338.211-.332-.072.062-2.209-.851-3.452-2.677-3.492-1.417-.034-2.932.735-4.112 1.676-.97.779-1.848 1.747-2.737 2.728-.298.328-.597.658-.901.982-.151.16-.283.152-.325-.157-.035-1.463-.405-2.88-1.082-3.888-.24-.35-.744-.523-1.168-.287-.036.02-.089.047-.154.08-.287.146-.814.414-1.218.74-.246.202-.342.496-.233.871.654 2.187.51 4.673-.377 6.773-.815 1.923-2.398 3.657-4.259 4.244-1.225.389-2.499.199-3.288-.888-1.083-1.5-.646-4.108.969-6.274 1.424-1.907 3.485-3.118 5.54-3.898.242-.094.292-.249.224-.454-.069-.207-.162-.46-.24-.672-.05-.135-.094-.255-.122-.336-.189-.502-.717-.583-1.362-.513-1.493.173-2.84.685-4.171 1.398-3.485 1.866-5.232 5.477-5.997 7.41-.37.928-.684 1.507-1.092 2.02-.55.69-1.239 1.32-2.5 2.427a.442.442 0 0 0-.103.51c.129.266.784 1.192.97 1.275.205.101.443-.041.538-.109.883-.598 1.939-1.546 2.455-2.189.181-.22.368-.127.464.207.482 1.72 1.744 3.124 3.49 3.712 3.195 1.077 6.509-.482 9.011-3.198 1.079-1.17 1.689-2.058 2.161-2.743.223-.325.416-.604.612-.847.166-.206.358-.452.573-.73 1.125-1.444 2.887-3.708 4.923-5.25.89-.677 1.943-1.194 2.472-.851.425.275.563.915-.119 2.155-1.534 2.801-3.516 5.905-4.96 8.167-.885 1.387-1.568 2.456-1.822 2.946-.122.223-.013.399.219.399.974-.005 1.941-.005 2.861-.004h.892c.195-.007.283-.099.381-.237l1.317-2.065a625.515 625.515 0 0 1 4.283-6.66c.107-.171.206-.04.21.035.041.679.206 1.607.609 2.216.724 1.127 1.75 1.61 2.888 1.618.905.014 1.363-.127 2.339-.492a8.2 8.2 0 0 0 1.922-1.03c.286-.2.336.133.329.184-.44 2.36.103 5.154 2.448 6.314 2.806 1.383 5.888-.562 7.662-2.317.174-.169.36-.151.378.213.041.67.34 1.466.895 2.023 1.486 1.492 4.486.9 7.496-1.43 1.933-1.491 3.955-3.599 5.782-5.83.068-.087.118-.226-.014-.367-.183-.191-.42-.4-.639-.595-.114-.1-.223-.198-.318-.285-.125-.108-.31-.077-.416.003a64.944 64.944 0 0 0-1.566 1.559c-1.32 1.344-2.681 2.728-4.427 3.932-.822.574-2.132 1.036-2.72.24-.229-.31-.203-.737.021-1.297.508-1.267 6.399-10.376 9.93-15.837 1.409-2.178 2.442-3.776 2.609-4.064l.002.005Zm-14.863 14.357c.021.132.194.258.361.318.062.02.092.062.028.202-.408.874-.788 1.433-1.263 2.13l-.002.004-.252.372c-.552.822-1.172 1.464-1.924 2.082-1.134.938-2.709 1.96-4.011 1.273-.578-.3-.829-1.11-.817-1.765.027-1.843.847-3.734 2.36-5.593 1.846-2.272 3.886-3.45 5.224-2.806 1.385.66.943 2.264.323 3.523a.357.357 0 0 0-.027.26Z" fill="#121212"/></svg>