<svg width="232" height="150" fill="none" xmlns="http://www.w3.org/2000/svg"><path fill-rule="evenodd" clip-rule="evenodd" d="M41.469 93.908c.804 3.477 3.123 5.18 7.003 5.18h15.853v.047c0 2.543 2.177 4.597 4.827 4.597h93.342c2.673 0 4.827-2.054 4.827-4.597v-.047h15.852c3.857 0 6.152-1.703 6.98-5.18 4.093-17.199 9.039-37.85 10.789-45.154.332-1.377-.804-2.637-2.224-2.474l-82.86 9.24-82.576-9.24c-1.42-.163-2.555 1.097-2.224 2.45.514 2.223 1.298 5.644 2.254 9.811v.002c2.214 9.656 5.347 23.319 8.157 35.365Zm125.803 2.289 15.735-.003c2.532.023 3.692-.653 4.236-2.94 5.134-21.656 10.481-43.964 10.481-43.964l-81.889 9.124-81.7-9.124s4.992 22.308 10.126 43.964c.544 2.287 1.727 2.987 4.259 2.963l15.85-.002c.323-2.243 2.334-3.964 4.782-3.964h93.342c2.419 0 4.445 1.712 4.778 3.946Zm-41.428-1.356a.16.16 0 0 0-.166.163v5.857a.16.16 0 0 0 .166.164h1.041a.16.16 0 0 0 .165-.164v-3.267l3.502 3.454a.251.251 0 0 0 .118.047h.142a.16.16 0 0 0 .166-.164v-5.834a.16.16 0 0 0-.166-.163h-1.065a.16.16 0 0 0-.165.163v3.08l-3.525-3.336h-.213ZM89.027 97.99c0-1.727-1.42-3.127-3.195-3.127-1.774 0-3.17 1.4-3.17 3.127 0 1.75 1.396 3.127 3.17 3.127 1.775 0 3.195-1.4 3.195-3.127Zm-1.42 0c0 .957-.804 1.727-1.775 1.727-.97 0-1.774-.77-1.75-1.727 0-.957.78-1.75 1.75-1.75s1.775.793 1.775 1.75Zm-15.096-2.869a.16.16 0 0 1 .166-.163h2.153c1.704 0 3.1 1.353 3.1 3.033s-1.396 3.057-3.1 3.057h-2.153a.16.16 0 0 1-.166-.163v-5.764Zm2.248 4.62c.994 0 1.727-.77 1.727-1.773 0-.98-.733-1.75-1.727-1.75h-.852v3.523h.852Zm19.284-4.621a.16.16 0 0 1 .166-.163h1.088a.16.16 0 0 1 .166.163v3.523c0 .607.45 1.097 1.088 1.097.639 0 1.112-.49 1.112-1.096V95.12a.16.16 0 0 1 .166-.163h1.088a.16.16 0 0 1 .165.163v3.593c0 1.331-1.135 2.404-2.531 2.404-1.396 0-2.508-1.097-2.508-2.404V95.12Zm13.226-.257c.733 0 1.562.303 2.153.817.071.07.094.163.024.233l-.71.724a.16.16 0 0 1-.237 0c-.331-.304-.733-.42-1.159-.42-.97 0-1.751.793-1.751 1.75 0 .956.781 1.727 1.751 1.727.26 0 .52-.024.781-.14v-.514h-.568a.16.16 0 0 1-.166-.163v-.817a.16.16 0 0 1 .166-.163h1.775a.16.16 0 0 1 .165.163v2.334c0 .046-.024.116-.071.14 0 0-.899.56-2.2.56-1.752 0-3.171-1.377-3.171-3.104a3.222 3.222 0 0 1 3.218-3.127Zm7.572.257a.16.16 0 0 1 .166-.163h1.041a.16.16 0 0 1 .165.163v2.193h2.555V95.12a.16.16 0 0 1 .166-.163h1.041a.16.16 0 0 1 .166.163v5.74a.16.16 0 0 1-.166.164h-1.041a.16.16 0 0 1-.166-.164v-2.287h-2.531v2.287a.16.16 0 0 1-.166.164h-1.041a.16.16 0 0 1-.165-.164v-5.74h-.024Zm21.791-.163a.16.16 0 0 0-.165.163v3.593c0 1.307 1.111 2.404 2.507 2.404 1.397 0 2.533-1.073 2.533-2.404V95.12a.161.161 0 0 0-.166-.163h-1.088a.16.16 0 0 0-.166.163v3.523a1.09 1.09 0 0 1-1.113 1.097c-.638 0-1.088-.49-1.088-1.096V95.12a.16.16 0 0 0-.165-.163h-1.089Zm9.654 1.097a.16.16 0 0 0 .165.164h1.278v4.643a.16.16 0 0 0 .166.164h1.064a.16.16 0 0 0 .166-.164v-4.643h1.254a.16.16 0 0 0 .166-.164v-.957a.16.16 0 0 0-.166-.163h-3.928a.16.16 0 0 0-.165.163v.957Zm9.346 3.43-.425.723c-.072.116-.048.14.069.255l.001.002c.213.21.828.676 1.988.676 1.301 0 2.082-.91 2.082-1.796 0-1.19-1.088-1.704-1.775-1.984-.709-.28-.969-.513-.969-.84 0-.233.26-.444.568-.444.49 0 1.106.415 1.235.502l.018.012c.095.046.237-.023.308-.117l.449-.677c.048-.07.048-.21-.047-.28-.26-.186-.97-.653-1.893-.653-1.349 0-2.034.864-2.034 1.727 0 1.027.945 1.61 1.703 1.913.591.234.899.514.899.887 0 .303-.26.513-.615.513-.591 0-1.23-.443-1.254-.466-.071-.047-.237-.07-.308.047ZM141.957 65.86h43.82c2.39 0 4.306-1.96 4.259-4.387 0 0 0-.186-.024-.28-.047-.326-.497-.583-.686-.326-.52.746-2.295.746-3.431.746H141.91c-6.878 0-12.778 7.612-14.676 10.062a46.69 46.69 0 0 1-.325.416c.71-2.007 2.106-6.207 2.082-7.817-.071-3.734-4.448-3.944-6.649-3.104-.236.093-.142.49.095.537.733.14 2.129.676 1.609 2.73-.047.303-5.844 21.259-5.844 21.259-.071.21.094.443.331.443h4.094c.141 0 .283-.093.307-.233.402-1.424 2.035-7.118 2.058-7.164 1.066-2.894 2.603-4.784 3.905-4.784.615 0 .899.35.922.77.016.652-.605 2.78-1.182 4.755h-.001c-.269.923-.529 1.812-.709 2.502-.711 2.73.946 4.667 3.596 4.667 2.768 0 3.998-1.423 5.466-4.153.615-1.144 3.004-7.981 3.454-9.428.45.094 1.183.187 1.774.234a289.32 289.32 0 0 0-1.087 4.239l-.001.008c-.262 1.023-.521 2.036-.521 3.126-.023 1.704.568 3.57 2.627 3.57 2.248 0 3.643-1.47 4.472-2.473a4.284 4.284 0 0 0 3.927 2.474c2.13 0 3.904-.794 5.206-2.45l-.544 1.89c-.048.21.095.397.308.397h2.98a.281.281 0 0 0 .285-.234l2.224-8.12c.426-1.144 1.822-2.1 2.602-2.1.378 0 .592.233.45.77l-2.461 9.263c-.048.21.095.397.308.397h3.005c.142 0 .26-.093.283-.233l2.154-8.121c.497-1.097 1.821-2.1 2.602-2.1.355 0 .545.257.426.793-.023.094-.757 2.847-.97 3.64-1.278 4.761-.094 6.161 2.413 6.161 1.751 0 3.171-.957 4.07-2.193.734 1.726 2.413 2.193 3.904 2.193 3.147 0 4.756-2.077 5.442-3.127.118-.163.071-.397-.047-.513a2.873 2.873 0 0 0-.45-.303c-.142-.094-.355-.07-.449.046-.758.933-1.704 1.75-3.431 1.75-1.515 0-2.082-1.54-2.106-2.613 0-.164 0-.28.024-.397 4.306 0 6.27-2.754 6.222-4.807-.023-1.634-.851-3.29-3.288-3.29-4.165 0-6.531 4.527-6.46 8.074 0 .21.071 1.236.166 1.703-.402.514-1.207 1.144-1.917 1.144-.709 0-.875-.77-.78-1.634.119-1.124.418-2.318.704-3.46.337-1.348.657-2.624.644-3.634-.024-.793-.402-2.17-2.295-2.17-1.538 0-3.171.933-4.188 2.194l-.01-.082c-.093-.804-.244-2.112-2.119-2.112-.97 0-2.532.49-3.81 1.913l.379-1.376c.047-.21-.095-.397-.308-.397h-2.839a.28.28 0 0 0-.284.233s-1.656 5.974-1.704 6.16c-1.798 4.225-3.808 4.575-5.323 4.575-1.396 0-2.13-1.657-2.011-3.01 3.573 0 6.27-2.1 6.223-4.854-.024-1.774-.994-3.244-3.36-3.244-4.543 0-6.388 5.437-6.341 8.144 0 .443.047.887.094 1.237-.141.28-.899 1.143-1.822 1.143-1.372 0-1.348-3.15.828-9.59l.095-.234a.297.297 0 0 0-.284-.397c-.154.004-.354.014-.587.026-1.193.06-3.252.163-4.5-.306l.002-.013c.033-.189.401-2.32-1.895-2.32-1.159 0-2.011.746-1.987 1.727.023 1.446 1.112 2.006 1.727 2.286-1.017 3.034-2.082 6.021-3.076 8.261-.946 2.124-1.798 2.73-2.413 2.73-.568 0-.734-.396-.757-.863-.01-.659.359-1.734.801-3.027.671-1.959 1.513-4.417 1.47-6.68-.024-1.47-1.112-2.334-2.508-2.334-.734 0-1.869.163-2.958.957.024-.047 4.212-5.858 12.564-5.858Zm40.791 6.651c.497 0 .639.63.639 1.074.047 2.38-1.467 4.107-3.525 4.247.331-2.707 1.467-5.32 2.886-5.32Zm-29.221 0c.687 0 .71.957.663 1.54-.118 1.61-1.089 3.5-3.526 3.757.332-2.683 1.538-5.297 2.863-5.297Zm-37.952-6.65H83.799c.355-.444.686-1.284.663-2.124 0-.817-.237-1.517-.687-2.124h32.345c1.136 0 2.555-.047 3.005-.747.213-.326.638 0 .686.327.023.093.023.28.023.28.048 2.427-1.869 4.387-4.259 4.387Zm-34.805-.004c1.19 0 2.153-.95 2.153-2.123 0-1.173-.964-2.124-2.153-2.124s-2.153.95-2.153 2.123c0 1.173.964 2.124 2.153 2.124Zm32.534 5.227h2.957c.213 0 .356.21.332.514l-3.691 13.464 2.248.607c.142.047.213.28.166.443l-.19.584c-.047.163-.189.256-.355.21-.379-.117-1.775-.467-2.318-.56-.805 1.89-1.964 4.317-5.68 4.317-1.608 0-3.099-.934-3.122-2.24-.048-1.914 2.389-3.664 5.631-3.664.142-.35.52-1.75.52-1.75-1.017 1.19-2.271 1.283-3.029 1.283-1.206 0-2.413-1.027-2.602-2.66-1.561 1.657-4.022 2.66-6.648 2.66-1.751 0-2.58-.373-3.053-1.05l-1.372 5.134c-.024.14-.166.233-.308.233h-2.934c-.236 0-.402-.233-.33-.443l1.324-4.854.26-.91c-1.585 1.097-3.785 1.773-5.844 1.867-.165.023-.331.023-.497.023-2.082 0-3.17-.793-3.69-1.633-.521.63-1.846 1.633-3.337 1.633-.923 0-1.798-.257-2.366-.957a2.137 2.137 0 0 1-.402-.84c-.036.047-.071.088-.107.128-.035.041-.07.082-.106.129-.828.957-1.988 1.564-3.455 1.564-2.248 0-2.815-2.147-2.792-3.618 0-1.092.26-2.105.522-3.13l.07-.276c.26-1.074.994-3.898 1.017-3.968a16.93 16.93 0 0 1-1.798-.233c-.426 1.447-2.413 7.257-3.454 9.428-.923 1.936-2.083 4.153-5.182 4.153-2.2 0-4.732-1.47-3.88-4.62l.279-1.034c.44-1.63.864-3.203 1.353-4.823.284-.98.592-2.194-.662-2.194-1.444 0-2.958 2.194-3.904 4.784-.024.047-1.657 5.74-2.059 7.164-.024.14-.166.233-.308.233h-4.093c-.236 0-.402-.233-.331-.443 0 0 5.797-20.955 5.844-21.259.52-2.053-.875-2.59-1.609-2.73-.236-.047-.331-.443-.094-.537 2.2-.84 6.577-.63 6.648 3.104.024 1.61-1.372 5.81-2.082 7.817.105-.131.233-.299.385-.496 1.945-2.53 7.67-9.981 14.474-9.981h8.14c-.403.56-.71 1.33-.687 2.123.024.817.237 1.494.686 2.124h-8.068c-8.352 0-12.398 5.834-12.398 5.834.852-.63 1.75-.98 3.028-.98 1.988 0 2.461 1.726 2.461 2.52.015 1.986-.874 4.692-1.545 6.732-.408 1.243-.735 2.239-.726 2.672.023.467.094 1.003.686 1.003.923 0 1.822-1.26 2.13-1.913.804-1.657 2.413-5.857 3.454-9.1-.64-.281-1.586-.864-1.751-1.891-.213-1.19.71-2.124 1.87-2.124 2.223 0 2.128 1.867 2.034 2.334 1.247.468 3.288.365 4.476.305.233-.011.432-.021.587-.025.213 0 .355.21.284.397l-.094.233c-2.083 6.207-2.13 9.614-.781 9.614.757 0 1.727-.91 2.035-2.03.307-1.12 2.082-7.63 2.082-7.63l.094-.374c.095-.257.355-.35.592-.35h2.768a.3.3 0 0 1 .284.373l-2.153 7.794s0 .047-.024.14c-.45 1.704-.307 2.52.166 2.52.63 0 1.075-.565 1.246-.783l.008-.01c-.402-1.213.568-2.31 1.585-2.45.999-1.611 2.413-4.072 3.495-5.954.61-1.062 1.115-1.94 1.38-2.377.141-.233.402-.28.52-.28h1.633c.189 0 .283.21.165.397-.213.303-.497.84-.473 1.727.01.842.244 1.846.499 2.941.302 1.301.635 2.732.66 4.176 0 .42-.047 1.447-.568 2.45a5.65 5.65 0 0 0 .97-.537c.45-.326 1.278-1.05 1.586-2.193l2.035-7.42.118-.35c.024-.117.142-.21.284-.21h2.792c.213 0 .355.186.308.396l-.237.863c.922-1.12 2.01-1.423 3.004-1.423 2.603 0 3.408 2.753 2.698 6.254-.402 1.867-.994 3.523-1.822 4.76a7.991 7.991 0 0 0 1.514-.817c.26-.163 1.515-1.12 1.941-2.683.081-.312.172-.636.265-.972v-.001h.001c.123-.444.251-.906.373-1.384l1.183-4.294.141-.49a.327.327 0 0 1 .308-.233h2.958c.213 0 .354.21.307.42l-2.342 8.447c-.189.934-.095 2.007.78 2.007.853 0 1.704-1.12 2.367-3.29l2.034-7.327a.327.327 0 0 1 .308-.234ZM83.539 82.192c0 .257.45.537.97.537 1.041 0 2.035-1.284 2.011-3.034-.04-2.596-.421-4.115-.579-4.742-.028-.112-.049-.195-.06-.252-.213.444-2.153 3.944-2.484 4.434.473.233.71.98.71 1.47.014.57-.2.887-.37 1.138-.108.16-.198.294-.198.449Zm12.658-.07c1.656 0 2.722-2.917 3.289-6.347.308-1.89-.165-2.59-.828-2.59-1.23 0-1.916 1.446-2.319 2.87-.04.14-.11.414-.206.782-.192.733-.48 1.841-.811 3.021-.355 1.33 0 2.264.875 2.264Zm9.418 5.88c.023.35.307.63.733.63 1.278 0 1.751-1.003 2.413-2.613-1.254.047-3.17.747-3.146 1.983Zm88.395 8.66c0-.396-.308-.606-.687-.606h-1.017v2.1h.426v-.793h.45c.307 0 .354.256.378.793h.426l-.007-.16c-.012-.317-.023-.617-.348-.797.26-.116.379-.303.379-.536Zm-.757.374h-.521v-.677h.544c.166 0 .284.163.284.327a.308.308 0 0 1-.307.35Zm-.142 2.053c1.088 0 1.987-.887 1.987-1.96 0-1.074-.899-1.96-1.987-1.96s-1.988.886-1.988 1.96c0 1.073.9 1.96 1.988 1.96Zm-1.656-1.96c0-.91.733-1.634 1.656-1.634.899 0 1.656.724 1.656 1.634 0 .91-.734 1.633-1.656 1.633a1.635 1.635 0 0 1-1.656-1.633Z" fill="#121212"/></svg>