<svg width="232" height="150" fill="none" xmlns="http://www.w3.org/2000/svg"><path fill-rule="evenodd" clip-rule="evenodd" d="M155.389 115.801h1.085v9.178l-6.636-6.947v6.605h-1.116v-9.271l6.667 6.977v-6.542Zm-31.192 0v5.612c0 .992-.28 1.798-.838 2.419-.589.682-1.395.992-2.419.992-.961 0-1.766-.31-2.356-.992-.589-.621-.869-1.427-.869-2.419v-5.612h1.117v5.239c0 1.83.682 2.761 2.108 2.761 1.457 0 2.171-.931 2.171-2.761v-5.239h1.086Zm3.41 0h5.302v1.023h-2.108v7.814h-1.054v-7.814h-2.14v-1.023Zm-1.922 0h1.116v8.837h-1.116v-8.837Zm-9.767 0h1.209l-3.845 9.333-3.845-9.333h1.209l2.636 6.542 2.636-6.542Zm30.758 4.433c0 .992-.342 1.83-1.054 2.543-.651.682-1.488 1.023-2.451 1.023-.961 0-1.798-.341-2.51-1.023-.714-.714-1.055-1.551-1.055-2.543 0-.992.31-1.829.992-2.511.682-.713 1.551-1.054 2.573-1.054 1.024 0 1.861.341 2.512 1.054.652.682.993 1.519.993 2.511Zm-.248-3.255c-.93-.9-2.015-1.365-3.256-1.365-1.271 0-2.356.465-3.287 1.365-.899.899-1.364 1.984-1.364 3.255 0 1.302.466 2.387 1.364 3.286.9.869 1.985 1.303 3.287 1.303 1.272 0 2.388-.434 3.256-1.303.899-.899 1.364-1.984 1.364-3.286.001-1.271-.464-2.356-1.364-3.255Zm-8.155-1.178v1.023h-2.077v7.814h-1.116v-7.814h-2.108v-1.023h5.301Zm-51.285 1.922c.651.682.961 1.519.961 2.511 0 .992-.341 1.83-1.023 2.543a3.396 3.396 0 0 1-2.48 1.023c-.962 0-1.799-.341-2.512-1.023-.651-.714-1.023-1.551-1.023-2.543 0-.992.341-1.829.992-2.511.682-.713 1.52-1.054 2.543-1.054 1.023 0 1.891.341 2.542 1.054Zm.714-.744c-.93-.9-2.016-1.365-3.256-1.365-1.272 0-2.387.465-3.256 1.365-.93.899-1.395 1.984-1.395 3.255 0 1.302.466 2.387 1.395 3.286.869.869 1.954 1.303 3.256 1.303 1.302 0 2.388-.434 3.256-1.303.93-.899 1.364-1.984 1.364-3.286 0-1.271-.434-2.356-1.364-3.255Zm3.38 4.061c0 1.83.712 2.76 2.139 2.76 1.395 0 2.14-.93 2.14-2.76v-5.24h1.084v5.612c0 .992-.278 1.798-.868 2.419-.589.682-1.395.992-2.356.992-.992 0-1.767-.31-2.356-.992-.62-.621-.9-1.427-.9-2.419V115.8h1.117v5.24Zm-14.078-5.239v7.844H79.7v.992H75.92V115.8h1.085v.001Zm26.573 3.627c1.488.589 2.201 1.457 2.201 2.635 0 .807-.279 1.457-.837 1.985-.527.527-1.178.776-1.953.776-.713 0-1.334-.217-1.86-.714a2.867 2.867 0 0 1-.9-1.767l1.116-.248c0 .496.155.899.497 1.24.341.31.713.465 1.209.465.465 0 .837-.186 1.178-.527.279-.31.434-.713.434-1.209 0-.682-.496-1.24-1.519-1.675l-.62-.216c-1.24-.589-1.892-1.333-1.892-2.264 0-.682.279-1.271.776-1.675.527-.433 1.116-.62 1.829-.62 1.023 0 1.768.465 2.263 1.365l-.868.496c-.341-.527-.806-.806-1.426-.806-.372 0-.744.092-1.024.31-.309.247-.465.558-.465.929 0 .528.403.931 1.271 1.241l.59.279Zm-5.643-3.627h1.117v8.837h-1.117v-8.837Zm43.541-79.883-21.386 50.475-5.9-12.946 10.898-29.662c.819-2.294 3.687-3.36 8.522-3.36l1.72-4.507h-25.401l-1.639 4.507c3.606 0 5.081 1.065 4.507 3.36l-5.408 15.076-10.652-22.943c-1.966-2.458-.983-3.687 2.868-3.687v-5.326H75.022v5.326c4.589 0 7.456 1.23 8.686 3.688l18.027 38.348-8.44 22.533c-.165 3.032-4.917 4.508-14.094 4.508l-1.72 4.506h70.139l9.751-20.73h-5.08c-4.752 10.733-10.242 16.224-16.388 16.224h-32.202l4.752-12.701 4.097 8.193h9.178l25.892-60.88c1.229-3.688 4.425-5.654 9.423-5.654v-4.754h-21.14v4.753c6.391 0 8.194 1.966 5.572 5.653Z" fill="#121212"/></svg>