<svg width="232" height="150" fill="none" xmlns="http://www.w3.org/2000/svg"><path d="M71.002 54.773a15.204 15.204 0 0 0-5.63-1.068c-1.14 0-2.28.142-3.42.356l-4.596 7.906c1.889-1.033 3.99-1.531 6.164-1.496 1.318 0 2.6.179 3.848.535l3.634-6.233ZM43.39 76.033c0 11.397 9.691 20.264 20.985 20.264 11.829 0 21.377-9.544 21.377-21.153 0-6.802-3.278-12.785-8.159-16.774l-3.563 6.161a14.087 14.087 0 0 1 4.953 10.72c0 7.905-6.556 14.387-14.608 14.387S49.803 83.12 49.803 75.072v-.035c0-.962.072-1.923.25-2.85l-6.663 3.847Zm65.948-9.365a7.146 7.146 0 0 0-4.739 1.674l-.356-1.282h-3.207v16.274h4.098v-8.831c0-1.888 1.247-3.775 3.669-3.775 1.889 0 2.993 1.317 2.993 3.561v9.081h4.097v-9.437c0-4.416-2.565-7.265-6.555-7.265Zm47.563 0c-4.596 0-8.194 3.74-8.194 8.511 0 4.772 3.598 8.511 8.194 8.511 4.596 0 8.195-3.739 8.195-8.51 0-4.773-3.599-8.512-8.195-8.512Zm4.062 8.511c0 2.6-1.711 4.487-4.026 4.487-2.316 0-4.062-1.887-4.062-4.487s1.71-4.487 4.026-4.487 4.062 1.888 4.062 4.487Zm-28.289-8.511c-4.596 0-8.194 3.74-8.194 8.511 0 4.772 3.598 8.511 8.194 8.511 4.596 0 8.194-3.739 8.194-8.51 0-4.773-3.598-8.512-8.194-8.512Zm4.026 8.511c0 2.6-1.71 4.487-4.026 4.487s-4.026-1.887-4.026-4.487 1.71-4.487 4.026-4.487 4.026 1.888 4.026 4.487Zm45.354-8.511a7.145 7.145 0 0 0-4.738 1.674l-.356-1.282h-3.207v16.274h4.062v-8.831c0-1.888 1.247-3.775 3.669-3.775 1.889 0 3.029 1.317 3.029 3.561v9.081h4.097v-9.437c-.036-4.416-2.601-7.265-6.556-7.265Z" fill="#121212"/></svg>