<svg width="232" height="150" fill="none" xmlns="http://www.w3.org/2000/svg"><path fill-rule="evenodd" clip-rule="evenodd" d="M108.254 82.915c.712-1.496 1.979-3.938 2.636-4.739.819-.997 1.781-.392 1.78.464l-.641 35.446c0 .784-.499 1.282-1.068 1.282h-3.1c-.712 0-1.103-.285-1.103-1.282 0 0 .427-21.873.427-22.799 0-.925-.855-1.39-1.425-.427-.829 1.399-2.494 3.775-3.99 3.775-1.567 0-2.493-2.35-2.635-3.064-.143-.712-.784-.784-1.212.071-2.351 4.133-4.346 5.345-5.913 5.416-1.569.07-2.78-2.707-2.994-3.42-.213-.713-.641-.784-1.068-.071-.275.458-.758 1.005-1.351 1.68-.329.372-.691.783-1.072 1.24-1.069 1.282-4.702 4.346-6.769 2.637-2.215-1.834-1.03-6.39.428-8.835 2.422-4.06 4.417-5.13 6.483-5.058 1.935.422 2.28-.077 2.6-.543.058-.083.114-.166.18-.241.427-.5 1.495-.927 2.35-.927 1.212 0 1.782.998 1.853 2.209.07 1.211 1.069 5.13 2.422 5.13 2.138 0 4.062-6.484 4.418-7.98.356-1.497 1.567-1.924 1.995-1.996.427-.07 1.282.142 1.282 1.568 0 1.425.201 5.343 1.782 5.343 1.402 0 2.803-2.97 3.56-4.575l.145-.304Zm-21.589 9.227.001-.001c.641-1.069 2.067-3.563 1.069-4.133-1.051-.6-3.349 1.782-4.132 3.278-.523.997-1.568 3.847-.784 4.275 1.495.498 3.204-2.35 3.846-3.42Zm108.547-21.844.012-.01c.985-.862 1.319.32.676 1.245-.569.927-2.457 3.884-5.235 3.884-2.24 0-2.968-2.877-3.433-4.715-.111-.443-.208-.825-.307-1.092-.357-.962-1.389-1.318-2.03-.035-.046.09-.099.198-.16.323-.928 1.881-3.634 7.372-6.039 7.372-1.336 0-1.593-1.506-1.734-2.336-.017-.1-.032-.189-.048-.265-.142-.712-.926-.605-1.353.249-2.352 4.133-3.633 4.489-5.201 4.56-1.568.072-2.78-2.707-2.993-3.42-.213-.713-.641-.784-1.068-.07-.275.456-.754 1-1.345 1.671-.33.375-.695.789-1.077 1.249-1.07 1.282-4.773 5.272-6.84 3.562-2.216-1.833-.461-6.96.997-9.404 2.423-4.061 5.843-5.986 7.909-5.914 1.295.184 1.522-.11 1.836-.516a5.88 5.88 0 0 1 .158-.197c.429-.498.962-.925 1.782-.925 1.21 0 1.639 1.496 1.709 2.707l.012.206c.077 1.395.271 4.924 1.555 4.924 1.735 0 3.175-3.635 3.989-5.69.172-.434.316-.799.429-1.043.927-1.995 2.137-3.74 3.277-3.74.997 0 1.603 1.21 1.569 2.172-.013.33-.046.661-.078.974-.105 1.036-.191 1.876.575 1.876.815 0 1.628-1.485 2.043-2.242l.059-.109 2.174-3.49c.724-1.262 2.729-1.435 3.562 1.317.255.843.45 1.707.636 2.532.492 2.175.922 4.077 2.213 4.593 1.019.457 1.484.048 1.769-.203Zm-33.759 7.185c1.496.5 2.922-1.852 3.563-2.92.089-.15.198-.321.316-.508.73-1.154 1.825-2.885.967-3.376-1.052-.6-3.349 1.817-4.133 3.313-.523.998-1.497 3.064-.713 3.491Zm-17.968-13.067c1.711 1.995 7.766 6.412 7.766 6.412 2.921 2.209 4.276 6.127 1.066 10.189 0 0-11.043 11.542-13.608 16.315-.641 1.07-1.637 1.496-2.423.214-.783-1.282-3.063-5.13-.854-7.48 0 0 10.402-10.404 11.401-14.25.284-1.283.498-2.993-1.426-4.916-1.923-1.924-3.8-3.995-4.559-5.059-1.07-1.496-1.497-3.35.354-5.486.272-.313.66-.728 1.127-1.228 2.722-2.913 8.142-8.71 8.991-14.09.643-4.061-.569-6.056-1.424-6.84-.856-.783-4.061-2.707-7.197 2.066-2.86 4.358-3.49 9.328-3.882 12.42-.037.295-.072.574-.107.832-.641 4.774-.713 26.147-.713 27.36l.001.195c.009 1.044.027 3.104-1.711 4.507-1.851 1.495-5.913 3.775-4.559-.072.357-1.638.713-10.33.713-13.536 0-3.206.074-6.129.143-8.693.34-12.882 1.48-14.992 3.896-19.461l.378-.701c4.133-7.695 12.411-10.246 16.316-8.978 2.85.927 6.816 6.66 4.276 13.252-2.612 6.776-9.209 11.175-13.488 14.027l-.12.08c-.713.57-1.505 1.581-.357 2.921Zm53.484-10.82c0-.298-.132-.613-.398-.762-.265-.157-.563-.174-.863-.174h-1.539v3.536h.43v-1.632h.795l1.01 1.632h.515l-1.07-1.632c.631-.016 1.12-.273 1.12-.968Zm-1.707.629h-.663v-1.25h1.011c.439 0 .919.066.919.613.001.655-.638.645-1.126.638l-.141-.001Zm-105.84 52.378L68.808 96.536c-.453-.234-.687-.834-.678-1.226l.055-5.558c.008-.391.085-.793.6-1.162.159-.102.343-.216.55-.344 2.644-1.643 8.99-5.585 15.53-15.13 9.39-13.706 0-25.22-14.677-22.086-13.035 2.784-26.306 9.842-32.062 13.68-4.474 2.982-4.504 6.506-4.533 9.816-.004.486-.008.967-.027 1.44.285 1.567.856 1.425 2.138-.142 9.547-8.834 24.082-15.532 26.79-16.672.37-.156.81-.363 1.313-.599 3.17-1.49 8.84-4.154 15.359-2.678 7.254 1.643 5.491 11.506 3.277 15.674-2.423 4.56-9.334 11.186-12.469 12.825-1.19.622-1.638 0-1.638-.998l.5-21.446c0-1.425-.642-2.066-2.067-1.567l-2.28 1.14c-1.454.86-1.498 1.228-1.61 2.187a27.79 27.79 0 0 1-.029.235l-.345 24.724c-.012.533-.26.961-.554 1.087l-7.437 4.183c-1.71.856-1.283 2.138 0 2.566l5.985 2.85c1.425.569 1.853.996 1.853 2.421l-.214 11.97c5.344-1.068 5.7-3.634 5.842-5.344v-3.634c.142-.855.641-1.14 1.353-.997l17.385 8.407c1.567.713 2.422.426 3.562-1.567 1.139-1.993 1.282-2.99-.856-3.988Zm30.381-30.2c-2.415 1.394-3.533 4.004-2.581 5.652.95 1.649 3.824 1.925 6.242.529 2.417-1.396 3.463-3.934 2.511-5.582-.951-1.648-3.754-1.996-6.172-.6Zm75.54-25.135a3.165 3.165 0 0 0-2.237 5.4 3.165 3.165 0 0 0 3.448.685 3.156 3.156 0 0 0 1.945-2.93 3.154 3.154 0 0 0-3.156-3.155Zm0 5.946a2.784 2.784 0 0 1-2.573-1.723 2.793 2.793 0 0 1 .607-3.031 2.778 2.778 0 0 1 1.966-.81 2.776 2.776 0 0 1 2.567 3.84 2.776 2.776 0 0 1-2.567 1.725Z" fill="#121212"/></svg>