<svg width="232" height="150" fill="none" xmlns="http://www.w3.org/2000/svg"><path fill-rule="evenodd" clip-rule="evenodd" d="M42.758 89.18c-2.542-1.592-4.413-7.085-4.413-13.61 0-.24 0-.475.007-.71-7.066-1.11-12.171-4.154-12.302-7.751l-.02.041c-1.73 2.15-2.718 4.634-2.718 7.281 0 7.791 8.552 14.174 19.399 14.74l.047.008ZM20.044 75c0-8.717 10.849-15.785 24.231-15.785 13.383 0 24.231 7.068 24.231 15.785 0 8.718-10.848 15.786-24.23 15.786-13.383 0-24.232-7.068-24.232-15.786Zm24.231-13.508c2.584 0 4.78 3.92 5.595 9.388l.003-.008c5.026-.782 8.546-2.588 8.546-4.688 0-2.82-6.333-5.1-14.144-5.1-7.81 0-14.143 2.282-14.143 5.1 0 2.1 3.518 3.904 8.545 4.688l.003.008c.815-5.468 3.013-9.388 5.595-9.388ZM45.84 89.17c10.848-.565 19.4-6.948 19.4-14.739 0-2.647-.988-5.132-2.717-7.28l-.02-.042c-.131 3.597-5.236 6.64-12.302 7.752.005.234.007.47.007.708 0 6.526-1.874 12.019-4.413 13.61l.045-.009Zm-1.564-17.884c1.158 0 2.282-.05 3.358-.145-.536-3.504-1.837-5.978-3.358-5.978-1.52 0-2.82 2.474-3.357 5.978 1.075.096 2.2.145 3.357.145Zm0 12.98c1.945 0 3.531-4.045 3.617-9.12a39.534 39.534 0 0 1-7.232 0c.084 5.076 1.67 9.12 3.615 9.12ZM143.688 75c0-6.663 5.402-12.065 12.064-12.065 6.665 0 12.066 5.403 12.066 12.065 0 6.664-5.402 12.064-12.066 12.064-6.662 0-12.064-5.401-12.064-12.064Zm12.064 7.64c3.721 0 6.738-3.422 6.738-7.641 0-4.22-3.017-7.642-6.738-7.642-3.72 0-6.735 3.422-6.735 7.642 0 4.22 3.016 7.64 6.735 7.64Zm25.756 3.877V67.962H188.6v-4.194h-19.266v4.195h7.092v18.554h5.082Zm13.24-5.119-.005.005-1.95 5.114h-5.936l9.385-22.75h6.327l9.386 22.75h-5.938l-1.95-5.114-.005-.005h-9.314Zm4.659-3.84h3.195l-3.174-8.325h-.045l-3.176 8.325h3.2Zm-111.603 8.96V67.961h7.091v-4.194H75.628v4.195h7.093v18.554h5.083ZM96.196 75c0-6.663 5.402-12.065 12.066-12.065 6.663 0 12.065 5.403 12.065 12.065 0 6.664-5.402 12.064-12.065 12.064-6.664 0-12.066-5.401-12.066-12.064Zm12.066 7.64c3.719 0 6.736-3.422 6.736-7.641 0-4.22-3.016-7.642-6.736-7.642-3.721 0-6.737 3.422-6.737 7.642 0 4.22 3.016 7.64 6.737 7.64Zm26.323 3.877H129.43v-8.638l-8.869-14.111h5.937l5.509 9.562 5.511-9.562h5.935l-8.868 14.11V86.518Z" fill="#121212"/></svg>