<?xml version="1.0" encoding="UTF-8"?>
<svg xmlns="http://www.w3.org/2000/svg" width="170" height="58" viewBox="0 0 170 58" fill="none">
  <path fill-rule="evenodd" clip-rule="evenodd" d="M10.4686 47.9076C11.2731 51.3847 13.5919 53.0882 17.4722 53.0882H33.3251V53.1348C33.3251 55.6784 35.5019 57.7319 38.1519 57.7319H131.494C134.167 57.7319 136.32 55.6784 136.32 53.1348V53.0882H152.173C156.029 53.0882 158.325 51.3847 159.153 47.9076C163.246 30.7094 168.192 10.0575 169.942 2.75351C170.273 1.37671 169.138 0.116597 167.718 0.279946L84.8578 9.5208L2.28203 0.279946C0.86239 0.116597 -0.273322 1.37671 0.0579302 2.73017C0.571476 4.95309 1.35594 8.37414 2.3115 12.5413L2.31182 12.5427C4.52609 22.1992 7.65899 35.8618 10.4686 47.9076ZM136.272 50.1967L152.007 50.194C154.539 50.2173 155.699 49.5406 156.242 47.2538C161.377 25.5984 166.724 3.28969 166.724 3.28969L84.8343 12.4138L3.13395 3.28969C3.13395 3.28969 8.1264 25.5984 13.2607 47.2538C13.8049 49.5406 14.988 50.2407 17.5197 50.2173L33.3703 50.2146C33.6927 47.9719 35.7041 46.2508 38.1519 46.2508H131.494C133.913 46.2508 135.938 47.9628 136.272 50.1967ZM94.8434 48.8407C94.7484 48.8407 94.6776 48.9107 94.6776 49.004V54.8612C94.6776 54.9546 94.7484 55.0246 94.8434 55.0246H95.8843C95.9787 55.0246 96.0494 54.9546 96.0494 54.8612V51.5942L99.5517 55.0479C99.5752 55.0712 99.646 55.0946 99.6696 55.0946H99.8117C99.9067 55.0946 99.9775 55.0246 99.9775 54.9312V49.0974C99.9775 49.004 99.9067 48.934 99.8117 48.934H98.7472C98.6522 48.934 98.5814 49.004 98.5814 49.0974V52.1776L95.0563 48.8407H94.8434ZM58.0265 51.99C58.0265 50.2632 56.6068 48.863 54.8322 48.863C53.0577 48.863 51.6617 50.2632 51.6617 51.99C51.6617 53.7402 53.0577 55.117 54.8322 55.117C56.6068 55.117 58.0265 53.7169 58.0265 51.99ZM56.6068 51.99C56.6068 52.9468 55.8023 53.7169 54.8322 53.7169C53.8622 53.7169 53.0577 52.9468 53.0813 51.99C53.0813 51.0332 53.8622 50.2399 54.8322 50.2399C55.8023 50.2399 56.6068 51.0332 56.6068 51.99ZM41.5111 49.1211C41.5111 49.0278 41.582 48.9578 41.6767 48.9578H43.8298C45.5334 48.9578 46.9293 50.3113 46.9293 51.9914C46.9293 53.6715 45.5334 55.0483 43.8298 55.0483H41.6767C41.582 55.0483 41.5111 54.9783 41.5111 54.885V49.1211ZM43.7588 53.7415C44.7526 53.7415 45.486 52.9715 45.486 51.9681C45.486 50.9879 44.7526 50.2179 43.7588 50.2179H42.9071V53.7415H43.7588ZM63.0427 49.1199C63.0427 49.0265 63.1137 48.9565 63.2083 48.9565H64.2967C64.3914 48.9565 64.4624 49.0265 64.4624 49.1199V52.6435C64.4624 53.2502 64.912 53.7403 65.5508 53.7403C66.1896 53.7403 66.6626 53.2502 66.6626 52.6435V49.1199C66.6626 49.0265 66.734 48.9565 66.8284 48.9565H67.9172C68.0115 48.9565 68.0822 49.0265 68.0822 49.1199V52.7135C68.0822 54.0436 66.947 55.1171 65.5508 55.1171C64.1548 55.1171 63.0427 54.0203 63.0427 52.7135V49.1199ZM76.2685 48.863C77.0022 48.863 77.8303 49.1664 78.4218 49.6798C78.4926 49.7498 78.5162 49.8432 78.4454 49.9132L77.736 50.6365C77.6645 50.7065 77.5702 50.7065 77.4988 50.6365C77.168 50.3332 76.7657 50.2165 76.3399 50.2165C75.3697 50.2165 74.5888 51.0099 74.5888 51.9667C74.5888 52.9234 75.3697 53.6935 76.3399 53.6935C76.6 53.6935 76.86 53.6702 77.1208 53.5535V53.0401H76.5528C76.4578 53.0401 76.3871 52.9701 76.3871 52.8767V52.06C76.3871 51.9667 76.4578 51.8967 76.5528 51.8967H78.3275C78.4218 51.8967 78.4926 51.9667 78.4926 52.06V54.3936C78.4926 54.4402 78.469 54.5102 78.4218 54.5336C78.4218 54.5336 77.523 55.0937 76.2213 55.0937C74.4702 55.0937 73.0506 53.7169 73.0506 51.99C73.0984 50.2632 74.518 48.863 76.2685 48.863ZM83.8407 49.1199C83.8407 49.0265 83.9115 48.9565 84.0065 48.9565H85.0475C85.1418 48.9565 85.2132 49.0265 85.2132 49.1199V51.3134H87.7681V49.1199C87.7681 49.0265 87.8389 48.9565 87.9339 48.9565H88.9749C89.0699 48.9565 89.1406 49.0265 89.1406 49.1199V54.8604C89.1406 54.9537 89.0699 55.0237 88.9749 55.0237H87.9339C87.8389 55.0237 87.7681 54.9537 87.7681 54.8604V52.5735H85.2368V54.8604C85.2368 54.9537 85.1654 55.0237 85.071 55.0237H84.0301C83.9351 55.0237 83.8643 54.9537 83.8643 54.8604V49.1199H83.8407ZM105.632 48.9565C105.537 48.9565 105.466 49.0265 105.466 49.1199V52.7135C105.466 54.0203 106.578 55.1171 107.974 55.1171C109.37 55.1171 110.506 54.0436 110.506 52.7135V49.1199C110.506 49.0265 110.435 48.9565 110.341 48.9565H109.252C109.157 48.9565 109.087 49.0265 109.087 49.1199V52.6435C109.087 53.2502 108.613 53.7403 107.974 53.7403C107.336 53.7403 106.886 53.2502 106.886 52.6435V49.1199C106.886 49.0265 106.815 48.9565 106.72 48.9565H105.632ZM115.285 50.0542C115.285 50.1476 115.357 50.2176 115.451 50.2176H116.729V54.8613C116.729 54.9546 116.8 55.0246 116.894 55.0246H117.959C118.054 55.0246 118.125 54.9546 118.125 54.8613V50.2176H119.379C119.474 50.2176 119.544 50.1476 119.544 50.0542V49.0974C119.544 49.0041 119.474 48.9341 119.379 48.9341H115.451C115.357 48.9341 115.285 49.0041 115.285 49.0974V50.0542ZM124.632 53.4835L124.206 54.2069C124.135 54.3232 124.159 54.3467 124.276 54.4623L124.277 54.4636C124.49 54.6736 125.105 55.1403 126.265 55.1403C127.566 55.1403 128.347 54.2302 128.347 53.3435C128.347 52.1534 127.258 51.64 126.572 51.36C125.862 51.0799 125.602 50.8466 125.602 50.5199C125.602 50.2865 125.862 50.0765 126.17 50.0765C126.66 50.0765 127.277 50.4907 127.406 50.5777L127.424 50.5899C127.519 50.6365 127.661 50.5665 127.731 50.4732L128.181 49.7965C128.229 49.7265 128.229 49.5865 128.134 49.5165C127.874 49.3298 127.163 48.863 126.241 48.863C124.892 48.863 124.206 49.7265 124.206 50.5899C124.206 51.6167 125.152 52.2 125.91 52.5034C126.501 52.7367 126.809 53.0168 126.809 53.3902C126.809 53.6935 126.548 53.9035 126.194 53.9035C125.602 53.9035 124.964 53.4602 124.939 53.4369C124.869 53.3902 124.703 53.3668 124.632 53.4835ZM110.957 19.8604H154.777C157.167 19.8604 159.083 17.9003 159.036 15.4734C159.036 15.4734 159.036 15.2867 159.012 15.1934C158.965 14.8666 158.515 14.6099 158.326 14.8666C157.805 15.6134 156.031 15.6134 154.895 15.6134H110.91C104.032 15.6134 98.132 23.2255 96.2335 25.6749C96.1074 25.8376 95.9989 25.9776 95.9089 26.091C96.6184 24.0841 98.0145 19.8838 97.9909 18.2736C97.9201 14.5399 93.5427 14.3299 91.3421 15.17C91.1056 15.2634 91.2 15.6601 91.4371 15.7067C92.1702 15.8467 93.5662 16.3834 93.0461 18.437C92.9983 18.7403 87.2018 39.6956 87.2018 39.6956C87.1304 39.9057 87.2962 40.139 87.5326 40.139H91.6265C91.768 40.139 91.9101 40.0457 91.9337 39.9057C92.3359 38.4822 93.9685 32.7883 93.9921 32.7417C95.0573 29.848 96.5948 27.9578 97.8966 27.9578C98.5117 27.9578 98.7954 28.3079 98.8189 28.728C98.835 29.3802 98.2135 31.5075 97.6363 33.4831L97.6362 33.4837C97.3668 34.4057 97.1071 35.2947 96.9263 35.9853C96.2162 38.7155 97.8723 40.6524 100.523 40.6524C103.291 40.6524 104.521 39.2289 105.989 36.4987C106.604 35.3552 108.993 28.5179 109.443 27.0711C109.892 27.1645 110.626 27.2578 111.217 27.3045C111.193 27.3745 110.46 30.1981 110.2 31.2715C110.177 31.3624 110.153 31.4531 110.13 31.5438L110.128 31.5515C109.867 32.5753 109.608 33.5877 109.608 34.6785C109.584 36.382 110.176 38.2488 112.234 38.2488C114.483 38.2488 115.878 36.7787 116.707 35.7752C117.18 36.8487 118.504 38.2488 120.634 38.2488C122.764 38.2488 124.538 37.4554 125.84 35.7986L125.295 37.6888C125.248 37.8988 125.39 38.0855 125.603 38.0855H128.584C128.726 38.0855 128.845 37.9921 128.868 37.8521L131.092 29.7313C131.518 28.588 132.914 27.6312 133.695 27.6312C134.073 27.6312 134.287 27.8645 134.145 28.4013L131.684 37.6654C131.636 37.8755 131.778 38.0622 131.991 38.0622H134.996C135.138 38.0622 135.256 37.9688 135.28 37.8288L137.433 29.708C137.931 28.6113 139.255 27.6078 140.036 27.6078C140.391 27.6078 140.58 27.8645 140.462 28.4013C140.438 28.4946 139.705 31.2482 139.492 32.0416C138.214 36.802 139.397 38.2022 141.905 38.2022C143.656 38.2022 145.076 37.2454 145.975 36.0086C146.708 37.7354 148.388 38.2022 149.879 38.2022C153.026 38.2022 154.635 36.1253 155.321 35.0752C155.439 34.9118 155.392 34.6785 155.273 34.5618C155.155 34.4685 155.037 34.3752 154.824 34.2585C154.682 34.1651 154.469 34.1885 154.375 34.3052C153.617 35.2385 152.671 36.0553 150.944 36.0553C149.429 36.0553 148.862 34.5152 148.838 33.4417C148.838 33.2783 148.838 33.1617 148.862 33.045C153.168 33.045 155.132 30.2914 155.084 28.2379C155.06 26.6044 154.232 24.9476 151.795 24.9476C147.631 24.9476 145.265 29.4747 145.336 33.0217C145.336 33.2317 145.407 34.2585 145.502 34.7252C145.099 35.2385 144.295 35.8686 143.585 35.8686C142.875 35.8686 142.71 35.0985 142.805 34.2351C142.924 33.1105 143.223 31.9171 143.509 30.7744C143.846 29.4275 144.166 28.1511 144.153 27.1411C144.129 26.3477 143.751 24.9709 141.858 24.9709C140.32 24.9709 138.687 25.9043 137.67 27.1645L137.66 27.0827C137.567 26.2787 137.415 24.9709 135.541 24.9709C134.57 24.9709 133.009 25.461 131.731 26.8845L132.11 25.5076C132.157 25.2976 132.015 25.111 131.802 25.111H128.963C128.821 25.111 128.703 25.2043 128.679 25.3443C128.679 25.3443 127.023 31.3182 126.975 31.5048C125.177 35.7286 123.166 36.0786 121.652 36.0786C120.256 36.0786 119.522 34.4218 119.64 33.0683C123.213 33.0683 125.911 30.9682 125.863 28.2146C125.84 26.4411 124.87 24.9709 122.503 24.9709C117.961 24.9709 116.115 30.4081 116.162 33.115C116.162 33.5584 116.21 34.0018 116.257 34.3518C116.115 34.6318 115.358 35.4952 114.435 35.4952C113.063 35.4952 113.087 32.345 115.263 25.9043L115.358 25.671C115.429 25.4843 115.287 25.2743 115.074 25.2743C114.919 25.2781 114.72 25.2881 114.487 25.2998L114.487 25.2998C113.294 25.3596 111.234 25.4629 109.987 24.9943C109.987 24.9933 109.987 24.9889 109.989 24.9811C110.021 24.7921 110.39 22.6607 108.094 22.6607C106.934 22.6607 106.083 23.4075 106.106 24.3875C106.13 25.8343 107.219 26.3944 107.834 26.6744C106.817 29.708 105.751 32.695 104.758 34.9352C103.812 37.0587 102.96 37.6654 102.345 37.6654C101.777 37.6654 101.611 37.2687 101.587 36.802C101.578 36.1434 101.946 35.0681 102.389 33.7755L102.389 33.7754C103.06 31.8163 103.901 29.358 103.859 27.0945C103.835 25.6243 102.747 24.7609 101.351 24.7609C100.617 24.7609 99.4813 24.9243 98.3931 25.7176C98.4167 25.671 102.605 19.8604 110.957 19.8604ZM151.748 26.5111C152.245 26.5111 152.387 27.1411 152.387 27.5845C152.434 29.9647 150.92 31.6915 148.862 31.8315C149.193 29.1246 150.329 26.5111 151.748 26.5111ZM122.527 26.5111C123.213 26.5111 123.237 27.4678 123.19 28.0512C123.071 29.6613 122.101 31.5515 119.664 31.8082C119.996 29.1246 121.202 26.5111 122.527 26.5111ZM84.575 19.8601H52.799C53.1538 19.4167 53.4851 18.5767 53.4615 17.7366C53.4615 16.9198 53.2248 16.2198 52.7753 15.6131H85.1194C86.2554 15.6131 87.675 15.5664 88.1244 14.8663C88.3374 14.5396 88.7632 14.8663 88.8103 15.193C88.8339 15.2863 88.8339 15.473 88.8339 15.473C88.8818 17.9 86.9649 19.8601 84.575 19.8601ZM49.7699 19.857C50.959 19.857 51.923 18.9062 51.923 17.7335C51.923 16.5606 50.959 15.6099 49.7699 15.6099C48.5807 15.6099 47.6168 16.5606 47.6168 17.7335C47.6168 18.9062 48.5807 19.857 49.7699 19.857ZM82.3041 25.0842H85.2612C85.4742 25.0842 85.6163 25.2943 85.5927 25.5976L81.9018 39.0622L84.1495 39.6689C84.2917 39.7156 84.3624 39.949 84.3153 40.1123L84.1259 40.6957C84.0788 40.859 83.9366 40.9523 83.7709 40.9057C83.3922 40.789 81.9962 40.439 81.4524 40.3456C80.6479 42.2358 79.4884 44.6627 75.7732 44.6627C74.1643 44.6627 72.6739 43.7293 72.6503 42.4225C72.6031 40.509 75.0402 38.7588 78.2817 38.7588C78.4238 38.4088 78.8018 37.0086 78.8018 37.0086C77.7844 38.1988 76.5305 38.2921 75.7732 38.2921C74.5665 38.2921 73.3598 37.2653 73.1711 35.6319C71.6093 37.2887 69.1487 38.2921 66.5224 38.2921C64.7713 38.2921 63.9431 37.9188 63.4699 37.242L62.0976 42.3758C62.074 42.5158 61.932 42.6092 61.79 42.6092H58.8561C58.6195 42.6092 58.4539 42.3758 58.5248 42.1658L59.8498 37.312L60.1101 36.402C58.5248 37.4987 56.3244 38.1755 54.2659 38.2688C54.1003 38.2921 53.9346 38.2921 53.769 38.2921C51.6869 38.2921 50.5985 37.4987 50.078 36.6586C49.5574 37.2887 48.2324 38.2921 46.7418 38.2921C45.819 38.2921 44.9436 38.0355 44.3757 37.3353C44.1864 37.102 44.0444 36.7986 43.9735 36.4953C43.938 36.5419 43.9026 36.5826 43.8672 36.6234C43.8316 36.6643 43.7961 36.7052 43.7605 36.752C42.9324 37.7087 41.773 38.3155 40.306 38.3155C38.0583 38.3155 37.4904 36.1686 37.5141 34.6985C37.5141 33.6061 37.7732 32.5925 38.0353 31.5673L38.0354 31.5672C38.0588 31.4754 38.0823 31.3835 38.1056 31.2915C38.3659 30.2181 39.0994 27.3944 39.123 27.3244C38.5315 27.2778 37.7744 27.1844 37.3248 27.0911C36.8989 28.5379 34.9114 34.3484 33.8703 36.5186C32.9475 38.4555 31.7882 40.6723 28.6886 40.6723C26.4882 40.6723 23.9565 39.2022 24.8083 36.0519C24.9026 35.7041 24.9955 35.3598 25.0877 35.0181L25.0877 35.018L25.0877 35.018C25.5275 33.3878 25.9518 31.8151 26.4409 30.1947C26.7248 29.2146 27.0324 28.0012 25.7784 28.0012C24.3351 28.0012 22.8208 30.1947 21.8743 32.7849C21.8507 32.8316 20.2181 38.5255 19.8159 39.949C19.7922 40.089 19.6502 40.1823 19.5083 40.1823H15.4149C15.1784 40.1823 15.0128 39.949 15.0837 39.7389C15.0837 39.7389 20.8806 18.7837 20.9279 18.4803C21.4485 16.4267 20.0525 15.89 19.319 15.75C19.0824 15.7034 18.9877 15.3067 19.2243 15.2134C21.4248 14.3732 25.802 14.5832 25.873 18.3169C25.8967 19.9271 24.5007 24.1275 23.7909 26.1343C23.8953 26.0027 24.0239 25.8353 24.1756 25.638C26.1203 23.1071 31.8455 15.6567 38.6498 15.6567H46.7891C46.3869 16.2167 46.0793 16.9868 46.1029 17.7802C46.1266 18.597 46.3396 19.2737 46.7891 19.9037H38.7208C30.3686 19.9037 26.3226 25.7376 26.3226 25.7376C27.1744 25.1076 28.0735 24.7576 29.3512 24.7576C31.3386 24.7576 31.8118 26.4844 31.8118 27.2778C31.8266 29.2638 30.9373 31.9702 30.2672 34.0097C29.8586 35.2533 29.5315 36.2489 29.5404 36.682C29.5641 37.1487 29.6351 37.6854 30.2266 37.6854C31.1494 37.6854 32.0485 36.4253 32.356 35.7719C33.1605 34.1151 34.7695 29.9147 35.8105 26.6711C35.1716 26.391 34.2253 25.8076 34.0597 24.7809C33.8467 23.5908 34.7695 22.6574 35.9288 22.6574C38.1529 22.6574 38.0583 24.5242 37.9637 24.9909C39.2103 25.4593 41.2514 25.3564 42.4398 25.2965C42.6723 25.2848 42.8722 25.2747 43.0271 25.2709C43.24 25.2709 43.382 25.4809 43.311 25.6676L43.2163 25.9009C41.1342 32.1082 41.0869 35.5152 42.4356 35.5152C43.1927 35.5152 44.1628 34.6051 44.4703 33.485C44.778 32.3649 46.5525 25.8543 46.5525 25.8543L46.6471 25.4809C46.7418 25.2242 47.0021 25.1309 47.2387 25.1309H50.007C50.1962 25.1309 50.3383 25.3176 50.2909 25.5043L48.1378 33.2983C48.1378 33.2983 48.1378 33.345 48.1141 33.4383C47.6645 35.1418 47.8065 35.9586 48.2798 35.9586C48.9089 35.9586 49.3545 35.3928 49.526 35.1749L49.5338 35.1651C49.1315 33.9517 50.1016 32.855 51.119 32.7149C52.1174 31.1036 53.5317 28.6433 54.6137 26.7612C55.224 25.6995 55.7286 24.8218 55.9931 24.3842C56.1351 24.1508 56.3954 24.1041 56.5137 24.1041H58.1463C58.3356 24.1041 58.4302 24.3142 58.3119 24.5009C58.0989 24.8042 57.815 25.3409 57.8386 26.2277C57.8495 27.0703 58.0828 28.0739 58.3374 29.1693C58.6398 30.4703 58.9724 31.9008 58.9981 33.345C58.9981 33.765 58.9507 34.7918 58.4302 35.7952C58.7614 35.6552 59.0927 35.4685 59.4003 35.2585C59.8499 34.9318 60.678 34.2084 60.9856 33.065L63.0204 25.6443L63.1387 25.2943C63.1624 25.1776 63.2807 25.0842 63.4226 25.0842H66.2145C66.4274 25.0842 66.5695 25.2709 66.5224 25.4809L66.2859 26.3444C67.2083 25.2243 68.2964 24.9209 69.2902 24.9209C71.893 24.9209 72.6975 27.6744 71.988 31.1748C71.5858 33.0416 70.9942 34.6985 70.1661 35.9352C70.6627 35.7252 71.1835 35.4685 71.6801 35.1185C71.9402 34.9551 73.1947 33.9984 73.6205 32.4349C73.7019 32.1241 73.792 31.8003 73.8851 31.4654L73.8854 31.4643L73.8859 31.4627C74.0093 31.0191 74.1381 30.5561 74.2593 30.078L75.4424 25.7843L75.5839 25.2943C75.6317 25.1542 75.7497 25.0609 75.8918 25.0609H78.8497C79.0626 25.0609 79.2041 25.2709 79.1569 25.4809L76.8149 33.9284C76.6255 34.8618 76.7199 35.9352 77.5951 35.9352C78.4474 35.9352 79.2991 34.8151 79.9614 32.6449L81.9962 25.3176C82.0433 25.1776 82.1619 25.0842 82.3041 25.0842ZM52.5387 36.1919C52.5387 36.4486 52.9883 36.7286 53.5087 36.7286C54.5499 36.7286 55.5436 35.4452 55.5199 33.695C55.4797 31.0992 55.0983 29.5802 54.9407 28.9525C54.9127 28.841 54.8918 28.7576 54.8811 28.7013C54.6682 29.1446 52.728 32.6449 52.3967 33.135C52.8699 33.3683 53.1065 34.1151 53.1065 34.6051C53.121 35.1743 52.9066 35.4919 52.7372 35.743C52.6287 35.9036 52.5387 36.0371 52.5387 36.1919ZM65.1972 36.1219C66.8532 36.1219 67.9184 33.205 68.4857 29.7746C68.7937 27.8845 68.3207 27.1844 67.6577 27.1844C66.4274 27.1844 65.7414 28.6312 65.3391 30.0547C65.2996 30.1949 65.2285 30.4677 65.1328 30.8349L65.1323 30.8369C64.9413 31.5698 64.6525 32.6779 64.3217 33.8584C63.9669 35.1885 64.3217 36.1219 65.1972 36.1219ZM74.6143 42.0025C74.6379 42.3525 74.9216 42.6325 75.3474 42.6325C76.6255 42.6325 77.0985 41.6291 77.7608 40.019C76.507 40.0656 74.5908 40.7657 74.6143 42.0025ZM163.01 50.6626C163.01 50.2658 162.702 50.0558 162.323 50.0558H161.306V52.156H161.732V51.3626H162.182C162.489 51.3626 162.536 51.6193 162.56 52.156H162.986C162.983 52.1028 162.981 52.0495 162.979 51.9968V51.9965C162.967 51.6794 162.956 51.3793 162.631 51.1993C162.891 51.0826 163.01 50.8959 163.01 50.6626ZM162.252 51.036H161.732V50.3592H162.276C162.442 50.3592 162.56 50.5225 162.56 50.6859C162.584 50.8726 162.442 51.036 162.252 51.036ZM162.111 53.0891C163.199 53.0891 164.098 52.2023 164.098 51.1289C164.098 50.0554 163.199 49.1687 162.111 49.1687C161.022 49.1687 160.123 50.0554 160.123 51.1289C160.123 52.2023 161.022 53.0891 162.111 53.0891ZM160.454 51.1289C160.454 50.2188 161.188 49.4954 162.111 49.4954C163.009 49.4954 163.767 50.2188 163.767 51.1289C163.767 52.039 163.033 52.7624 162.111 52.7624C161.188 52.7624 160.454 52.039 160.454 51.1289Z" fill="#939597"></path>
</svg>
