<?xml version="1.0" encoding="UTF-8"?>
<svg xmlns="http://www.w3.org/2000/svg" width="146" height="44" viewBox="0 0 146 44" fill="none">
  <path d="M28.0024 1.77246C26.221 1.06023 24.297 0.704102 22.3731 0.704102C21.233 0.704102 20.0929 0.846554 18.9528 1.06023L14.3568 8.96609C16.245 7.93331 18.3471 7.43474 20.5205 7.4704C21.8387 7.4704 23.1213 7.64853 24.3684 8.00462L28.0024 1.77246ZM0.390625 23.0329C0.390625 34.4289 10.0815 43.2963 21.3755 43.2963C33.204 43.2963 42.7524 33.7522 42.7524 22.1426C42.7524 15.3407 39.4745 9.35784 34.5936 5.36935L31.0308 11.5302C34.166 14.2011 35.9831 18.1185 35.9831 22.2494C35.9831 30.1554 29.4275 36.6367 21.3755 36.6367C13.3236 36.6367 6.80366 30.1198 6.80366 22.0715C6.80366 22.0715 6.80366 22.0715 6.80366 22.0358C6.80366 21.0742 6.87498 20.1127 7.05311 19.1868L0.390625 23.0329ZM66.3382 13.6669C64.5923 13.6313 62.9179 14.2368 61.5996 15.3407L61.2434 14.0587H58.0369V30.3334H62.134V21.5016C62.134 19.6142 63.3811 17.7267 65.8038 17.7267C67.692 17.7267 68.7965 19.0445 68.7965 21.288V30.3691H72.8936V20.9319C72.8936 16.516 70.3285 13.6669 66.3382 13.6669ZM113.902 13.6669C109.306 13.6669 105.707 17.4061 105.707 22.1783C105.707 26.9503 109.306 30.6895 113.902 30.6895C118.498 30.6895 122.096 26.9503 122.096 22.1783C122.096 17.4061 118.498 13.6669 113.902 13.6669ZM117.963 22.1783C117.963 24.7779 116.253 26.6653 113.937 26.6653C111.621 26.6653 109.876 24.7779 109.876 22.1783C109.876 19.5785 111.586 17.6911 113.902 17.6911C116.217 17.6911 117.963 19.5785 117.963 22.1783ZM89.6745 13.6669C85.0784 13.6669 81.48 17.4061 81.48 22.1783C81.48 26.9503 85.0784 30.6895 89.6745 30.6895C94.2705 30.6895 97.8689 26.9503 97.8689 22.1783C97.8689 17.4061 94.2705 13.6669 89.6745 13.6669ZM93.7005 22.1783C93.7005 24.7779 91.9903 26.6653 89.6745 26.6653C87.3586 26.6653 85.6485 24.7779 85.6485 22.1783C85.6485 19.5785 87.3586 17.6911 89.6745 17.6911C91.9903 17.6911 93.7005 19.5785 93.7005 22.1783ZM139.055 13.6669C137.309 13.6313 135.635 14.2368 134.316 15.3407L133.96 14.0587H130.754V30.3334H134.815V21.5016C134.815 19.6142 136.062 17.7267 138.485 17.7267C140.373 17.7267 141.513 19.0445 141.513 21.288V30.3691H145.611V20.9319C145.575 16.516 143.01 13.6669 139.055 13.6669Z" fill="#121212"></path>
</svg>
