<?xml version="1.0" encoding="UTF-8"?>
<svg xmlns="http://www.w3.org/2000/svg" width="124" height="78" viewBox="0 0 124 78" fill="none">
  <path fill-rule="evenodd" clip-rule="evenodd" d="M33.9666 0.451488C29.9633 2.20162 31.4534 8.35556 35.8654 8.29433C40.2464 8.23344 41.3502 2.12385 37.2883 0.417068C35.9444 -0.147887 35.3221 -0.141268 33.9666 0.451488ZM11.5581 14.8772C7.78948 15.6232 4.14457 18.3374 2.36095 21.7258C0.170916 25.8864 0.195597 25.6554 0.0606739 43.3268C-0.0610862 59.3276 -0.0591117 59.3918 0.64249 60.2887C1.44183 61.3111 3.04051 61.5093 4.11528 60.7196C4.72869 60.2689 4.76061 59.5983 4.92318 43.9232C5.08805 27.9738 5.10911 27.5534 5.83079 25.7497C7.4706 21.6494 10.2556 19.6937 14.4442 19.7007C17.1298 19.705 19.0773 20.3576 21.1515 21.9486C23.1536 23.4846 25.6507 22.7071 25.6507 20.5476C25.6507 18.6082 21.6402 15.8893 17.4668 14.9997C15.0513 14.4847 13.684 14.4565 11.5581 14.8772ZM62.5078 14.899C57.9931 15.6434 53.3139 19.0391 51.1828 23.1175C49.1353 27.0365 49.0276 28.1134 49.0211 44.7384L49.0155 59.5643L49.8234 60.3764C50.7353 61.2939 52.1661 61.4415 53.1484 60.7196C53.7615 60.2692 53.7937 59.6046 53.9517 44.2542L54.1162 28.2581L54.9949 26.3729C57.8191 20.3133 64.5284 18.0032 70.6233 20.9914C72.6995 22.0091 74.4752 23.9281 75.6266 26.398L76.4938 28.2581L76.6583 44.2542C76.8163 59.6046 76.8485 60.2692 77.4616 60.7196C78.5225 61.4991 80.135 61.3111 80.9123 60.3169C81.5794 59.464 81.5945 59.1204 81.5889 44.6788C81.5824 28.1366 81.4721 27.0315 79.441 23.144C77.2138 18.8815 72.6521 15.6464 67.7731 14.8689C65.3507 14.483 65.019 14.4847 62.5078 14.899ZM104.959 14.8842C100.13 15.7198 95.5693 19.2122 93.3292 23.7901C91.694 27.1318 91.3538 30.1561 91.5413 39.6763C91.6717 46.28 91.771 47.3623 92.419 49.2369C93.7607 53.1177 96.3824 56.3704 99.7147 58.2884C105.039 61.3524 111.962 61.0486 116.954 57.5318C117.975 56.8126 118.893 56.2245 118.994 56.2245C119.095 56.2245 119.125 58.0524 119.061 60.2864C118.953 64.0845 118.875 64.4906 117.872 66.5393C116.623 69.091 114.837 70.8422 112.239 72.0624C110.65 72.8081 109.971 72.9269 107.427 72.9024C103.561 72.8657 101.246 72.0019 98.949 69.7397C97.5122 68.3245 97.1347 68.1187 96.1386 68.205C94.6798 68.3315 93.583 69.6586 93.8969 70.9176C94.1868 72.0796 95.9336 74.0178 97.7195 75.1589C99.5854 76.3517 103.636 77.6514 106.34 77.9251C114.467 78.7476 122.342 72.6975 123.702 64.586C123.969 62.996 124.05 57.0804 123.971 44.9532C123.861 27.9724 123.843 27.5538 123.128 25.6372C120.772 19.3184 115.488 15.2701 108.908 14.7425C107.732 14.6482 105.955 14.7121 104.959 14.8842ZM34.0275 16.3285L33.2196 17.1407V38.2929C33.2196 59.1906 33.2278 59.4554 33.9018 60.3169C34.7564 61.4097 36.5176 61.5126 37.4976 60.527C38.1423 59.8787 38.1558 59.4239 38.1558 38.41V16.9553L37.3943 16.2355C36.3837 15.281 35.0318 15.3184 34.0275 16.3285ZM112.739 20.8392C115.113 21.9797 116.872 23.8122 118.078 26.398L118.945 28.2581V37.532V46.8059L117.872 48.9972C116.621 51.5533 114.833 53.3054 112.239 54.5157C110.732 55.2184 109.901 55.3786 107.756 55.3786C105.612 55.3786 104.781 55.2184 103.274 54.5157C100.682 53.3061 98.8917 51.5533 97.6405 48.9989L96.5677 46.8086L96.4552 38.6917C96.3084 28.085 96.7352 26.0863 99.8075 22.9964C103.248 19.5362 108.282 18.6965 112.739 20.8392Z" fill="#121212"></path>
</svg>
