<?xml version="1.0" encoding="UTF-8"?>
<svg xmlns="http://www.w3.org/2000/svg" width="172" height="46" viewBox="0 0 172 46" fill="none">
  <path fill-rule="evenodd" clip-rule="evenodd" d="M19.2117 0.16483C11.5754 1.37331 4.62847 6.90281 1.72321 14.0847C-3.65743 27.386 4.07565 42.5076 17.7872 45.4977C26.2607 47.3454 35.1449 44.0019 40.3366 37.0116C43.4702 32.7925 44.9982 28.1649 44.9917 22.9155C44.9784 12.5112 37.9974 3.28753 28.19 0.716465C25.6856 0.0598558 21.4997 -0.197389 19.2117 0.16483ZM132.364 20.5848V36.3972L134.447 36.331L136.53 36.2645L136.589 28.2685L136.648 20.2726L137.479 19.5247C138.915 18.2336 140.508 17.6261 142.175 17.7348C144.452 17.8834 145.537 18.9553 145.881 21.3957C145.996 22.2139 146.093 25.9198 146.095 29.6315L146.1 36.3799H148.126H150.153V28.4445C150.153 21.1475 150.117 20.3885 149.7 19.0076C148.762 15.8944 146.411 14.1758 143.06 14.1532C140.893 14.1387 139.39 14.6317 137.77 15.8879L136.642 16.7621V10.7673V4.77217H134.503H132.364V20.5848ZM120.134 7.87595C119.937 8.07783 119.696 9.15664 119.529 10.5868C119.375 11.8934 119.183 13.3778 119.102 13.8853L118.954 14.8082L117.271 15.0389L115.588 15.2696L115.518 16.2737C115.416 17.7297 115.868 18.1535 117.526 18.1535H118.83L118.898 25.594C118.964 32.7911 118.982 33.0661 119.47 34.0017C120.032 35.0777 121.051 35.951 122.208 36.348C124.01 36.9663 126.912 36.4505 128.692 35.1954L129.649 34.5205L128.949 33.3545C128.564 32.7129 128.102 32.1306 127.924 32.0605C127.745 31.9901 127.213 32.1546 126.742 32.4259C125.569 33.1012 124.387 33.0731 123.684 32.3528L123.132 31.7866V24.97V18.1535H126.059H128.986V16.5385V14.9235H126.059H123.132V11.2321V7.54073H121.797C120.929 7.54073 120.347 7.65816 120.134 7.87595ZM17.0662 13.5575C18.3162 13.8526 20.5646 14.9512 21.4635 15.7061C22.0057 16.1613 22.0836 16.3314 21.858 16.5672C21.6306 16.8046 21.3723 16.7856 20.5069 16.4677C19.0613 15.9368 17.5897 15.9666 16.6631 16.5455C15.6705 17.1656 14.9714 18.7594 15.1734 19.9411C15.4929 21.8096 17.4303 24.3007 20.3403 26.5843C21.3068 27.3428 22.0264 28.0802 22.0264 28.3123C22.0264 29.015 21.3345 29.0483 20.4069 28.3896C19 27.3906 16.2069 24.8827 15.8099 24.2624C15.4237 23.6581 14.8207 23.4888 14.8207 23.9843C14.8207 24.3127 17.5125 27.0625 19.8177 29.0893C21.2705 30.3663 21.5063 30.8746 20.7792 31.1604C20.3344 31.3353 17.9944 29.4649 15.5469 26.9783C13.5289 24.928 13.0193 24.5489 13.0193 25.0973C13.0193 25.4697 15.7948 28.3587 17.8154 30.0892C19.5936 31.6126 19.9156 32.2716 18.9507 32.413C18.3621 32.4995 14.9657 29.6472 13.0675 27.472C11.8551 26.0834 11.2179 25.6649 11.2179 26.2583C11.2179 26.62 14.9959 30.5424 15.8903 31.109C17.1594 31.913 16.6294 33.1268 15.313 32.4308C14.2864 31.8879 10.2464 27.5708 9.42837 26.1424C7.0327 21.9598 7.06174 17.8829 9.50561 15.3065C11.1778 13.5437 14.1222 12.8626 17.0662 13.5575ZM33.6493 13.9469C35.1408 14.7404 35.9159 15.5409 36.65 17.0461C37.2154 18.2054 37.3386 18.7386 37.3386 20.0274C37.3386 23.4805 35.641 26.8371 32.202 30.1829C30.0696 32.2575 29.2407 32.8297 28.6843 32.6109C28.0074 32.3449 28.3431 31.7875 30.0529 30.3396C31.6895 28.9537 33.7357 26.6576 33.7357 26.2073C33.7357 25.6822 33.1185 26.1175 31.848 27.5394C30.045 29.5572 26.6338 32.4577 26.0641 32.4577C25.126 32.4577 25.2857 31.7262 26.4357 30.7549C28.2805 29.1964 31.9343 25.4701 31.9343 25.1471C31.9343 24.5565 31.5123 24.8698 29.311 27.0937C26.5415 29.8918 24.693 31.3642 24.1954 31.1685C23.5421 30.9117 23.8029 30.2268 24.8975 29.3251C26.6059 27.9178 30.1329 24.3263 30.1329 23.9943C30.1329 23.4526 29.8244 23.6655 27.9687 25.4879C25.7115 27.7046 23.8265 29.0706 23.3063 28.866C22.5837 28.582 22.9346 27.9482 24.4858 26.7361C27.9522 24.0277 30.0921 20.9549 29.8419 19.0448C29.5132 16.5332 27.2335 15.4443 24.4467 16.4677C23.5826 16.7849 23.3226 16.8043 23.0956 16.5678C22.7281 16.1851 23.4 15.6118 25.4627 14.5473C27.5005 13.4959 28.3044 13.3182 30.6958 13.3916C32.2408 13.4391 32.9426 13.5711 33.6493 13.9469ZM60.7281 14.2233C57.2356 14.8682 54.9099 17.3853 54.9048 20.5257C54.9021 22.1144 55.3407 23.2971 56.3214 24.3456C57.243 25.3315 58.5126 25.9837 61.3158 26.9119C64.0562 27.8193 64.6304 28.1137 65.2623 28.9348C65.8243 29.6654 65.7836 30.9196 65.1664 31.8849C63.9903 33.7237 60.2604 33.8374 57.7794 32.1103C56.3995 31.1496 55.6337 31.3596 54.7079 32.9529L54.2191 33.7943L54.9286 34.4059C58.0555 37.1018 63.9939 37.3542 67.104 34.9236C69.8339 32.7904 70.4959 28.6491 68.4907 26.2488C67.5087 25.0733 66.1529 24.3482 62.8139 23.2122C59.7999 22.1866 58.9557 21.5314 58.9557 20.218C58.9557 17.6146 62.4791 16.6841 65.9592 18.3686C66.7771 18.7642 67.6046 19.0256 67.7983 18.9495C68.1635 18.806 69.3139 17.1719 69.3139 16.7967C69.3139 16.4626 67.0594 15.0168 65.9254 14.6236C64.6201 14.171 62.0735 13.9751 60.7281 14.2233ZM79.8973 14.2642C78.2256 14.5473 76.0904 15.6044 74.8783 16.749C73.7108 17.8515 72.625 19.8248 72.1269 21.7483C71.7042 23.3813 71.6526 27.0554 72.0298 28.6621C73.3991 34.4959 78.6705 37.6887 84.5768 36.262C87.8905 35.4616 90.1405 33.3995 91.3711 30.0353C92.0103 28.2876 92.2423 24.5893 91.8444 22.4921C90.9957 18.0209 87.9583 14.9349 83.7253 14.2434C82.0557 13.9705 81.6188 13.9728 79.8973 14.2642ZM102.303 14.2344C98.1023 14.8919 95.1304 17.8944 94.1986 22.4217C92.796 29.2368 96.1061 35.2764 101.837 36.3584C109.345 37.7757 114.767 32.6022 114.267 24.4981C113.917 18.8272 110.874 15.0451 106.018 14.2453C104.397 13.9783 103.948 13.9769 102.303 14.2344ZM160.796 14.3378C155.955 15.4574 153.086 19.4538 153.088 25.0749C153.09 33.1448 158.562 37.8751 166.028 36.262C167.985 35.8391 170.075 34.8064 171.04 33.7848L171.774 33.0085L171.048 32.0408C170.169 30.8691 169.716 30.825 168.106 31.7561C165.612 33.1983 162.988 33.4496 160.794 32.4564C159.01 31.6482 157.623 29.4571 157.416 27.1177L157.298 25.7862L164.327 25.7188C172.628 25.6395 172.117 25.8227 171.913 22.9985C171.536 17.7952 168.528 14.5198 163.776 14.1394C162.791 14.0605 161.673 14.135 160.796 14.3378ZM165.362 17.8951C165.862 18.1279 166.544 18.6498 166.876 19.0545C167.421 19.718 168.167 21.6881 168.167 22.4637C168.167 22.7069 167.083 22.7678 162.748 22.7678H157.328L157.482 22.2487C158.184 19.8763 159.339 18.3619 160.877 17.8003C162.133 17.3419 164.27 17.3871 165.362 17.8951ZM85.1138 18.5081C86.9909 19.856 87.9569 22.7639 87.7115 26.3277C87.4496 30.1292 85.9767 32.3685 83.3738 32.9222C80.3369 33.5682 77.927 32.3558 76.718 29.5738C75.9619 27.834 75.8464 24.0612 76.4834 21.9234C77.0364 20.0682 78.0317 18.7322 79.3184 18.1175C80.0414 17.7722 80.6474 17.693 82.1865 17.7436C83.9433 17.801 84.2349 17.8774 85.1138 18.5081ZM106.7 18.1782C107.855 18.6874 108.735 19.6585 109.302 21.049C109.852 22.3963 110.107 25.2655 109.846 27.1546C109.281 31.2345 107.593 32.9937 104.217 33.0209C100.199 33.0532 98.3 30.5403 98.3162 25.2113C98.3273 21.5609 99.4626 19.129 101.625 18.1224C102.91 17.5244 105.275 17.5504 106.7 18.1782Z" fill="#121212"></path>
</svg>
