<?xml version="1.0" encoding="UTF-8"?>
<svg xmlns="http://www.w3.org/2000/svg" width="172" height="27" viewBox="0 0 172 27" fill="none">
  <path d="M5.05804 0.564718C9.38784 -0.433439 13.8898 0.236377 18.2924 0.0459389C18.2924 2.31806 18.2924 4.59018 18.2858 6.8623C14.757 7.01991 11.1555 6.45516 7.68637 7.29572C7.87837 8.1691 7.84527 9.35113 9.03033 9.42993C12.0029 10.3165 15.3132 10.5857 17.8422 12.5623C20.4043 14.5718 20.7552 18.2623 19.9938 21.2108C19.2722 24.1725 16.4386 26.2738 13.4329 26.4971C9.26867 26.8386 5.08453 26.6219 0.913626 26.681C0.907005 24.3826 0.907005 22.0842 0.907005 19.7924C4.52841 19.6545 8.19615 20.0748 11.7844 19.556C12.9232 19.3918 12.9828 17.5991 11.844 17.3824C8.67945 16.2529 5.01832 16.3382 2.198 14.3222C0.628945 13.2256 0.145651 11.2949 0 9.50873V6.83604C0.13241 3.92693 2.14503 1.22797 5.05804 0.564718Z" fill="#939597"></path>
  <path d="M27.4292 0.0524654C29.8854 0.0458986 32.3416 0.0458986 34.8044 0.0524654C34.8044 5.97574 34.7845 11.8925 34.8044 17.8157C34.2152 21.2239 41.0872 21.2436 40.5708 17.8486C40.6238 11.9122 40.5708 5.98231 40.5907 0.0524654C43.0336 0.0458986 45.4766 0.0458984 47.9195 0.0458984C47.9063 6.17931 47.9262 12.3062 47.9129 18.433C47.999 21.375 46.4697 24.3826 43.7553 25.7156C40.4649 27.3114 36.5191 27.3048 33.0433 26.3263C29.8125 25.407 27.4755 22.3074 27.4623 18.9846C27.3894 12.6739 27.4557 6.36318 27.4292 0.0524654Z" fill="#939597"></path>
  <path fill-rule="evenodd" clip-rule="evenodd" d="M61.1291 0.0430762C59.6214 0.0493783 58.1134 0.0556818 56.6055 0.0460317V26.6023H63.9277C63.9277 23.9624 63.9277 21.3225 63.9343 18.6827H66.9467C67.3461 19.5626 67.7433 20.444 68.1405 21.3254C68.935 23.0883 69.7295 24.8511 70.5416 26.6023C71.7763 26.599 73.011 26.599 74.2457 26.599C75.4804 26.599 76.7152 26.599 77.9499 26.5957C77.3131 25.1877 76.672 23.7811 76.0306 22.3739L76.0302 22.3731L76.0298 22.3722C75.3044 20.7808 74.5786 19.1885 73.8584 17.5926C75.5996 16.4762 76.8443 14.6507 76.8774 12.5427C76.8862 11.9672 76.9127 11.3818 76.9394 10.7921C77.0524 8.29335 77.1689 5.71595 75.9637 3.47392C74.5933 1.00479 71.5677 0.190502 68.9129 0.0919993C66.3204 0.021376 63.7252 0.0322241 61.1291 0.0430762ZM65.7975 6.76756C65.1614 6.80403 64.5283 6.84032 63.9279 6.78381C63.9279 8.54372 63.9279 10.3036 63.9345 12.0635C64.139 12.0665 64.3437 12.0702 64.5487 12.0738C66.176 12.1031 67.8177 12.1326 69.4229 11.7943L69.431 11.7316C69.6206 10.2673 69.8149 8.76589 69.4494 7.30915C68.382 6.6194 67.0834 6.69385 65.7975 6.76756Z" fill="#939597"></path>
  <path d="M86.2315 0.0465635C92.3554 0.0465635 98.4793 0.0399968 104.61 0.0531305C103.842 2.29242 103.087 4.5317 102.339 6.77099C99.4128 6.78413 96.4866 6.77099 93.5537 6.77756C93.5537 8.4718 93.5537 10.166 93.5537 11.8668C95.9305 11.8668 98.3138 11.8668 100.691 11.8668C99.9425 14.1193 99.1877 16.3586 98.4065 18.5978C96.7911 18.5978 95.1691 18.5978 93.5537 18.5978C93.5537 21.264 93.5537 23.9301 93.5537 26.5962C91.1107 26.6028 88.6744 26.6028 86.2315 26.5962C86.2248 17.7507 86.2315 8.89864 86.2315 0.0465635Z" fill="#939597"></path>
  <path fill-rule="evenodd" clip-rule="evenodd" d="M122.87 0.0919347C121.32 0.078801 119.765 0.0788015 118.215 0.0853683C116.082 6.34095 113.965 12.6031 111.848 18.8649C110.976 21.4441 110.104 24.0236 109.231 26.6022H112.747C113.463 24.534 114.162 22.4579 114.861 20.383L114.862 20.3815L114.862 20.38C115.062 19.7877 115.261 19.1956 115.461 18.6038C118.825 18.5972 122.188 18.5972 125.558 18.6038C126.471 21.2699 127.398 23.9361 128.345 26.6022H131.847C128.861 17.7633 125.875 8.92432 122.87 0.0919347ZM120.553 2.67251C119.149 6.97378 117.765 11.2882 116.395 15.596C119.149 15.6026 121.903 15.6026 124.664 15.596C123.949 13.3112 123.219 11.032 122.488 8.75235C121.84 6.72737 121.191 4.70212 120.553 2.67251Z" fill="#939597"></path>
  <path d="M140.062 0.0791016C141.221 0.0791016 142.38 0.0791017 143.538 0.0856685C143.545 8.92462 143.545 17.757 143.538 26.5959C142.38 26.5959 141.221 26.6025 140.062 26.6025C140.062 17.7636 140.062 8.92462 140.062 0.0791016Z" fill="#939597"></path>
  <path fill-rule="evenodd" clip-rule="evenodd" d="M158.065 0.078627C156.672 0.0878416 155.28 0.0970582 153.887 0.0853306C153.882 5.97796 153.884 11.8706 153.885 17.7632C153.886 20.7095 153.887 23.6559 153.887 26.6022H157.362C157.365 25.1837 157.365 23.7652 157.364 22.3468C157.363 20.4556 157.362 18.5643 157.369 16.6731C159.772 16.6666 162.182 16.6666 164.585 16.6731C165.11 17.8728 165.634 19.0716 166.157 20.2699L166.158 20.2731C167.081 22.3861 168.004 24.4974 168.928 26.6087C169.955 26.6022 170.974 26.5956 172 26.5825C171.171 24.2359 170.135 21.9769 169.099 19.7179C168.581 18.5884 168.063 17.459 167.571 16.3185C169.319 15.6553 171.047 14.4601 171.438 12.5163C172.007 9.7517 171.947 6.85573 171.398 4.09766C170.802 1.51033 168.021 0.275768 165.578 0.150999C163.076 0.0454659 160.571 0.0620432 158.065 0.078627ZM160.563 3.16786C159.492 3.19571 158.422 3.22355 157.363 3.17133C157.363 4.04023 157.362 4.90872 157.362 5.77701C157.361 8.38011 157.359 10.9814 157.369 13.5863C158.411 13.5447 159.46 13.569 160.509 13.5934C162.439 13.6381 164.371 13.683 166.267 13.3171C168.351 12.8711 168.326 10.5207 168.308 8.8229C168.308 8.74568 168.307 8.66981 168.306 8.59553C168.293 8.30301 168.294 7.98582 168.296 7.65715C168.303 6.04533 168.311 4.15767 166.578 3.55221C164.616 3.06239 162.589 3.11515 160.563 3.16786Z" fill="#939597"></path>
</svg>
