<?xml version="1.0" encoding="UTF-8"?>
<svg xmlns="http://www.w3.org/2000/svg" width="138" height="68" viewBox="0 0 138 68" fill="none">
  <g clip-path="url(#clip0_1582_3970)">
    <path d="M0 2.29706C0.27876 2.06737 0.634313 1.95253 1.06666 1.95253C4.59839 1.95253 8.13011 1.95253 11.663 1.95253C11.8669 1.95253 12.0903 1.90315 12.2205 2.13398C12.2551 2.196 12.3196 2.25801 12.3207 2.32002C12.3299 2.72886 12.5108 3.11817 12.4451 3.5362C12.4186 3.70387 12.406 3.88876 12.4474 4.05069C12.5937 4.62375 12.4751 5.21863 12.5788 5.7802C12.6732 6.28895 12.5891 6.7954 12.6847 7.28463C12.7988 7.86458 12.6962 8.45601 12.8103 9.01414C12.914 9.52404 12.8564 10.0213 12.9036 10.5209C12.9324 10.8309 12.9934 11.1387 13.013 11.4499C13.0326 11.7554 12.9428 12.0862 13.0349 12.3629C13.172 12.7752 13.0948 13.1794 13.134 13.5837C13.1651 13.9133 13.2238 14.2406 13.2434 14.5702C13.263 14.894 13.1766 15.2409 13.263 15.5417C13.4139 16.0654 13.3436 16.5856 13.3563 17.1059C13.3632 17.4045 13.5268 17.6675 13.4865 17.9775C13.4473 18.2784 13.4058 18.6115 13.4934 18.8905C13.6466 19.3763 13.5129 19.8667 13.6039 20.3387C13.7157 20.9175 13.627 21.5078 13.7307 22.0693C13.824 22.5769 13.7456 23.0834 13.8366 23.5738C13.9438 24.1526 13.8551 24.744 13.9622 25.3044C14.0624 25.8327 14.0359 26.3483 14.0474 26.8686C14.0543 27.1672 14.2179 27.4301 14.1776 27.7402C14.1384 28.0411 14.097 28.3741 14.1857 28.6532C14.3331 29.1206 14.249 29.5834 14.2859 30.0462C14.2962 30.1737 14.3112 30.3023 14.3389 30.4264C14.3654 30.5469 14.4114 30.6629 14.4736 30.7824C14.5243 30.1105 14.7996 29.4904 14.8803 28.8209C14.9194 28.4947 14.9943 28.1376 15.1314 27.8401C15.2431 27.5967 15.1509 27.3429 15.3042 27.1028C15.4297 26.9053 15.3733 26.6033 15.4424 26.3598C15.5933 25.8224 15.6705 25.2688 15.8121 24.7325C15.9262 24.2996 15.9976 23.8586 16.1208 23.4268C16.2349 23.0294 16.2441 22.5988 16.3846 22.214C16.5217 21.8408 16.4745 21.4239 16.6968 21.0805C16.645 20.5936 16.8776 20.1549 16.9537 19.6887C17.0424 19.1443 17.1864 18.6023 17.3131 18.0614C17.3822 17.7639 17.4559 17.4688 17.5239 17.1702C17.6471 16.627 17.76 16.0826 17.8821 15.5406C17.9892 15.0686 18.1275 14.6023 18.2012 14.1234C18.2588 13.7502 18.4339 13.4022 18.4477 13.0198C18.6735 12.828 18.4834 12.5317 18.6447 12.2929C18.7737 12.1011 18.7172 11.7945 18.7829 11.5498C18.928 11.0112 19.0179 10.46 19.1527 9.92139C19.2621 9.48844 19.3243 9.044 19.4637 8.61679C19.6134 8.15742 19.6376 7.66705 19.8104 7.20998C19.9359 6.87924 20.1433 6.6886 20.4773 6.66333C20.5729 6.65644 20.6697 6.66333 20.7653 6.66333C23.5875 6.66333 26.4085 6.66333 29.2306 6.66333C29.4322 6.66333 29.6292 6.72535 29.8204 6.75291C30.09 6.79196 30.1694 6.9401 30.2351 7.12385C30.348 7.44196 30.447 7.76696 30.5231 8.09541C30.5968 8.41352 30.6244 8.74082 30.6901 9.06123C30.7557 9.37934 30.9066 9.68137 30.8721 10.019C31.1232 10.2016 30.8986 10.5094 31.0771 10.7437C31.2038 10.9102 31.2015 11.1938 31.2108 11.427C31.2211 11.6865 31.4158 11.9127 31.3329 12.1826C31.6427 12.8958 31.6059 13.6951 31.8927 14.4197C31.9733 14.623 31.9722 14.8814 32.0125 15.1145C32.0977 15.6129 32.2106 16.0987 32.3408 16.5868C32.4041 16.8257 32.4329 17.0841 32.4824 17.3344C32.532 17.5848 32.4824 17.8983 32.6195 18.0751C32.7946 18.3014 32.5815 18.5793 32.8038 18.7527C32.8061 19.2121 32.987 19.6358 33.0711 20.0803C33.1529 20.519 33.2208 20.9623 33.366 21.3906C33.4454 21.626 33.4431 21.8867 33.5146 22.1325C33.5848 22.3748 33.5215 22.6906 33.6562 22.8732C33.8313 23.1109 33.6113 23.4164 33.8624 23.5979C33.806 24.086 34.0467 24.5224 34.1204 24.9898C34.1861 25.4032 34.2621 25.8304 34.4119 26.2404C34.4937 26.462 34.5132 26.7342 34.5559 26.9857C34.6365 27.4646 34.7655 27.932 34.8749 28.404C34.9809 28.8622 35.042 29.3296 35.1364 29.7901C35.2125 30.1576 35.3104 30.5205 35.4302 31.0189C35.459 30.8099 35.482 30.7307 35.4785 30.6526C35.4428 29.9176 35.6847 29.1976 35.596 28.4614C35.7907 27.9917 35.6294 27.4876 35.7262 27.019C35.8356 26.4953 35.7389 25.9613 35.8471 25.4606C35.9497 24.9898 35.8621 24.5212 35.9531 24.071C36.0626 23.5301 35.975 22.9777 36.0787 22.4552C36.1685 22.0039 36.0948 21.5548 36.1824 21.123C36.2952 20.5638 36.2031 19.9918 36.3102 19.4509C36.392 19.0375 36.3459 18.6333 36.4058 18.2313C36.4945 17.6364 36.5394 17.0416 36.5164 16.4409C36.7272 16.0918 36.6086 15.7083 36.6293 15.3396C36.6661 14.685 36.8147 14.0385 36.7468 13.3781C36.9472 12.9486 36.7859 12.4824 36.8735 12.0506C36.9864 11.4913 36.8942 10.9194 37.0014 10.3785C37.0831 9.96503 37.0371 9.56079 37.097 9.15884C37.1857 8.56396 37.2306 7.96908 37.2075 7.36846C37.4137 7.03887 37.3331 6.67022 37.3101 6.3257C37.287 5.99725 37.4471 5.71245 37.4402 5.39663C37.4333 5.07163 37.3654 4.72481 37.4552 4.42622C37.59 3.97719 37.5312 3.53505 37.5508 3.09061C37.5646 2.77709 37.6936 2.48769 37.6844 2.16154C37.6752 1.87903 38.0173 1.65969 38.3917 1.61605C38.5057 1.60226 38.6313 1.58389 38.735 1.61834C39.3639 1.82735 40.0101 1.70103 40.6471 1.724C41.0952 1.74007 41.5249 1.88937 41.9822 1.85147C42.4395 1.81472 42.9221 1.76075 43.3587 1.86295C43.9646 2.00651 44.5613 1.91004 45.158 1.95827C45.5842 1.99273 46.0081 2.049 46.4354 2.06852C46.857 2.08804 47.297 1.99847 47.6979 2.09034C48.2635 2.22126 48.8222 2.14317 49.382 2.1914C49.9142 2.23734 50.0685 2.47851 50.0996 2.90457C50.1134 3.09521 50.2044 3.32144 50.0121 3.49715C49.9821 3.52471 49.989 3.6051 49.9948 3.65908C50.0789 4.45378 49.8335 5.23011 49.8704 6.02367C49.8831 6.2924 49.7863 6.56457 49.7679 6.83674C49.7483 7.1227 49.8393 7.43851 49.7448 7.69117C49.6112 8.04717 49.6366 8.39629 49.6607 8.74082C49.6838 9.06926 49.5191 9.35292 49.5294 9.66989C49.5409 9.99489 49.6078 10.3452 49.5133 10.6403C49.382 11.0526 49.4914 11.4649 49.4062 11.8588C49.2887 12.3985 49.3762 12.9498 49.2806 13.4746C49.2023 13.9052 49.2564 14.3359 49.1735 14.7482C49.0652 15.2891 49.1516 15.8415 49.0479 16.364C48.9592 16.8153 48.9926 17.2552 48.9535 17.6985C48.9304 17.9523 48.8636 18.2015 48.8452 18.4553C48.8256 18.7217 48.912 19.0168 48.8256 19.2534C48.669 19.6818 48.7669 20.1078 48.7242 20.5316C48.6954 20.8233 48.6344 21.1116 48.6148 21.4033C48.5952 21.6892 48.6862 22.005 48.5929 22.2577C48.4535 22.6321 48.5342 22.9984 48.4939 23.3647C48.4628 23.6553 48.404 23.9447 48.3844 24.2364C48.3649 24.5223 48.4489 24.8324 48.3649 25.092C48.2209 25.5387 48.3015 25.9831 48.2623 26.4264C48.2393 26.6802 48.1725 26.9294 48.1541 27.1832C48.1345 27.4497 48.2197 27.7437 48.1345 27.9814C47.9859 28.3914 48.0723 28.7968 48.0331 29.2021C48.0066 29.4743 47.9433 29.7442 47.9248 30.0164C47.9052 30.3023 47.9962 30.6181 47.9029 30.8708C47.7636 31.2452 47.843 31.6115 47.805 31.9779C47.7716 32.2879 47.7152 32.5957 47.6956 32.9069C47.676 33.2124 47.7613 33.5409 47.6749 33.8199C47.5424 34.2494 47.6507 34.6824 47.5631 35.0958C47.4537 35.6172 47.5355 36.1489 47.4399 36.6542C47.3477 37.1423 47.4203 37.6304 47.3304 38.1001C47.2383 38.5847 47.3086 39.0797 47.2095 39.5436C47.1093 40.0133 47.1911 40.4819 47.1024 40.9332C46.9964 41.4741 47.077 42.0254 46.9768 42.549C46.8939 42.9808 46.9584 43.4115 46.872 43.8238C46.7626 44.3452 46.8397 44.8757 46.7499 45.3833C46.6704 45.8312 46.6911 46.2745 46.6462 46.7166C46.6151 47.0256 46.5391 47.3287 46.5287 47.6457C46.5172 47.9914 46.2062 48.2417 45.8606 48.2371C45.3354 48.2303 44.8297 48.4071 44.2952 48.3635C43.7803 48.321 43.2458 48.2796 42.7436 48.3704C41.7587 48.5495 40.7681 48.3589 39.7959 48.4852C38.7914 48.6161 37.7812 48.4783 36.7917 48.6058C35.8806 48.7241 34.9775 48.6494 34.0721 48.7022C33.8371 48.716 33.6056 48.7907 33.3706 48.8091C33.1229 48.8286 32.8718 48.8148 32.6218 48.8125C32.153 48.8079 31.8259 48.5725 31.6773 48.1315C31.4457 47.4424 31.2154 46.7534 30.9861 46.0632C30.8295 45.5912 30.7177 45.1008 30.5138 44.6506C30.3088 44.197 30.204 43.7124 29.9897 43.2588C29.719 42.6857 29.6027 42.0426 29.3666 41.45C28.9991 40.5278 28.7399 39.57 28.3667 38.6479C28.0833 37.9473 27.9117 37.1905 27.6364 36.4808C27.2839 35.5724 27.0386 34.6284 26.6446 33.7326C26.3889 33.1504 26.2403 32.5222 26.0318 31.9193C25.7127 30.9971 25.3625 30.0864 25.108 29.1424C25.0988 29.1068 25.0273 29.0643 24.987 29.0678C24.9502 29.0701 24.8972 29.1229 24.8845 29.1631C24.5689 30.1978 24.2026 31.2153 23.8559 32.2397C23.5103 33.2641 23.1497 34.2862 22.8284 35.3175C22.3434 36.877 21.7859 38.4113 21.3033 39.972C20.9312 41.1732 20.4935 42.355 20.0868 43.5459C19.5719 45.056 19.0547 46.565 18.5479 48.0775C18.3717 48.6035 18.1056 48.8274 17.5423 48.8102C16.9813 48.793 16.4226 48.7229 15.8617 48.7045C15.3053 48.685 14.734 48.7803 14.1949 48.6827C13.324 48.5242 12.4474 48.6988 11.5927 48.569C10.5871 48.4163 9.5769 48.5874 8.58857 48.4507C7.697 48.3279 6.81234 48.4014 5.92768 48.352C5.75029 48.3416 5.5775 48.2636 5.39896 48.2452C5.20889 48.2257 5.01192 48.2647 4.82416 48.2348C4.60184 48.1981 4.4256 48.0281 4.39105 47.8272C4.35994 47.6469 4.26318 47.462 4.27586 47.3046C4.31963 46.735 4.12611 46.1918 4.14454 45.6291C4.16297 45.087 3.94987 44.5588 4.0305 44.0121C3.83468 43.702 3.94872 43.3552 3.91301 43.0268C3.88766 42.7925 3.82431 42.5617 3.80473 42.3274C3.78515 42.0989 3.86002 41.8474 3.78745 41.6429C3.65728 41.2743 3.75635 40.893 3.66996 40.5416C3.56628 40.1144 3.6354 39.6803 3.55246 39.268C3.47413 38.8775 3.52136 38.4813 3.43727 38.1104C3.34742 37.7199 3.41193 37.3214 3.32208 36.9528C3.22187 36.5428 3.25527 36.1386 3.21841 35.7332C3.19537 35.4805 3.08133 35.2428 3.10322 34.9764C3.12395 34.7214 3.15736 34.4539 2.99494 34.2196C2.98573 34.2069 2.99494 34.1817 2.99379 34.1633C2.95578 33.5282 2.92352 32.8932 2.8763 32.2592C2.85556 31.9871 2.79797 31.7172 2.76571 31.445C2.73576 31.1912 2.83483 30.919 2.65052 30.6882C2.64131 30.6767 2.64707 30.6503 2.65052 30.6319C2.73922 30.0462 2.50538 29.4835 2.53073 28.899C2.55376 28.3776 2.34066 27.8677 2.42014 27.3394C2.22086 27.0707 2.33836 26.7595 2.3038 26.4689C2.2727 26.2163 2.21395 25.9659 2.19437 25.7121C2.17479 25.4652 2.25657 25.1907 2.17479 24.9714C2.04462 24.6188 2.10107 24.272 2.07227 23.9229C2.05154 23.6691 1.92598 23.4371 1.95017 23.1661C1.97321 22.9146 2.02619 22.6424 1.8465 22.4093C1.82807 22.3851 1.83959 22.3346 1.84419 22.2967C1.92367 21.6548 1.68869 21.0335 1.72094 20.3915C1.73246 20.1607 1.638 19.9275 1.61842 19.6933C1.59884 19.4647 1.67602 19.2109 1.59999 19.01C1.46867 18.6597 1.51475 18.3117 1.49862 17.9614C1.4871 17.7054 1.34427 17.478 1.37307 17.2046C1.39841 16.9554 1.45139 16.6821 1.2717 16.4467C1.24405 16.4099 1.2717 16.3341 1.26709 16.2779C1.22908 15.6428 1.20143 15.0077 1.14729 14.3738C1.12541 14.1211 1.01022 13.8846 1.0321 13.617C1.05284 13.362 1.08394 13.0956 0.924976 12.8602C0.907698 12.8338 0.924976 12.7855 0.922672 12.7465C0.88466 12.1114 0.845495 11.4763 0.807482 10.8424C0.792508 10.5863 0.65428 10.3589 0.681925 10.0856C0.707267 9.83641 0.760254 9.56308 0.580558 9.32766C0.552912 9.29091 0.580558 9.21511 0.57595 9.15884C0.537938 8.52377 0.510292 7.88869 0.456153 7.25477C0.434267 7.00212 0.319076 6.76554 0.340963 6.49796C0.361697 6.24301 0.392798 5.97658 0.233836 5.74116C0.216557 5.71474 0.233836 5.66651 0.231532 5.62746C0.193519 4.95449 0.15781 4.28152 0.111734 3.60855C0.108279 3.55687 0.0391646 3.50863 0.0011519 3.45925V2.31084L0 2.29706Z" fill="#939597"></path>
    <path d="M136.385 0.000171853C136.615 0.278089 136.73 0.632566 136.73 1.06361C136.73 2.88155 136.752 4.70064 136.72 6.51743C136.706 7.2662 136.59 8.01267 136.61 8.76718C136.631 9.5125 136.615 10.2601 136.615 11.0066V13.3034C136.615 14.0499 136.697 14.8078 136.597 15.5405C136.435 16.7142 136.531 17.8845 136.506 19.0558C136.48 20.2421 136.468 21.4296 136.509 22.6148C136.549 23.7529 136.349 24.876 136.378 26.0129C136.406 27.1418 136.385 28.2707 136.385 29.4008C136.385 30.5308 136.462 31.7045 136.36 32.8437C136.281 33.7314 136.302 34.6134 136.269 35.4966C136.26 35.7527 135.945 36.0512 135.68 36.0616C135.564 36.0662 135.449 36.0616 135.334 36.0616C133.511 36.0616 131.681 36.1477 129.865 36.0375C127.939 35.9215 126.018 35.9904 124.095 35.9456C123.793 35.9387 123.488 35.6424 123.487 35.3427C123.482 34.0989 123.486 32.8552 123.486 31.6103C123.683 30.9844 123.584 30.3413 123.597 29.7062C123.611 29.0562 123.628 28.4039 123.594 27.7539C123.531 26.5401 123.756 25.34 123.723 24.1261C123.689 22.9214 123.632 21.7075 123.742 20.512C123.828 19.6036 123.804 18.7044 123.825 17.8006C123.847 16.9014 123.833 16.0022 123.829 15.1018C123.827 14.7298 123.999 14.3841 123.954 14.0005C123.913 13.6422 123.945 13.2747 123.945 12.9107V10.6713C123.945 10.2888 123.888 9.89492 123.957 9.52513C124.13 8.6041 124.04 7.67963 124.057 6.75745C124.074 5.82034 123.979 4.8729 124.082 3.94613C124.203 2.86662 124.149 1.794 124.17 0.717932C124.177 0.361923 124.394 0.18277 124.636 -0.000976562H136.386L136.385 0.000171853Z" fill="#939597"></path>
    <path d="M107.242 45.3229C107.044 45.37 106.903 45.4022 106.764 45.4366C106.241 45.5641 105.721 45.7031 105.195 45.8167C104.946 45.8707 104.707 45.9649 104.437 45.9465C104.206 45.9316 103.971 46.0292 103.736 46.0464C103.469 46.066 103.178 45.9856 102.935 46.0648C102.412 46.2336 101.888 46.1475 101.366 46.1578C101.076 46.1636 100.784 46.074 100.492 46.0556C100.185 46.0361 99.8637 46.1073 99.5734 46.0384C99.0735 45.9201 98.5586 45.9155 98.0633 45.7961C97.591 45.6824 97.1164 45.5802 96.6442 45.4676C96.2491 45.3746 95.8724 45.2046 95.4865 45.068C94.7481 44.8061 94.0651 44.4203 93.3635 44.0815C92.8797 43.8484 92.442 43.513 92.0031 43.1972C91.1922 42.6138 90.455 41.942 89.7777 41.2082C89.3411 40.735 88.9564 40.2182 88.5636 39.7083C88.1281 39.1445 87.7849 38.5278 87.4543 37.9179C87.1133 37.2886 86.823 36.6122 86.6215 35.9105C86.4452 35.295 86.254 34.684 86.0686 34.0719C86.0064 33.8652 86.0847 33.6435 85.9465 33.4299C85.867 33.3094 85.9464 33.0934 85.928 32.9235C85.9096 32.765 85.8197 32.61 85.8232 32.4538C85.8359 31.8141 85.6539 31.1928 85.693 30.5486C85.7334 29.8997 85.6907 29.2474 85.7069 28.5974C85.7138 28.3252 85.7771 28.0542 85.8174 27.7832C85.8555 27.5305 85.7172 27.2526 85.9326 27.0264C85.852 26.4981 86.1112 26.0227 86.1837 25.5173C86.2644 24.9627 86.4717 24.4172 86.686 23.8935C86.9797 23.1734 87.2919 22.4534 87.6732 21.777C87.9819 21.228 88.3205 20.6848 88.7513 20.2094C89.2006 19.7133 89.5784 19.1448 90.0703 18.6969C90.599 18.2146 91.13 17.7288 91.7348 17.3245C92.1552 17.0432 92.5641 16.7331 92.9892 16.4518C93.079 16.3932 93.1746 16.3438 93.2668 16.2887C93.6331 16.0647 94.0017 15.8247 94.3864 15.6559C95.1801 15.3056 95.9761 14.9519 96.81 14.6981C97.621 14.4524 98.4319 14.2146 99.2786 14.1262C99.517 13.9229 99.8338 14.0952 100.076 13.9689C100.353 13.8242 100.644 13.9689 100.908 13.8908C101.541 13.7024 102.184 13.8207 102.821 13.7817C103.114 13.7633 103.386 13.606 103.695 13.6645C103.983 13.7185 104.275 13.7599 104.568 13.7782C104.874 13.7978 105.198 13.7231 105.484 13.8012C105.723 13.8667 105.953 13.8759 106.189 13.9023C106.404 13.9264 106.614 13.9907 106.872 14.047C106.88 13.8701 106.893 13.7254 106.894 13.5807C106.896 12.8917 106.894 12.2026 106.895 11.5136C106.896 11.1024 107.152 10.828 107.563 10.7981C107.677 10.7901 107.793 10.797 107.909 10.797C110.135 10.797 112.363 10.7832 114.59 10.8015C116.013 10.813 117.437 10.8727 118.861 10.9118C119.137 10.9198 119.416 11.2161 119.448 11.5354C119.46 11.6491 119.451 11.7651 119.451 11.8799V31.6315C119.216 33.5069 119.466 35.396 119.309 37.2656C119.201 38.5565 119.347 39.8473 119.2 41.122C119.081 42.1441 119.221 43.1696 119.084 44.1745C118.943 45.2161 119.089 46.2566 118.973 47.2856C118.892 47.9999 118.947 48.7176 118.85 49.4182C118.788 49.8661 118.796 50.3082 118.754 50.7515C118.73 51.0041 118.617 51.2419 118.639 51.5083C118.659 51.7632 118.693 52.0308 118.529 52.264C118.614 52.6992 118.397 53.108 118.415 53.5364C118.422 53.688 118.322 53.8281 118.315 53.9487C118.285 54.4632 118.117 54.9512 118.065 55.46C118.045 55.6564 118.021 55.8619 117.947 56.0422C117.649 56.7646 117.524 57.5409 117.198 58.2598C117.032 58.625 116.88 59.012 116.714 59.3795C116.458 59.9457 116.125 60.482 115.788 61.0057C115.121 62.0416 114.345 62.9936 113.427 63.8193C113.029 64.1776 112.607 64.5107 112.18 64.8357C111.249 65.5442 110.215 66.0874 109.157 66.5709C108.482 66.8787 107.789 67.1727 107.041 67.3025C106.744 67.3541 106.462 67.4805 106.162 67.5494C105.888 67.6125 105.599 67.6298 105.321 67.7285C105.066 67.8192 104.747 67.8353 104.456 67.8594C103.764 67.9192 103.075 68.0271 102.374 67.9915C101.685 67.9571 100.991 68.003 100.301 67.9766C99.9513 67.9628 99.6011 68.065 99.2428 67.8973C98.9503 67.7618 98.5817 67.9571 98.2603 67.7653C98.1474 67.6975 97.9573 67.7687 97.8064 67.7503C97.6855 67.7354 97.5714 67.6608 97.4505 67.6435C96.9333 67.5666 96.4472 67.3806 95.9496 67.2336C95.6639 67.1486 95.5095 66.8936 95.3068 66.7041C95.2734 66.6731 95.2665 66.6042 95.263 66.5525C95.2561 66.4572 95.2607 66.3608 95.2607 66.2654C95.2607 62.935 95.2665 59.6046 95.2515 56.2754C95.2504 55.9538 95.3333 55.7046 95.589 55.5576C95.7814 55.4462 96.0694 55.3199 96.2364 55.3876C96.4483 55.4738 96.6418 55.468 96.8365 55.4611C97.4977 55.4359 98.1416 55.6667 98.8051 55.5829C99.2336 55.8034 99.7071 55.7345 100.137 55.6736C100.527 55.6185 100.912 55.5852 101.301 55.5863C101.581 55.5863 101.842 55.4795 102.113 55.4416C102.353 55.4072 102.618 55.3991 102.855 55.305C103.106 55.205 103.392 55.1867 103.628 55.0856C104.083 54.8904 104.563 54.7399 104.972 54.4391C105.695 53.9085 106.37 53.332 106.714 52.4822C106.951 51.8965 107.175 51.297 107.124 50.6424C107.363 49.7868 107.206 48.9129 107.234 48.0481C107.261 47.1696 107.239 46.2899 107.239 45.3252L107.242 45.3229ZM106.995 25.6092C106.906 25.6092 106.833 25.6092 106.759 25.6092C106.463 25.6115 106.176 25.6219 105.882 25.7114C105.589 25.801 105.244 25.631 104.955 25.8389C104.471 25.8148 104.024 26.0031 103.575 26.1249C103.082 26.2592 102.625 26.5096 102.166 26.7496C101.459 27.1217 100.867 27.635 100.474 28.3034C99.9927 29.1234 99.6633 30.0226 99.6402 30.9976C99.631 31.4179 99.6541 31.8405 99.6345 32.2597C99.6115 32.7639 99.7243 33.2359 99.8614 33.7159C100.092 34.5221 100.548 35.1732 101.185 35.6889C101.484 35.9323 101.86 36.0851 102.21 36.2631C102.383 36.3504 102.574 36.4009 102.757 36.4698C103.166 36.6237 103.617 36.5812 104.026 36.742C104.126 36.781 104.254 36.7477 104.369 36.7477C105.021 36.7477 105.674 36.7362 106.326 36.7535C106.577 36.7603 106.796 36.7052 106.994 36.5869V25.6081L106.995 25.6092Z" fill="#939597"></path>
    <path d="M71.7929 46.0018C71.551 46.0741 71.4001 46.1224 71.2469 46.1649C70.8345 46.2808 70.4164 46.3796 70.0098 46.514C69.6193 46.6437 69.2069 46.6805 68.821 46.8401C68.6321 46.9182 68.3902 46.9263 68.1817 46.9504C67.5597 47.0216 66.9584 47.2501 66.3214 47.1984C65.8894 47.3833 65.4206 47.234 64.9898 47.3259C64.1028 47.5131 63.2147 47.3914 62.3278 47.4212C62.0571 47.4304 61.7852 47.3374 61.5111 47.3179C61.2438 47.2983 60.9478 47.3833 60.7116 47.2949C60.4502 47.1961 60.1841 47.2662 59.9514 47.1846C59.7129 47.1008 59.478 47.1215 59.2464 47.0778C58.7523 46.9848 58.2454 46.9056 57.7835 46.7218C57.4829 46.6012 57.1534 46.6162 56.8643 46.4336C56.5844 46.2567 56.2388 46.189 55.9335 46.0477C55.6433 45.9133 55.3668 45.7468 55.0858 45.5918C54.4464 45.2404 53.8141 44.8798 53.2969 44.3527C53.055 44.1069 52.805 43.8692 52.5654 43.6211C51.865 42.8942 51.3697 42.0489 51.0172 41.1026C50.8802 40.7351 50.6924 40.3895 50.6509 39.991C50.4344 39.8141 50.7097 39.4914 50.4528 39.326C50.4148 38.9597 50.3526 38.5933 50.3422 38.2247C50.3238 37.5747 50.318 36.9224 50.3422 36.2735C50.3687 35.5661 50.538 34.884 50.7442 34.2041C50.9366 33.5679 51.2511 32.9948 51.5356 32.4057C51.7579 31.9463 52.0851 31.5455 52.4295 31.1688C52.7658 30.8013 53.1056 30.4304 53.4915 30.118C53.9696 29.731 54.4395 29.336 54.9948 29.0362C55.4636 28.7824 55.9163 28.4873 56.3955 28.2427C57.3158 27.7741 58.2788 27.4124 59.2625 27.1046C59.5862 27.0035 59.918 26.9289 60.2382 26.8186C60.5596 26.7072 60.904 26.6935 61.2208 26.5476C61.4108 26.4603 61.6677 26.5855 61.8555 26.4144C62.4475 26.4098 63.0062 26.1686 63.6029 26.1801C63.8195 26.1847 64.0118 26.0331 64.2468 26.063C64.4438 26.0882 64.6592 26.1124 64.8331 25.9562C64.8435 25.947 64.8712 25.9527 64.8896 25.9562C65.4575 26.0377 66.0069 25.8413 66.569 25.8413C67.6253 25.8413 68.6816 25.8723 69.7356 25.831C70.4775 25.8011 71.1962 26.0079 71.9346 25.9596C72.1154 25.9481 72.2629 26.1089 72.4633 26.0768C72.6304 26.0492 72.8066 26.071 73.0301 26.071V25.5703C73.0301 24.9582 73.0266 24.345 73.0301 23.7328C73.0324 23.3631 72.9114 23.0185 72.7905 22.6832C72.5071 21.8954 71.9622 21.2764 71.3218 20.7711C70.7078 20.2865 69.9983 19.9615 69.177 19.9833C68.8314 19.9925 68.4847 19.9672 68.1402 19.9879C67.2464 20.0441 66.4377 20.3014 65.7731 20.9479C65.4886 21.2247 65.1948 21.4923 64.9714 21.8184C64.7456 22.148 64.468 22.4374 64.2641 22.7866C64.1328 23.0105 63.9001 23.1747 63.7077 23.3608C63.672 23.3952 63.6144 23.4216 63.5649 23.4274C63.2355 23.4699 62.9049 23.5009 62.5766 23.5457C62.3612 23.5755 62.1492 23.6341 61.9326 23.6548C61.7138 23.6766 61.4823 23.6123 61.2899 23.773C60.8718 23.6846 60.4824 23.9545 60.0723 23.881C59.8293 23.8374 59.653 24.005 59.4284 24.0073C59.2119 24.0108 59.0034 24.0154 58.7776 24.0946C58.4965 24.1934 58.1648 24.144 57.8503 24.2163C57.4195 24.3151 56.9346 24.2244 56.5279 24.3691C56.1132 24.5161 55.6698 24.3243 55.2873 24.5712C55.2332 24.6056 55.1364 24.5781 55.0604 24.5758C54.6308 24.5654 54.2195 24.7722 53.7841 24.6906C53.6044 24.9042 53.4155 24.7285 53.2485 24.6826C52.9017 24.5873 52.7739 24.2106 52.858 23.8362C52.9755 23.3125 53.1483 22.8038 53.3475 22.3146C53.6885 21.4785 54.0606 20.6562 54.5202 19.8684C54.9314 19.1633 55.4613 18.5443 55.8817 17.8495C55.9393 17.7542 56.0418 17.6853 56.1225 17.6038C56.4623 17.265 56.8125 16.9377 57.1384 16.5863C57.8353 15.8329 58.6682 15.2449 59.5286 14.7086C60.5849 14.0494 61.7126 13.5165 62.9072 13.1422C63.2827 13.0239 63.6789 12.9722 64.0568 12.8574C64.5774 12.6989 65.1315 12.7092 65.6429 12.5186C65.6602 12.5128 65.6809 12.5186 65.7005 12.5186C66.3179 12.4807 66.9354 12.4267 67.5528 12.4083C68.1852 12.3888 68.8291 12.3383 69.45 12.4255C69.9372 12.4933 70.4279 12.4474 70.899 12.5346C71.4808 12.6426 72.0809 12.607 72.6465 12.7597C73.356 12.9515 74.0829 13.0549 74.7913 13.2708C75.7336 13.5579 76.6309 13.9265 77.5098 14.3549C78.0316 14.6098 78.4855 14.9658 78.967 15.2817C79.4761 15.6158 79.8839 16.0672 80.302 16.5001C80.7731 16.9871 81.1268 17.5624 81.4896 18.132C81.9723 18.89 82.2844 19.7214 82.5298 20.5724C82.6484 20.9824 82.8178 21.3889 82.827 21.8311C82.8304 22.0068 82.9099 22.1802 82.9329 22.3582C82.9537 22.5201 82.8995 22.6958 83.0493 22.8302C83.0689 22.8474 83.0539 22.9037 83.0516 22.9416C82.9963 23.8293 83.2993 24.7101 83.1553 25.591C82.9986 26.5522 83.1587 27.5226 83.0286 28.4701C82.9249 29.2257 83.0424 29.9837 82.918 30.7187C82.7913 31.4732 82.9237 32.2323 82.7993 32.9673C82.6876 33.6276 82.797 34.2879 82.6899 34.9299C82.5678 35.6637 82.6864 36.4056 82.5655 37.1199C82.463 37.724 82.5609 38.3246 82.4618 38.9115C82.342 39.6246 82.4503 40.3481 82.334 41.0429C82.2361 41.6286 82.2683 42.2017 82.2499 42.7793C82.2383 43.133 82.0794 43.4592 82.1197 43.8232C82.1577 44.1632 82.2038 44.5341 82.1105 44.8511C81.9665 45.3391 82.0276 45.8192 82.0183 46.3015C82.0045 47.0342 81.8421 47.7543 81.8836 48.4938C81.8974 48.7339 81.788 48.9888 81.7741 49.2483C81.7557 49.5963 81.3399 49.9362 80.9793 49.9546C80.9217 49.9581 80.8641 49.9546 80.8065 49.9546C78.004 49.9546 75.2014 49.9443 72.3988 49.9684C72.074 49.9707 71.9093 49.8214 71.7296 49.6296C71.6846 49.5814 71.6512 49.501 71.6501 49.4355C71.6432 48.9383 71.5579 48.4203 71.6685 47.9483C71.8137 47.3248 71.695 46.7127 71.7918 46.0018H71.7929ZM68.8452 40.5388C69.3002 40.4756 69.8934 40.6536 70.459 40.4239C70.9509 40.5032 71.4186 40.2723 71.9081 40.3091C72.0844 40.3217 72.1984 40.2448 72.2226 40.0633C72.264 39.7544 72.3124 39.4455 72.3355 39.1354C72.385 38.5015 72.3193 37.8698 72.4299 37.229C72.5474 36.5538 72.4276 35.8486 72.5532 35.155C72.6303 34.7289 72.5704 34.2776 72.567 33.8378C72.5635 33.4634 72.5209 33.4404 72.1396 33.4151C71.5798 33.3784 71.0073 33.5323 70.459 33.3072C70.4152 33.2888 70.3254 33.3003 70.3024 33.3313C70.1998 33.4703 70.057 33.414 69.9326 33.4163C69.511 33.4232 69.0836 33.3795 68.6678 33.4301C68.2566 33.4795 67.8454 33.5644 67.4364 33.6345C66.6151 33.7746 65.6637 34.0709 64.9472 34.5727C64.4876 34.8943 64.1017 35.31 63.884 35.8314C63.7192 36.2265 63.5753 36.641 63.5833 37.0843C63.5891 37.4162 63.5902 37.7401 63.6847 38.0731C63.7941 38.4613 63.9393 38.8265 64.1927 39.1251C64.6765 39.697 65.2766 40.1001 66.0461 40.1942C66.2166 40.4021 66.4896 40.2987 66.7084 40.4044C66.9031 40.4986 67.1657 40.4411 67.4053 40.5227C67.6288 40.5985 67.8983 40.5388 68.1483 40.5388H68.8464H68.8452Z" fill="#939597"></path>
    <path d="M130.39 48.8351C129.747 48.7846 129.158 48.7915 128.595 48.6778C128.036 48.5641 127.473 48.4584 126.919 48.2954C126.158 48.0714 125.443 47.759 124.77 47.372C123.835 46.8346 123.034 46.126 122.753 45.0247C122.627 44.5263 122.389 44.0118 122.665 43.4812C122.616 42.8725 122.981 42.412 123.29 41.9664C123.571 41.5622 123.99 41.2648 124.422 40.988C125.202 40.4873 126.499 39.9716 127.527 39.727C127.954 39.6248 128.391 39.5846 128.81 39.4882C129.528 39.3228 130.242 39.4583 130.951 39.3848C131.207 39.3584 131.418 39.4721 131.652 39.5088C131.866 39.5421 132.114 39.3997 132.295 39.6202C133.034 39.6225 133.679 39.9647 134.362 40.1784C135.038 40.3897 135.636 40.7319 136.216 41.1189C136.732 41.4634 137.172 41.886 137.511 42.4086C137.803 42.8553 137.981 43.3353 137.996 43.8717C137.999 43.967 137.994 44.0634 137.996 44.1588C138.03 45.0901 137.679 45.8573 137.024 46.513C136.668 46.869 136.308 47.225 135.846 47.4214C135.406 47.6098 134.983 47.8348 134.544 48.0255C133.998 48.2621 133.416 48.3482 132.868 48.5606C132.553 48.6835 132.178 48.6583 131.83 48.6939C131.33 48.7455 130.829 48.7938 130.389 48.8374L130.39 48.8351Z" fill="#939597"></path>
  </g>
  <defs>
    <clipPath id="clip0_1582_3970">
      <rect width="138" height="68" fill="white"></rect>
    </clipPath>
  </defs>
</svg>
