<?xml version="1.0" standalone="no"?>
<!DOCTYPE svg PUBLIC "-//W3C//DTD SVG 20010904//EN"
 "http://www.w3.org/TR/2001/REC-SVG-20010904/DTD/svg10.dtd">
<svg version="1.0" xmlns="http://www.w3.org/2000/svg"
 width="700.000000pt" height="700.000000pt" viewBox="0 0 700.000000 700.000000"
 preserveAspectRatio="xMidYMid meet">
<metadata>
Created by potrace 1.14, written by Peter Selinger 2001-2017
</metadata>
<g transform="translate(0.000000,700.000000) scale(0.100000,-0.100000)"
fill="#000000" stroke="none">
<path d="M2263 5686 c-181 -59 -294 -244 -261 -425 6 -33 210 -499 540 -1234
292 -650 539 -1207 550 -1237 10 -30 23 -95 30 -146 19 -160 1 -232 -151 -593
-71 -168 -134 -326 -141 -351 -32 -119 23 -267 130 -345 65 -48 122 -66 205
-66 114 -1 210 47 274 137 20 26 119 265 260 626 126 321 470 1159 764 1863
295 705 541 1302 548 1329 16 65 5 165 -25 232 -35 77 -113 155 -189 190 -54
26 -73 29 -157 29 -84 0 -103 -3 -157 -29 -66 -30 -147 -105 -178 -166 -10
-18 -163 -436 -341 -928 -198 -551 -331 -903 -343 -916 -27 -26 -82 -26 -117
0 -21 15 -91 173 -331 739 -522 1237 -469 1120 -529 1185 -72 78 -150 112
-259 117 -49 2 -96 -2 -122 -11z"/>
</g>
</svg>
