<svg width="38" height="38" fill="none" xmlns="http://www.w3.org/2000/svg"><path fill-rule="evenodd" clip-rule="evenodd" d="M11.48 8.646v2.249l-2.683.216a4.133 4.133 0 0 0-3.747 3.46c-.066.408-.126.816-.18 1.226-.027.203.08.4.266.488l.122.057c8.596 4.07 18.888 4.07 27.484 0l.122-.057a.472.472 0 0 0 .267-.488 42.48 42.48 0 0 0-.18-1.227 4.133 4.133 0 0 0-3.748-3.459l-2.682-.216v-2.25a2.77 2.77 0 0 0-2.36-2.74l-1.931-.29a21.77 21.77 0 0 0-6.46 0l-1.931.29a2.77 2.77 0 0 0-2.36 2.74Zm10.397-.681a19.396 19.396 0 0 0-5.754 0l-1.932.29a.396.396 0 0 0-.337.39v2.083a89.957 89.957 0 0 1 10.292 0V8.646a.396.396 0 0 0-.337-.392l-1.932-.29Z" fill="#FEDD00"/><path d="M33.437 19.111a.318.318 0 0 0-.447-.27c-8.82 3.905-19.16 3.905-27.98 0a.317.317 0 0 0-.447.27 42.559 42.559 0 0 0 .487 9.066 4.133 4.133 0 0 0 3.747 3.46l2.964.238c4.818.39 9.66.39 14.478 0l2.964-.239a4.133 4.133 0 0 0 3.747-3.459c.486-3 .648-6.04.487-9.066Z" fill="#FEDD00"/></svg>