<svg width="38" height="38" fill="none" xmlns="http://www.w3.org/2000/svg"><path fill-rule="evenodd" clip-rule="evenodd" d="M17.568 7.773A6.785 6.785 0 0 1 19 9.453a6.785 6.785 0 0 1 1.431-1.68c1.292-1.102 3.01-1.793 4.726-1.793 1.2 0 2.486.339 3.596.913 1.104.572 2.11 1.416 2.662 2.49a.794.794 0 0 1 .036.08l3.373 8.867a8.225 8.225 0 1 1-15.214 5.067h-1.22A8.226 8.226 0 1 1 3.176 18.33l3.373-8.867a.792.792 0 0 1 .036-.08c.552-1.074 1.557-1.918 2.662-2.49 1.11-.574 2.395-.913 3.595-.913 1.716 0 3.434.691 4.726 1.793ZM4.354 22.605a5.85 5.85 0 1 1 11.699 0 5.85 5.85 0 0 1-11.699 0Zm17.593 0a5.85 5.85 0 1 1 11.699 0 5.85 5.85 0 0 1-11.7 0Z" fill="#FEDD00"/></svg>