<svg width="38" height="38" viewBox="0 0 38 38" fill="none" xmlns="http://www.w3.org/2000/svg">
<path d="M0 26.2918L5.64144 11.8266H8.16253L13.7626 26.2918H10.9729L7.87322 18.0673C7.80434 17.902 7.70791 17.6402 7.58392 17.282C7.47371 16.9239 7.34972 16.5381 7.21196 16.1248C7.07419 15.6978 6.95021 15.3051 6.83999 14.9469C6.72978 14.575 6.64712 14.3063 6.59202 14.141L7.10863 14.1204C7.02598 14.3959 6.92954 14.7059 6.81933 15.0503C6.70912 15.3947 6.59202 15.7529 6.46803 16.1248C6.34404 16.4968 6.22005 16.855 6.09607 17.1994C5.98586 17.5438 5.88253 17.8538 5.7861 18.1293L2.6864 26.2918H0ZM2.56241 22.9855L3.49232 20.6504H10.0843L11.0762 22.9855H2.56241Z" fill="#FEDD00"/>
<path d="M21.5995 26.4985C21.1174 26.4985 20.6421 26.4296 20.1737 26.2918C19.7191 26.1403 19.3058 25.9405 18.9338 25.6926C18.5618 25.4446 18.2519 25.169 18.0039 24.866C17.7559 24.5491 17.5906 24.2323 17.5079 23.9154L18.1072 23.6468L18.0452 26.2505H15.5861V11H18.1279V17.9227L17.6733 17.716C17.7421 17.3854 17.8937 17.0754 18.1279 16.7861C18.3759 16.483 18.6789 16.2144 19.0371 15.9802C19.3953 15.7322 19.7879 15.5393 20.215 15.4016C20.6421 15.25 21.076 15.1743 21.5169 15.1743C22.495 15.1743 23.356 15.4153 24.1 15.8975C24.8577 16.3797 25.4501 17.0478 25.8771 17.902C26.318 18.7561 26.5384 19.7274 26.5384 20.8157C26.5384 21.9178 26.3249 22.8959 25.8978 23.7501C25.4707 24.6042 24.8783 25.2793 24.1206 25.7752C23.3767 26.2574 22.5363 26.4985 21.5995 26.4985ZM21.0623 24.2667C21.6409 24.2667 22.1575 24.122 22.6121 23.8327C23.0667 23.5297 23.4249 23.1233 23.6867 22.6135C23.9484 22.09 24.0793 21.4907 24.0793 20.8157C24.0793 20.1544 23.9484 19.5689 23.6867 19.0592C23.4387 18.5495 23.0874 18.15 22.6328 17.8607C22.1782 17.5714 21.6547 17.4267 21.0623 17.4267C20.4699 17.4267 19.9464 17.5714 19.4918 17.8607C19.0371 18.15 18.6789 18.5495 18.4172 19.0592C18.1554 19.5689 18.0246 20.1544 18.0246 20.8157C18.0246 21.4907 18.1554 22.09 18.4172 22.6135C18.6789 23.1233 19.0371 23.5297 19.4918 23.8327C19.9464 24.122 20.4699 24.2667 21.0623 24.2667Z" fill="#FEDD00"/>
<path d="M33.4744 26.4985C32.455 26.4985 31.5389 26.2505 30.726 25.7545C29.9132 25.2586 29.2726 24.5836 28.8042 23.7294C28.3358 22.8753 28.1016 21.9109 28.1016 20.8364C28.1016 19.7618 28.3358 18.7975 28.8042 17.9433C29.2726 17.0892 29.9132 16.4141 30.726 15.9182C31.5389 15.4222 32.455 15.1743 33.4744 15.1743C34.4526 15.1743 35.3412 15.3602 36.1402 15.7322C36.9392 16.1042 37.5592 16.6208 38 17.282L36.5948 18.9765C36.3882 18.6872 36.1264 18.4255 35.8095 18.1913C35.4927 17.9571 35.1552 17.7711 34.797 17.6333C34.4388 17.4956 34.0806 17.4267 33.7224 17.4267C33.1163 17.4267 32.5721 17.5782 32.0899 17.8813C31.6215 18.1706 31.2496 18.577 30.974 19.1005C30.6985 19.6103 30.5607 20.1889 30.5607 20.8364C30.5607 21.4839 30.6985 22.0625 30.974 22.5722C31.2633 23.0819 31.6491 23.4883 32.1312 23.7914C32.6134 24.0945 33.1507 24.246 33.7431 24.246C34.1013 24.246 34.4457 24.1909 34.7763 24.0807C35.1207 23.9567 35.4445 23.7845 35.7476 23.5641C36.0506 23.3437 36.3331 23.0681 36.5948 22.7375L38 24.4527C37.5316 25.0588 36.8841 25.5548 36.0575 25.9405C35.2447 26.3125 34.3837 26.4985 33.4744 26.4985Z" fill="#FEDD00"/>
</svg>
