<svg width="38" height="38" fill="none" xmlns="http://www.w3.org/2000/svg"><path d="M30.317 8.312H8.447L6.58 4.962a1.187 1.187 0 0 0-1.037-.608H3.167a1.188 1.188 0 0 0 0 2.375h1.677l1.844 3.305 4.253 9.41.005.01.374.828-4.27 4.555a1.187 1.187 0 0 0 .732 1.992l3.892.445a64.53 64.53 0 0 0 14.652 0l3.892-.445a1.188 1.188 0 0 0-.27-2.36l-3.892.445a62.145 62.145 0 0 1-14.113 0l-1.544-.176 3.134-3.343c.03-.032.058-.066.084-.1l1.192.154c1.67.218 3.359.26 5.038.127a14.709 14.709 0 0 0 10.08-5.175l.915-1.084c.031-.037.06-.075.086-.115l1.706-2.6c1.209-1.842-.113-4.29-2.317-4.29ZM10.291 29.291a2.375 2.375 0 1 0 0 4.75 2.375 2.375 0 0 0 0-4.75ZM25.333 31.666a2.375 2.375 0 1 1 4.75 0 2.375 2.375 0 0 1-4.75 0Z" fill="#FEDD00"/></svg>