<svg width="38" height="38" fill="none" xmlns="http://www.w3.org/2000/svg"><path fill-rule="evenodd" clip-rule="evenodd" d="M19.562 5.228a2.15 2.15 0 0 0-1.177 0c-.821.234-1.65.45-2.481.668-3.711.969-7.797 2.036-11.292 4.888l-1.648 1.345C1.65 13.2 1.651 15.3 2.966 16.372l1.621 1.32a19.013 19.013 0 0 0 3.725 2.361v7.33c0 1.794 1.101 3.405 2.773 4.056l6.333 2.47a4.354 4.354 0 0 0 3.163 0l6.334-2.47a4.354 4.354 0 0 0 2.772-4.056v-7.316a18.867 18.867 0 0 0 3.7-2.35l.259-.21v7.827a1.187 1.187 0 1 0 2.375 0V14.251c0-.793-.33-1.586-.987-2.122l-1.621-1.32C29.892 7.94 25.635 6.83 22.038 5.893c-.83-.216-1.657-.432-2.477-.665ZM13.14 20.287a1.187 1.187 0 1 0-.947 2.178c2.023.88 4.118 1.6 6.264 2.15.374.096.766.096 1.14 0a41.45 41.45 0 0 0 6.246-2.151 1.187 1.187 0 1 0-.95-2.177 39.08 39.08 0 0 1-5.867 2.023 39.322 39.322 0 0 1-5.886-2.023Z" fill="#FEDD00"/></svg>