<svg width="167" height="139" viewBox="0 0 167 139" fill="none" xmlns="http://www.w3.org/2000/svg">
<mask id="mask0" mask-type="alpha" maskUnits="userSpaceOnUse" x="39" y="0" width="90" height="88">
<rect x="39" width="89.2571" height="88" rx="44" fill="white"/>
</mask>
<g mask="url(#mask0)">
<rect x="39" width="89.2571" height="88" rx="44" fill="#EF3841"/>
<path d="M95.842 57.1496C95.842 56.7333 96.212 56.3633 96.6282 56.3633C97.0445 56.3633 97.4145 56.7333 97.4145 57.1496L97.692 67.0469C97.692 67.3244 97.5532 67.6019 97.2757 67.7406C97.137 67.8331 97.0445 67.8331 96.9057 67.8331C96.767 67.8331 96.5357 67.7406 96.397 67.6944L84.3259 57.7971C83.956 57.5196 83.9559 57.0108 84.2334 56.7333C84.5109 56.3633 85.0197 56.3633 85.2972 56.6408" fill="white"/>
<path d="M106.294 34.7186V30.0937C106.294 25.885 95.7954 22.4626 82.8918 22.4626C69.9883 22.4626 59.4897 25.885 59.4897 30.0937V34.8111L106.294 34.7186Z" fill="white"/>
<path d="M59.5365 35.0885C59.444 35.0885 59.3053 34.996 59.259 34.996C59.2128 34.996 59.1665 34.8573 59.1665 34.7186V30.0011C59.1665 25.5149 69.5726 22 82.9386 22C96.2584 22 106.664 25.5149 106.664 30.0011V34.626C106.664 34.8573 106.526 34.996 106.294 34.996L59.5365 35.0885ZM82.9386 22.74C70.4513 22.74 59.9065 26.0699 59.9065 30.0011V34.3485H105.878V30.0474C105.971 26.1162 95.3797 22.74 82.9386 22.74Z" fill="white"/>
<path d="M59.5361 52.5715C59.5361 57.7977 70.0347 58.1214 82.9383 58.1214C95.8418 58.1214 106.34 57.7052 106.34 52.5715V50.3516H59.5361V52.5715Z" fill="white"/>
<path d="M82.8923 58.4899C69.4801 58.4899 59.1665 58.0736 59.1665 52.57V50.35C59.1665 50.1188 59.3052 49.98 59.5365 49.98H106.248C106.479 49.98 106.618 50.1188 106.618 50.35V52.57C106.664 58.0736 96.3046 58.4899 82.8923 58.4899ZM59.8602 50.72V52.57C59.8602 57.4262 70.2663 57.7961 82.8923 57.7961C95.5184 57.7961 105.924 57.3799 105.924 52.57V50.72H59.8602Z" fill="white"/>
<path d="M61.0165 44.3857H104.861C105.878 44.3857 106.711 43.5995 106.711 42.582C106.711 41.5645 105.878 40.7783 104.861 40.7783H61.0165C59.999 40.7783 59.1665 41.5645 59.1665 42.582C59.1665 43.507 59.999 44.3857 61.0165 44.3857Z" fill="white"/>
</g>
<path d="M1.88901 136.702C0.617563 135.467 0 133.833 0 131.835V118.72C0 116.686 0.617563 115.088 1.88901 113.853C3.16045 112.618 4.86783 112 6.93846 112C9.0091 112 10.7528 112.618 12.0242 113.853C13.2957 115.088 13.9859 116.722 13.9859 118.72V120.174C13.9859 120.283 13.9132 120.392 13.8769 120.501C13.7679 120.609 13.6953 120.609 13.55 120.609H10.1352C10.0262 120.609 9.91726 120.537 9.80828 120.501C9.6993 120.392 9.6993 120.319 9.6993 120.174V118.684C9.6993 117.776 9.40868 117.049 8.90011 116.541C8.39153 115.996 7.73766 115.705 6.93846 115.705C6.10294 115.705 5.48538 115.996 4.9768 116.541C4.46822 117.086 4.25026 117.776 4.25026 118.684V131.835C4.25026 132.743 4.46822 133.469 4.9768 133.978C5.48538 134.523 6.10294 134.813 6.93846 134.813C7.77398 134.813 8.39153 134.523 8.90011 133.978C9.40868 133.433 9.6993 132.743 9.6993 131.835V128.311C9.6993 128.202 9.62665 128.129 9.51767 128.129H7.26539C7.15641 128.129 7.04744 128.057 6.93846 128.02C6.82948 127.911 6.82946 127.839 6.82946 127.693V125.005C6.82946 124.896 6.90214 124.787 6.93846 124.678C7.04744 124.569 7.12008 124.569 7.26539 124.569H13.55C13.6589 124.569 13.7679 124.642 13.8769 124.678C13.9859 124.787 13.9859 124.86 13.9859 125.005V131.835C13.9859 133.869 13.2957 135.467 12.0242 136.702C10.7528 137.937 9.04543 138.555 6.93846 138.555C4.86783 138.555 3.19678 137.937 1.88901 136.702Z" fill="white"/>
<path d="M27.2815 137.901L24.1574 127.33C24.0848 127.221 24.0484 127.148 23.9758 127.148H22.0141C21.9052 127.148 21.8325 127.221 21.8325 127.33V137.865C21.8325 137.974 21.7598 138.083 21.7235 138.192C21.6145 138.301 21.5419 138.301 21.3966 138.301H17.9818C17.8728 138.301 17.7639 138.228 17.6549 138.192C17.5459 138.083 17.5459 138.01 17.5459 137.865V112.872C17.5459 112.763 17.6186 112.654 17.6549 112.545C17.7639 112.436 17.8365 112.436 17.9818 112.436H24.9203C26.1917 112.436 27.3905 112.763 28.4077 113.38C29.4248 113.998 30.1877 114.906 30.7689 116.068C31.3138 117.195 31.6044 118.539 31.6044 119.992C31.6044 121.518 31.3138 122.862 30.6963 123.951C30.0787 125.078 29.2795 125.913 28.226 126.458C28.1171 126.458 28.1171 126.567 28.1171 126.676L31.7498 137.828C31.7498 137.901 31.8224 137.937 31.8224 138.01C31.8224 138.228 31.7134 138.337 31.4228 138.337H27.8991C27.4995 138.264 27.3905 138.119 27.2815 137.901ZM21.8325 116.25V123.588C21.8325 123.697 21.9052 123.77 22.0141 123.77H24.2664C25.1746 123.77 25.9011 123.443 26.446 122.753C26.9909 122.062 27.2815 121.118 27.2815 119.955C27.2815 118.793 26.9909 117.812 26.446 117.086C25.9011 116.359 25.1746 116.032 24.2664 116.032H22.0141C21.9052 116.032 21.8325 116.141 21.8325 116.25Z" fill="white"/>
<path d="M36.327 136.484C35.0556 135.14 34.438 133.288 34.438 131.035V112.763C34.438 112.654 34.5107 112.545 34.547 112.436C34.656 112.327 34.7286 112.327 34.8739 112.327H38.2887C38.3976 112.327 38.5066 112.4 38.6156 112.436C38.7246 112.545 38.7246 112.618 38.7246 112.763V131.471C38.7246 132.488 38.9425 133.251 39.4511 133.869C39.9597 134.486 40.5772 134.813 41.4128 134.813C42.2483 134.813 42.8659 134.486 43.3744 133.869C43.883 133.251 44.101 132.452 44.101 131.471V112.763C44.101 112.654 44.1736 112.545 44.21 112.436C44.3189 112.327 44.3916 112.327 44.5369 112.327H47.9516C48.0606 112.327 48.1696 112.4 48.2786 112.436C48.3876 112.545 48.3876 112.618 48.3876 112.763V131.035C48.3876 133.288 47.77 135.068 46.4985 136.484C45.2271 137.828 43.5197 138.555 41.4491 138.555C39.3058 138.555 37.5621 137.901 36.327 136.484Z" fill="white"/>
<path d="M64.008 136.448C62.6639 137.683 60.9929 138.301 58.8496 138.301H52.3471C52.2381 138.301 52.1291 138.228 52.0201 138.192C51.9111 138.083 51.9111 138.01 51.9111 137.865V112.872C51.9111 112.763 51.9838 112.654 52.0201 112.545C52.1291 112.436 52.2018 112.436 52.3471 112.436H58.1594C60.5206 112.436 62.3733 113.053 63.6447 114.216C64.9888 115.378 65.679 117.122 65.679 119.374C65.679 121.881 64.7709 123.733 62.9909 124.823C62.8819 124.896 62.8092 125.005 62.9182 125.041C63.8627 125.659 64.6619 126.494 65.1705 127.511C65.7154 128.529 66.006 129.764 66.006 131.217C65.9697 133.396 65.3521 135.213 64.008 136.448ZM56.234 116.25V123.152C56.234 123.261 56.3067 123.334 56.4157 123.334H58.3047C59.3218 123.334 60.0847 123.007 60.6659 122.389C61.2108 121.772 61.5014 120.864 61.5014 119.774C61.5014 118.611 61.2108 117.703 60.6659 117.013C60.121 116.395 59.3218 116.068 58.3047 116.068H56.4157C56.2704 116.032 56.234 116.141 56.234 116.25ZM60.8839 133.469C61.4288 132.779 61.7194 131.798 61.7194 130.563C61.7194 129.292 61.4288 128.274 60.8839 127.548C60.339 126.821 59.5398 126.494 58.5226 126.494H56.3793C56.2704 126.494 56.1977 126.567 56.1977 126.676V134.305C56.1977 134.414 56.2704 134.486 56.3793 134.486H58.5226C59.5398 134.523 60.3027 134.196 60.8839 133.469Z" fill="white"/>
<path d="M79.9194 137.937L75.8144 126.24C75.8144 126.167 75.7418 126.131 75.6328 126.131H72.0001C71.8911 126.131 71.8185 126.204 71.8185 126.313V137.901C71.8185 138.119 71.7095 138.301 71.4189 138.301H70.1838C69.9658 138.301 69.7842 138.192 69.7842 137.901V112.763C69.7842 112.545 69.8932 112.363 70.1838 112.363H75.9598C77.7035 112.363 79.0839 112.981 80.1737 114.252C81.2272 115.524 81.7357 117.231 81.7357 119.302C81.7357 120.936 81.4088 122.389 80.6823 123.516C79.9557 124.678 79.0112 125.477 77.7761 125.877C77.6671 125.877 77.6671 125.986 77.6671 126.058L81.8811 137.828L81.9537 138.01C81.9537 138.192 81.8447 138.301 81.6268 138.301H80.3916C80.1373 138.264 79.992 138.155 79.9194 137.937ZM71.8548 114.252V124.351C71.8548 124.46 71.9275 124.533 72.0364 124.533H75.7781C77.0132 124.533 77.9577 124.097 78.6843 123.116C79.4108 122.171 79.8104 120.936 79.8104 119.374C79.8104 117.812 79.4108 116.504 78.6843 115.56C77.9577 114.615 76.9406 114.143 75.7781 114.143H72.0364C71.9275 114.071 71.8548 114.143 71.8548 114.252Z" fill="white"/>
<path d="M87.4752 136.666C86.3491 135.394 85.8042 133.687 85.8042 131.58V112.763C85.8042 112.545 85.9132 112.363 86.2038 112.363H87.4389C87.6569 112.363 87.8385 112.472 87.8385 112.763V131.798C87.8385 133.324 88.2381 134.559 88.9646 135.431C89.6912 136.339 90.7083 136.848 91.9435 136.848C93.1786 136.848 94.1957 136.412 94.9586 135.431C95.7578 134.486 96.1211 133.287 96.1211 131.798V112.763C96.1211 112.545 96.23 112.363 96.5207 112.363H97.7558C97.9737 112.363 98.1554 112.472 98.1554 112.763V131.58C98.1554 133.651 97.6105 135.394 96.4843 136.63C95.3582 137.901 93.8324 138.519 92.0524 138.519C90.0544 138.555 88.6014 137.937 87.4752 136.666Z" fill="white"/>
<path d="M113.667 112.363H114.83C115.048 112.363 115.229 112.472 115.229 112.763V137.901C115.229 138.119 115.12 138.301 114.83 138.301H113.377C113.159 138.301 113.05 138.192 112.977 138.01L105.094 117.267C105.094 117.195 105.021 117.158 104.985 117.158C104.912 117.158 104.912 117.231 104.912 117.267L104.985 137.865C104.985 138.083 104.876 138.264 104.585 138.264H103.35C103.132 138.264 102.951 138.155 102.951 137.865V112.727C102.951 112.509 103.06 112.327 103.35 112.327H104.731C104.949 112.327 105.058 112.436 105.13 112.618L113.013 133.215C113.013 133.288 113.086 133.324 113.122 133.324C113.195 133.324 113.195 133.251 113.195 133.215V112.727C113.304 112.509 113.413 112.363 113.667 112.363Z" fill="white"/>
<path d="M131.758 112.363H132.921C133.139 112.363 133.32 112.472 133.32 112.763V137.901C133.32 138.119 133.211 138.301 132.921 138.301H131.468C131.25 138.301 131.141 138.192 131.068 138.01L123.149 117.267C123.149 117.195 123.076 117.158 123.04 117.158C122.967 117.158 122.967 117.231 122.967 117.267L123.04 137.865C123.04 138.083 122.931 138.264 122.64 138.264H121.405C121.187 138.264 121.005 138.155 121.005 137.865V112.727C121.005 112.509 121.114 112.327 121.405 112.327H122.822C123.04 112.327 123.149 112.436 123.221 112.618L131.104 133.215C131.104 133.288 131.177 133.324 131.213 133.324C131.286 133.324 131.286 133.251 131.286 133.215V112.727C131.359 112.509 131.468 112.363 131.758 112.363Z" fill="white"/>
<path d="M149.994 114.07H141.239C141.13 114.07 141.058 114.143 141.058 114.252V124.278C141.058 124.387 141.13 124.46 141.239 124.46H146.834C147.052 124.46 147.233 124.569 147.233 124.86V125.877C147.233 126.095 147.124 126.276 146.834 126.276H141.239C141.13 126.276 141.058 126.349 141.058 126.458V136.484C141.058 136.593 141.13 136.666 141.239 136.666H149.994C150.212 136.666 150.394 136.775 150.394 137.065V138.083C150.394 138.301 150.285 138.482 149.994 138.482H139.532C139.314 138.482 139.132 138.373 139.132 138.083V112.944C139.132 112.726 139.241 112.545 139.532 112.545H149.994C150.212 112.545 150.394 112.654 150.394 112.944V113.961C150.357 113.961 150.212 114.07 149.994 114.07Z" fill="white"/>
<path d="M164.925 137.937L160.82 126.24C160.82 126.167 160.747 126.131 160.638 126.131H157.005C156.897 126.131 156.824 126.204 156.824 126.313V137.901C156.824 138.119 156.715 138.301 156.424 138.301H155.189C154.971 138.301 154.79 138.192 154.79 137.901V112.763C154.79 112.545 154.899 112.363 155.189 112.363H160.892C162.636 112.363 164.017 112.981 165.106 114.252C166.16 115.524 166.668 117.231 166.668 119.302C166.668 120.936 166.342 122.389 165.615 123.516C164.888 124.678 163.944 125.477 162.709 125.877C162.6 125.877 162.6 125.986 162.6 126.058L166.814 137.828L166.886 138.01C166.886 138.192 166.777 138.301 166.559 138.301H165.324C165.143 138.264 164.961 138.155 164.925 137.937ZM156.896 114.252V124.351C156.896 124.46 156.969 124.533 157.078 124.533H160.82C162.055 124.533 162.999 124.097 163.726 123.116C164.453 122.171 164.852 120.936 164.852 119.374C164.852 117.812 164.453 116.504 163.726 115.56C162.999 114.615 161.982 114.143 160.82 114.143H157.078C156.896 114.071 156.896 114.143 156.896 114.252Z" fill="white"/>
</svg>
