<svg width="166" height="39" viewBox="0 0 166 39" fill="none" xmlns="http://www.w3.org/2000/svg">
<rect width="38.9433" height="38.9433" rx="11.683" fill="#2FCE64"/>
<path d="M31.5672 15.7286C31.8075 15.7286 32.0024 15.5337 32.0024 15.2934V12.9048C32.0024 10.473 26.3615 8.56763 19.1412 8.56763C11.8958 8.56763 6.25497 10.473 6.25497 12.9048V15.2934C6.25497 15.5337 6.44981 15.7286 6.69015 15.7286H31.5672Z" fill="white"/>
<path d="M6.2758 25.1534C6.2758 28.1368 11.8665 28.3624 19.137 28.3624C19.5534 28.3624 19.9645 28.3617 20.3694 28.3597L26.3196 33.3519C26.6041 33.6364 27.0216 33.4689 27.0216 33.0009V28.0681C30.0856 27.705 32.0128 26.9039 31.9981 25.1534V23.95C31.9981 23.8247 31.9229 23.7495 31.7975 23.7495H6.47636C6.35101 23.7495 6.2758 23.8247 6.2758 23.95V25.1534Z" fill="white"/>
<path d="M7.23378 20.9208H31.0006C31.5521 20.9208 32.0034 20.4057 32.0034 19.739C32.0034 19.0724 31.5521 18.5573 31.0006 18.5573H7.23378C6.68223 18.5573 6.23096 19.0724 6.23096 19.739C6.23096 20.3451 6.68223 20.9208 7.23378 20.9208Z" fill="white"/>
<path d="M60.2502 12.4206C60.2502 12.2252 60.0918 12.0668 59.8965 12.0668H48.6435C48.4481 12.0668 48.2897 12.2252 48.2897 12.4206V14.8304C48.2897 15.0257 48.4481 15.1841 48.6435 15.1841H52.6008V26.7687C52.6008 26.9641 52.7592 27.1224 52.9545 27.1224H55.5854C55.7807 27.1224 55.9391 26.9641 55.9391 26.7687V15.1841H59.8965C60.0918 15.1841 60.2502 15.0257 60.2502 14.8304V12.4206Z" fill="#1A1A1A"/>
<path d="M71.4807 21.1311C71.4807 17.6823 68.9604 14.8525 65.2905 14.8525C61.7532 14.8525 59.1002 17.5717 59.1002 21.1533C59.1002 24.7348 61.7753 27.4762 65.2905 27.4762C67.909 27.4762 70.0783 26.011 71.0452 23.6682C71.1372 23.4454 70.967 23.2093 70.726 23.2093H68.0395C67.9119 23.2093 67.7957 23.2792 67.7245 23.3852C67.2158 24.1431 66.3392 24.6021 65.2905 24.6021C63.7208 24.6021 62.6596 23.6957 62.3722 22.0597H71.1076C71.2837 22.0597 71.434 21.9303 71.4508 21.7551C71.4707 21.5471 71.4807 21.3391 71.4807 21.1311ZM65.2905 17.616C66.7496 17.616 67.7887 18.4119 68.253 19.871H62.4606C62.8365 18.4561 63.8535 17.616 65.2905 17.616Z" fill="#1A1A1A"/>
<path d="M82.6442 27.1224C82.925 27.1224 83.0939 26.8109 82.9406 26.5756L79.2068 20.8437L82.678 15.7367C82.8376 15.5018 82.6694 15.1841 82.3855 15.1841H79.7094C79.589 15.1841 79.477 15.2452 79.4119 15.3464L77.2834 18.655L75.3301 15.3575C75.2664 15.25 75.1507 15.1841 75.0258 15.1841H72.2314C71.9508 15.1841 71.7819 15.4953 71.9349 15.7306L75.36 20.9985L71.6767 26.5737C71.5214 26.8089 71.69 27.1224 71.9719 27.1224H74.6755C74.7986 27.1224 74.9128 27.0584 74.9771 26.9534L77.2834 23.1872L79.5459 26.9509C79.6098 27.0573 79.7249 27.1224 79.849 27.1224H82.6442Z" fill="#1A1A1A"/>
<path d="M90.0636 24.2484C88.8698 24.2484 88.2065 23.5851 88.2065 22.4355V17.7928H91.1027C91.298 17.7928 91.4564 17.6345 91.4564 17.4391V15.5378C91.4564 15.3424 91.298 15.1841 91.1027 15.1841H88.1623V12.4427C88.1623 12.2473 88.004 12.089 87.8086 12.089H86.86C86.7429 12.089 86.6335 12.1468 86.5676 12.2435L83.3308 16.9953C83.2909 17.054 83.2695 17.1234 83.2695 17.1944V17.4391C83.2695 17.6345 83.4278 17.7928 83.6232 17.7928H84.9788V22.8777C84.9788 25.5085 86.5927 27.1224 89.2235 27.1224H91.169C91.3644 27.1224 91.5228 26.9641 91.5228 26.7687V24.6021C91.5228 24.4067 91.3644 24.2484 91.169 24.2484H90.0636Z" fill="#1A1A1A"/>
<path d="M100.335 23.7178C103.474 20.07 104.159 18.655 104.159 16.798C104.159 14.0345 102.015 12.1332 98.8976 12.1332C95.6698 12.1332 93.7243 14.0787 93.7243 17.0633V17.441C93.7243 17.6364 93.8826 17.7947 94.078 17.7947H97.2616C97.4569 17.7947 97.6153 17.6364 97.6153 17.441V17.0412C97.6153 16.1568 98.1238 15.6041 98.9418 15.6041C99.6934 15.6041 100.224 16.1347 100.224 16.9306C100.224 18.1785 99.4218 19.2964 93.6521 26.1028C93.5437 26.2306 93.4811 26.3964 93.4811 26.564V26.835C93.4811 27.0304 93.6395 27.1888 93.8348 27.1888H104.071C104.266 27.1888 104.425 27.0304 104.425 26.835V24.0715C104.425 23.8762 104.266 23.7178 104.071 23.7178H100.335Z" fill="#2FCE64"/>
<path fill-rule="evenodd" clip-rule="evenodd" d="M121.51 19.7985C121.51 24.1954 118.165 27.4982 113.684 27.4982C109.182 27.4982 105.816 24.1743 105.816 19.7985C105.816 15.4438 109.182 12.1199 113.684 12.1199C118.165 12.1199 121.51 15.4228 121.51 19.7985ZM113.683 24.1837C111.225 24.1837 109.357 22.2765 109.357 19.7992C109.357 17.3219 111.225 15.4344 113.683 15.4344C116.141 15.4344 117.969 17.3023 117.969 19.7992C117.969 22.2962 116.141 24.1837 113.683 24.1837Z" fill="#1A1A1A"/>
<path d="M129.211 15.1178C127.663 15.1178 126.602 15.6042 125.74 16.6654L125.253 15.4099C125.2 15.2738 125.069 15.1841 124.923 15.1841H123.463C123.268 15.1841 123.109 15.3425 123.109 15.5379V26.7687C123.109 26.9641 123.268 27.1225 123.463 27.1225H125.983C126.179 27.1225 126.337 26.9641 126.337 26.7687V20.9322C126.337 18.9867 127.044 18.1687 128.857 18.1687H129.918C130.114 18.1687 130.272 18.0103 130.272 17.815V15.4715C130.272 15.2762 130.114 15.1178 129.918 15.1178H129.211Z" fill="#1A1A1A"/>
<path d="M140.298 11.4451C140.103 11.4451 139.945 11.6034 139.945 11.7988V15.8474C139.016 15.2062 137.911 14.8525 136.673 14.8525C133.047 14.8525 130.394 17.5497 130.394 21.1754C130.394 24.779 133.047 27.4983 136.673 27.4983C138.132 27.4983 139.414 26.9898 140.409 26.1497L140.698 26.9159C140.75 27.0535 140.882 27.1446 141.029 27.1446H142.819C143.014 27.1446 143.172 26.9862 143.172 26.7908V11.7988C143.172 11.6034 143.014 11.4451 142.819 11.4451H140.298ZM136.938 24.4474C135.059 24.4474 133.688 23.0325 133.688 21.1754C133.688 19.2962 135.059 17.9034 136.938 17.9034C138.817 17.9034 140.188 19.2962 140.188 21.1754C140.188 23.0325 138.817 24.4474 136.938 24.4474Z" fill="#1A1A1A"/>
<path d="M157.203 21.1312C157.203 17.6823 154.682 14.8525 151.012 14.8525C147.475 14.8525 144.822 17.5718 144.822 21.1533C144.822 24.7348 147.497 27.4762 151.012 27.4762C153.631 27.4762 155.8 26.011 156.767 23.6683C156.859 23.4454 156.689 23.2093 156.448 23.2093H153.761C153.634 23.2093 153.518 23.2792 153.446 23.3852C152.938 24.1431 152.061 24.6021 151.012 24.6021C149.443 24.6021 148.381 23.6957 148.094 22.0597H157.136C157.18 21.7502 157.203 21.4407 157.203 21.1312ZM151.012 17.616C152.471 17.616 153.511 18.4119 153.975 19.871H148.183C148.558 18.4561 149.575 17.616 151.012 17.616Z" fill="#1A1A1A"/>
<path d="M164.939 15.1178C163.391 15.1178 162.33 15.6042 161.468 16.6654L160.981 15.4099C160.928 15.2738 160.797 15.1841 160.651 15.1841H159.191C158.995 15.1841 158.837 15.3425 158.837 15.5379V26.7687C158.837 26.9641 158.995 27.1225 159.191 27.1225H161.711C161.906 27.1225 162.065 26.9641 162.065 26.7687V20.9322C162.065 18.9867 162.772 18.1687 164.585 18.1687H165.646C165.842 18.1687 166 18.0103 166 17.815V15.4715C166 15.2762 165.842 15.1178 165.646 15.1178H164.939Z" fill="#1A1A1A"/>
</svg>
