<svg width="143" height="24" viewBox="0 0 143 24" fill="none" xmlns="http://www.w3.org/2000/svg">
<path d="M32.9364 17.6065C32.0888 16.7831 31.6771 15.6933 31.6771 14.3613V5.61863C31.6771 4.26242 32.0888 3.19684 32.9364 2.37342C33.784 1.55001 34.9223 1.13831 36.3027 1.13831C37.6831 1.13831 38.8456 1.55001 39.6932 2.37342C40.5409 3.19684 41.001 4.28664 41.001 5.61863V6.58735C41.001 6.66 40.9526 6.73266 40.9283 6.80531C40.8557 6.87797 40.8072 6.87796 40.7104 6.87796H38.4339C38.3612 6.87796 38.2886 6.82953 38.2159 6.80531C38.1433 6.73266 38.1433 6.68422 38.1433 6.58735V5.59441C38.1433 4.98896 37.9495 4.50461 37.6105 4.16555C37.2714 3.80228 36.8355 3.60854 36.3027 3.60854C35.7457 3.60854 35.334 3.80228 34.9949 4.16555C34.6559 4.52882 34.5106 4.98896 34.5106 5.59441V14.3613C34.5106 14.9668 34.6559 15.4511 34.9949 15.7902C35.334 16.1535 35.7457 16.3472 36.3027 16.3472C36.8597 16.3472 37.2714 16.1535 37.6105 15.7902C37.9495 15.4269 38.1433 14.9668 38.1433 14.3613V12.0122C38.1433 11.9395 38.0948 11.8911 38.0222 11.8911H36.5207C36.448 11.8911 36.3754 11.8427 36.3027 11.8184C36.2301 11.7458 36.23 11.6973 36.23 11.6005V9.80835C36.23 9.7357 36.2785 9.66304 36.3027 9.59038C36.3754 9.51773 36.4238 9.51773 36.5207 9.51773H40.7104C40.783 9.51773 40.8557 9.56616 40.9283 9.59038C41.001 9.66304 41.001 9.71148 41.001 9.80835V14.3613C41.001 15.7175 40.5409 16.7831 39.6932 17.6065C38.8456 18.4299 37.7073 18.8417 36.3027 18.8417C34.9223 18.8417 33.8082 18.4299 32.9364 17.6065Z" fill="white"/>
<path d="M49.8649 18.4057L47.7821 11.3582C47.7337 11.2856 47.7095 11.2371 47.661 11.2371H46.3533C46.2806 11.2371 46.2322 11.2856 46.2322 11.3582V18.3814C46.2322 18.4541 46.1837 18.5267 46.1595 18.5994C46.0869 18.672 46.0384 18.672 45.9416 18.672H43.6651C43.5924 18.672 43.5198 18.6236 43.4471 18.5994C43.3745 18.5267 43.3745 18.4783 43.3745 18.3814V1.71945C43.3745 1.6468 43.4229 1.57415 43.4471 1.50149C43.5198 1.42884 43.5682 1.42883 43.6651 1.42883H48.2907C49.1383 1.42883 49.9375 1.6468 50.6156 2.0585C51.2937 2.47021 51.8023 3.07566 52.1898 3.85063C52.5531 4.60139 52.7468 5.49745 52.7468 6.46617C52.7468 7.48333 52.5531 8.3794 52.1414 9.10594C51.7297 9.8567 51.1969 10.4137 50.4945 10.777C50.4219 10.777 50.4219 10.8496 50.4219 10.9223L52.8437 18.3572C52.8437 18.4056 52.8921 18.4299 52.8921 18.4783C52.8921 18.6236 52.8195 18.6963 52.6257 18.6963H50.2766C50.0102 18.6478 49.9375 18.551 49.8649 18.4057ZM46.2322 3.97172V8.86376C46.2322 8.93641 46.2806 8.98485 46.3533 8.98485H47.8548C48.4602 8.98485 48.9446 8.76689 49.3079 8.30675C49.6711 7.84661 49.8649 7.21693 49.8649 6.44196C49.8649 5.66698 49.6711 5.0131 49.3079 4.52874C48.9446 4.04438 48.4602 3.82642 47.8548 3.82642H46.3533C46.2806 3.82642 46.2322 3.89907 46.2322 3.97172Z" fill="white"/>
<path d="M55.8951 17.4612C55.0475 16.5651 54.6358 15.33 54.6358 13.8285V1.64682C54.6358 1.57417 54.6843 1.50151 54.7085 1.42885C54.7811 1.3562 54.8296 1.3562 54.9264 1.3562H57.2029C57.2756 1.3562 57.3482 1.40463 57.4209 1.42885C57.4935 1.50151 57.4935 1.54995 57.4935 1.64682V14.1191C57.4935 14.7972 57.6388 15.3058 57.9779 15.7175C58.3169 16.1292 58.7286 16.3471 59.2857 16.3471C59.8427 16.3471 60.2544 16.1292 60.5934 15.7175C60.9325 15.3058 61.0778 14.773 61.0778 14.1191V1.64682C61.0778 1.57417 61.1262 1.50151 61.1504 1.42885C61.2231 1.3562 61.2715 1.3562 61.3684 1.3562H63.6449C63.7176 1.3562 63.7902 1.40463 63.8629 1.42885C63.9355 1.50151 63.9355 1.54995 63.9355 1.64682V13.8285C63.9355 15.33 63.5238 16.5167 62.6762 17.4612C61.8285 18.3572 60.6903 18.8416 59.3099 18.8416C57.881 18.8416 56.7186 18.4057 55.8951 17.4612Z" fill="white"/>
<path d="M74.3492 17.4369C73.4531 18.2603 72.3391 18.672 70.9102 18.672H66.5752C66.5026 18.672 66.4299 18.6236 66.3573 18.5994C66.2846 18.5267 66.2846 18.4783 66.2846 18.3814V1.71945C66.2846 1.6468 66.333 1.57415 66.3573 1.50149C66.4299 1.42884 66.4784 1.42883 66.5752 1.42883H70.4501C72.0243 1.42883 73.2594 1.84054 74.107 2.61552C75.0031 3.3905 75.4632 4.55296 75.4632 6.05448C75.4632 7.72552 74.8578 8.96063 73.6711 9.68717C73.5984 9.73561 73.55 9.80826 73.6227 9.83248C74.2523 10.2442 74.7851 10.8012 75.1242 11.4793C75.4874 12.1574 75.6812 12.9808 75.6812 13.9495C75.657 15.4026 75.2453 16.6135 74.3492 17.4369ZM69.1665 3.97172V8.57314C69.1665 8.64579 69.215 8.69423 69.2876 8.69423H70.547C71.2251 8.69423 71.7336 8.47627 72.1211 8.06457C72.4844 7.65286 72.6781 7.04741 72.6781 6.32087C72.6781 5.54589 72.4844 4.94044 72.1211 4.4803C71.7579 4.06859 71.2251 3.85063 70.547 3.85063H69.2876C69.1908 3.82641 69.1665 3.89907 69.1665 3.97172ZM72.2665 15.451C72.6297 14.9909 72.8235 14.337 72.8235 13.5136C72.8235 12.666 72.6297 11.9879 72.2665 11.5035C71.9032 11.0192 71.3704 10.8012 70.6923 10.8012H69.2634C69.1908 10.8012 69.1423 10.8496 69.1423 10.9223V16.0081C69.1423 16.0807 69.1908 16.1292 69.2634 16.1292H70.6923C71.3704 16.1534 71.879 15.9354 72.2665 15.451Z" fill="white"/>
<path d="M84.9567 18.4298L82.22 10.6316C82.22 10.5832 82.1716 10.559 82.0989 10.559H79.6772C79.6045 10.559 79.5561 10.6074 79.5561 10.6801V18.4056C79.5561 18.5509 79.4834 18.672 79.2897 18.672H78.4663C78.3209 18.672 78.1999 18.5994 78.1999 18.4056V1.64677C78.1999 1.50146 78.2725 1.38037 78.4663 1.38037H82.3169C83.4794 1.38037 84.3997 1.79207 85.1262 2.6397C85.8285 3.48733 86.1676 4.62558 86.1676 6.00601C86.1676 7.09582 85.9496 8.06453 85.4653 8.81529C84.9809 9.59026 84.3512 10.1231 83.5278 10.3895C83.4552 10.3895 83.4552 10.4621 83.4552 10.5105L86.2644 18.3572L86.3129 18.4783C86.3129 18.5994 86.2402 18.672 86.0949 18.672H85.2715C85.102 18.6478 85.0051 18.5751 84.9567 18.4298ZM79.5803 2.6397V9.3723C79.5803 9.44495 79.6287 9.49339 79.7014 9.49339H82.1958C83.0192 9.49339 83.6489 9.20278 84.1333 8.54889C84.6176 7.91923 84.884 7.09582 84.884 6.05445C84.884 5.01307 84.6176 4.14122 84.1333 3.51155C83.6489 2.88188 82.9708 2.56705 82.1958 2.56705H79.7014C79.6287 2.51861 79.5803 2.56705 79.5803 2.6397Z" fill="white"/>
<path d="M89.994 17.5822C89.2432 16.7346 88.8799 15.5963 88.8799 14.1917V1.64677C88.8799 1.50146 88.9526 1.38037 89.1463 1.38037H89.9698C90.1151 1.38037 90.2361 1.45303 90.2361 1.64677V14.337C90.2361 15.3541 90.5025 16.1776 90.9869 16.7588C91.4713 17.3642 92.1494 17.7033 92.9728 17.7033C93.7962 17.7033 94.4743 17.4127 94.9829 16.7588C95.5157 16.1291 95.7579 15.3299 95.7579 14.337V1.64677C95.7579 1.50146 95.8305 1.38037 96.0242 1.38037H96.8477C96.993 1.38037 97.1141 1.45303 97.1141 1.64677V14.1917C97.1141 15.5721 96.7508 16.7346 96 17.558C95.2493 18.4056 94.2321 18.8173 93.0454 18.8173C91.7134 18.8415 90.7447 18.4298 89.994 17.5822Z" fill="white"/>
<path d="M107.455 1.38042H108.23C108.376 1.38042 108.497 1.45308 108.497 1.64682V18.4057C108.497 18.551 108.424 18.6721 108.23 18.6721H107.262C107.116 18.6721 107.044 18.5994 106.995 18.4783L101.74 4.64985C101.74 4.60141 101.691 4.57719 101.667 4.57719C101.619 4.57719 101.619 4.62563 101.619 4.64985L101.667 18.3814C101.667 18.5267 101.594 18.6478 101.401 18.6478H100.577C100.432 18.6478 100.311 18.5752 100.311 18.3814V1.6226C100.311 1.47729 100.384 1.3562 100.577 1.3562H101.498C101.643 1.3562 101.716 1.42885 101.764 1.54994L107.019 15.2815C107.019 15.33 107.068 15.3542 107.092 15.3542C107.14 15.3542 107.14 15.3058 107.14 15.2815V1.6226C107.213 1.47729 107.286 1.38042 107.455 1.38042Z" fill="white"/>
<path d="M119.516 1.38042H120.291C120.436 1.38042 120.557 1.45308 120.557 1.64682V18.4057C120.557 18.551 120.484 18.6721 120.291 18.6721H119.322C119.177 18.6721 119.104 18.5994 119.056 18.4783L113.776 4.64985C113.776 4.60141 113.728 4.57719 113.703 4.57719C113.655 4.57719 113.655 4.62563 113.655 4.64985L113.703 18.3814C113.703 18.5267 113.631 18.6478 113.437 18.6478H112.614C112.468 18.6478 112.347 18.5752 112.347 18.3814V1.6226C112.347 1.47729 112.42 1.3562 112.614 1.3562H113.558C113.703 1.3562 113.776 1.42885 113.825 1.54994L119.08 15.2815C119.08 15.33 119.128 15.3542 119.152 15.3542C119.201 15.3542 119.201 15.3058 119.201 15.2815V1.6226C119.249 1.47729 119.322 1.38042 119.516 1.38042Z" fill="white"/>
<path d="M131.673 2.51849H125.837C125.764 2.51849 125.716 2.56693 125.716 2.63958V9.32376C125.716 9.39641 125.764 9.44485 125.837 9.44485H129.566C129.712 9.44485 129.833 9.51749 129.833 9.71124V10.3893C129.833 10.5346 129.76 10.6557 129.566 10.6557H125.837C125.764 10.6557 125.716 10.7042 125.716 10.7768V17.461C125.716 17.5336 125.764 17.5821 125.837 17.5821H131.673C131.818 17.5821 131.94 17.6547 131.94 17.8485V18.5266C131.94 18.6719 131.867 18.793 131.673 18.793H124.698C124.553 18.793 124.432 18.7203 124.432 18.5266V1.76774C124.432 1.62243 124.505 1.50134 124.698 1.50134H131.673C131.818 1.50134 131.94 1.574 131.94 1.76774V2.44584C131.915 2.44584 131.818 2.51849 131.673 2.51849Z" fill="white"/>
<path d="M141.627 18.4298L138.89 10.6316C138.89 10.5832 138.842 10.559 138.769 10.559H136.347C136.275 10.559 136.226 10.6074 136.226 10.6801V18.4056C136.226 18.5509 136.154 18.672 135.96 18.672H135.136C134.991 18.672 134.87 18.5994 134.87 18.4056V1.64677C134.87 1.50146 134.943 1.38037 135.136 1.38037H138.939C140.101 1.38037 141.021 1.79207 141.748 2.6397C142.45 3.48733 142.789 4.62558 142.789 6.00601C142.789 7.09582 142.571 8.06453 142.087 8.81529C141.603 9.59026 140.973 10.1231 140.15 10.3895C140.077 10.3895 140.077 10.4621 140.077 10.5105L142.886 18.3572L142.935 18.4783C142.935 18.5994 142.862 18.672 142.717 18.672H141.893C141.772 18.6478 141.651 18.5751 141.627 18.4298ZM136.275 2.6397V9.3723C136.275 9.44495 136.323 9.49339 136.396 9.49339H138.89C139.714 9.49339 140.343 9.20278 140.828 8.54889C141.312 7.91923 141.578 7.09582 141.578 6.05445C141.578 5.01307 141.312 4.14122 140.828 3.51155C140.343 2.88188 139.665 2.56705 138.89 2.56705H136.396C136.275 2.51861 136.275 2.56705 136.275 2.6397Z" fill="white"/>
<path d="M19.2049 18.4056C19.2049 18.1876 19.3986 17.9939 19.6166 17.9939C19.8345 17.9939 20.0283 18.1876 20.0283 18.4056L20.1736 23.5882C20.1736 23.7336 20.1009 23.8789 19.9556 23.9515C19.883 24 19.8345 24 19.7619 24C19.6892 24 19.5681 23.9515 19.4955 23.9273L13.1746 18.7446C12.9809 18.5993 12.9809 18.3329 13.1262 18.1876C13.2715 17.9939 13.5379 17.9939 13.6832 18.1392" fill="#EF3841"/>
<path d="M24.6782 6.65996V4.23816C24.6782 2.03432 19.1807 0.242188 12.4239 0.242188C5.66706 0.242188 0.169586 2.03432 0.169586 4.23816V6.70839L24.6782 6.65996Z" fill="#EF3841"/>
<path d="M0.193741 6.85369C0.145305 6.85369 0.0726569 6.80525 0.0484389 6.80525C0.0242209 6.80525 0 6.73261 0 6.65995V4.18972C0 1.84057 5.44905 0 12.448 0C19.4228 0 24.8719 1.84057 24.8719 4.18972V6.61151C24.8719 6.7326 24.7992 6.80525 24.6781 6.80525L0.193741 6.85369ZM12.448 0.387489C5.90919 0.387489 0.387482 2.13119 0.387482 4.18972V6.4662H24.4602V4.21393C24.5086 2.1554 18.9627 0.387489 12.448 0.387489Z" fill="#EF3841"/>
<path d="M0.193756 16.008C0.193756 18.7447 5.69125 18.9142 12.4481 18.9142C19.2049 18.9142 24.7024 18.6962 24.7024 16.008V14.8456H0.193756V16.008Z" fill="#EF3841"/>
<path d="M12.4238 19.108C5.40061 19.108 0 18.89 0 16.0081V14.8456C0 14.7245 0.072651 14.6519 0.193741 14.6519H24.6539C24.775 14.6519 24.8476 14.7245 24.8476 14.8456V16.0081C24.8719 18.89 19.447 19.108 12.4238 19.108ZM0.36327 15.0393V16.0081C0.36327 18.5509 5.81231 18.7447 12.4238 18.7447C19.0353 18.7447 24.4844 18.5267 24.4844 16.0081V15.0393H0.36327Z" fill="#EF3841"/>
<path d="M0.968719 11.7215H23.9274C24.4602 11.7215 24.8961 11.3098 24.8961 10.777C24.8961 10.2442 24.4602 9.83252 23.9274 9.83252H0.968719C0.435924 9.83252 0 10.2442 0 10.777C0 11.2614 0.435924 11.7215 0.968719 11.7215Z" fill="#EF3841"/>
</svg>
