<svg width="166" height="39" viewBox="0 0 166 39" fill="none" xmlns="http://www.w3.org/2000/svg">
<rect width="38.9433" height="38.9433" rx="11.683" fill="white"/>
<path d="M31.5672 15.7283C31.8075 15.7283 32.0024 15.5335 32.0024 15.2931V12.9046C32.0024 10.4727 26.3615 8.56738 19.1412 8.56738C11.8958 8.56738 6.25497 10.4727 6.25497 12.9046V15.2931C6.25497 15.5335 6.44981 15.7283 6.69015 15.7283H31.5672Z" fill="#2FCE64"/>
<path d="M6.2758 25.1532C6.2758 28.1366 11.8665 28.3622 19.137 28.3622C19.5534 28.3622 19.9645 28.3615 20.3694 28.3595L26.3196 33.3516C26.6041 33.6362 27.0216 33.4687 27.0216 33.0006V28.0679C30.0856 27.7047 32.0128 26.9037 31.9981 25.1532V23.9498C31.9981 23.8245 31.9229 23.7492 31.7975 23.7492H6.47636C6.35101 23.7492 6.2758 23.8245 6.2758 23.9498V25.1532Z" fill="#2FCE64"/>
<path d="M7.23378 20.9205H31.0006C31.5521 20.9205 32.0034 20.4054 32.0034 19.7388C32.0034 19.0722 31.5521 18.557 31.0006 18.557H7.23378C6.68223 18.557 6.23096 19.0722 6.23096 19.7388C6.23096 20.3448 6.68223 20.9205 7.23378 20.9205Z" fill="#2FCE64"/>
<path d="M60.2502 12.4208C60.2502 12.2255 60.0918 12.0671 59.8965 12.0671H48.6435C48.4481 12.0671 48.2897 12.2255 48.2897 12.4208V14.8306C48.2897 15.026 48.4481 15.1843 48.6435 15.1843H52.6008V26.7689C52.6008 26.9643 52.7592 27.1227 52.9545 27.1227H55.5854C55.7807 27.1227 55.9391 26.9643 55.9391 26.7689V15.1843H59.8965C60.0918 15.1843 60.2502 15.026 60.2502 14.8306V12.4208Z" fill="white"/>
<path d="M71.4807 21.1314C71.4807 17.6825 68.9604 14.8527 65.2905 14.8527C61.7532 14.8527 59.1002 17.572 59.1002 21.1535C59.1002 24.735 61.7753 27.4764 65.2905 27.4764C67.909 27.4764 70.0783 26.0112 71.0452 23.6685C71.1372 23.4456 70.967 23.2095 70.726 23.2095H68.0395C67.9119 23.2095 67.7957 23.2794 67.7245 23.3854C67.2158 24.1433 66.3392 24.6024 65.2905 24.6024C63.7208 24.6024 62.6596 23.6959 62.3722 22.0599H71.1076C71.2837 22.0599 71.434 21.9306 71.4508 21.7553C71.4707 21.5473 71.4807 21.3394 71.4807 21.1314ZM65.2905 17.6162C66.7496 17.6162 67.7887 18.4121 68.253 19.8712H62.4606C62.8365 18.4563 63.8535 17.6162 65.2905 17.6162Z" fill="white"/>
<path d="M82.6442 27.1227C82.925 27.1227 83.0939 26.8112 82.9406 26.5759L79.2068 20.844L82.678 15.7369C82.8376 15.502 82.6694 15.1843 82.3855 15.1843H79.7094C79.589 15.1843 79.477 15.2455 79.4119 15.3467L77.2834 18.6553L75.3301 15.3578C75.2664 15.2503 75.1507 15.1843 75.0258 15.1843H72.2314C71.9508 15.1843 71.7819 15.4956 71.9349 15.7309L75.36 20.9987L71.6767 26.574C71.5214 26.8091 71.69 27.1227 71.9719 27.1227H74.6755C74.7986 27.1227 74.9128 27.0587 74.9771 26.9537L77.2834 23.1874L79.5459 26.9512C79.6098 27.0576 79.7249 27.1227 79.849 27.1227H82.6442Z" fill="white"/>
<path d="M90.0636 24.2486C88.8698 24.2486 88.2065 23.5854 88.2065 22.4358V17.7931H91.1027C91.298 17.7931 91.4564 17.6347 91.4564 17.4393V15.5381C91.4564 15.3427 91.298 15.1843 91.1027 15.1843H88.1623V12.4429C88.1623 12.2476 88.004 12.0892 87.8086 12.0892H86.86C86.7429 12.0892 86.6335 12.1471 86.5676 12.2438L83.3308 16.9955C83.2909 17.0542 83.2695 17.1236 83.2695 17.1946V17.4393C83.2695 17.6347 83.4278 17.7931 83.6232 17.7931H84.9788V22.8779C84.9788 25.5088 86.5927 27.1227 89.2235 27.1227H91.169C91.3644 27.1227 91.5228 26.9643 91.5228 26.7689V24.6024C91.5228 24.407 91.3644 24.2486 91.169 24.2486H90.0636Z" fill="white"/>
<path d="M100.335 23.718C103.474 20.0702 104.159 18.6553 104.159 16.7982C104.159 14.0347 102.015 12.1334 98.8976 12.1334C95.6698 12.1334 93.7243 14.0789 93.7243 17.0635V17.4412C93.7243 17.6366 93.8826 17.795 94.078 17.795H97.2616C97.4569 17.795 97.6153 17.6366 97.6153 17.4412V17.0414C97.6153 16.1571 98.1238 15.6044 98.9418 15.6044C99.6934 15.6044 100.224 16.135 100.224 16.9309C100.224 18.1788 99.4218 19.2966 93.6521 26.103C93.5437 26.2308 93.4811 26.3967 93.4811 26.5643V26.8353C93.4811 27.0306 93.6395 27.189 93.8348 27.189H104.071C104.266 27.189 104.425 27.0306 104.425 26.8353V24.0718C104.425 23.8764 104.266 23.718 104.071 23.718H100.335Z" fill="white"/>
<path fill-rule="evenodd" clip-rule="evenodd" d="M121.51 19.7988C121.51 24.1956 118.165 27.4985 113.684 27.4985C109.182 27.4985 105.816 24.1746 105.816 19.7988C105.816 15.444 109.182 12.1201 113.684 12.1201C118.165 12.1201 121.51 15.423 121.51 19.7988ZM113.683 24.1839C111.225 24.1839 109.357 22.2768 109.357 19.7995C109.357 17.3222 111.225 15.4347 113.683 15.4347C116.141 15.4347 117.969 17.3025 117.969 19.7995C117.969 22.2964 116.141 24.1839 113.683 24.1839Z" fill="white"/>
<path d="M129.211 15.118C127.663 15.118 126.602 15.6044 125.74 16.6656L125.253 15.4101C125.2 15.274 125.069 15.1844 124.923 15.1844H123.463C123.268 15.1844 123.109 15.3427 123.109 15.5381V26.769C123.109 26.9643 123.268 27.1227 123.463 27.1227H125.983C126.179 27.1227 126.337 26.9643 126.337 26.769V20.9325C126.337 18.9869 127.044 18.169 128.857 18.169H129.918C130.114 18.169 130.272 18.0106 130.272 17.8152V15.4718C130.272 15.2764 130.114 15.118 129.918 15.118H129.211Z" fill="white"/>
<path d="M140.298 11.4453C140.103 11.4453 139.945 11.6037 139.945 11.799V15.8476C139.016 15.2065 137.911 14.8527 136.673 14.8527C133.047 14.8527 130.394 17.5499 130.394 21.1756C130.394 24.7793 133.047 27.4985 136.673 27.4985C138.132 27.4985 139.414 26.9901 140.409 26.15L140.698 26.9161C140.75 27.0537 140.882 27.1448 141.029 27.1448H142.819C143.014 27.1448 143.172 26.9865 143.172 26.7911V11.799C143.172 11.6037 143.014 11.4453 142.819 11.4453H140.298ZM136.938 24.4476C135.059 24.4476 133.688 23.0327 133.688 21.1756C133.688 19.2965 135.059 17.9037 136.938 17.9037C138.817 17.9037 140.188 19.2965 140.188 21.1756C140.188 23.0327 138.817 24.4476 136.938 24.4476Z" fill="white"/>
<path d="M157.203 21.1314C157.203 17.6826 154.682 14.8527 151.012 14.8527C147.475 14.8527 144.822 17.572 144.822 21.1535C144.822 24.735 147.497 27.4764 151.012 27.4764C153.631 27.4764 155.8 26.0112 156.767 23.6685C156.859 23.4457 156.689 23.2096 156.448 23.2096H153.761C153.634 23.2096 153.518 23.2795 153.446 23.3854C152.938 24.1434 152.061 24.6024 151.012 24.6024C149.443 24.6024 148.381 23.696 148.094 22.06H157.136C157.18 21.7505 157.203 21.4409 157.203 21.1314ZM151.012 17.6163C152.471 17.6163 153.511 18.4121 153.975 19.8713H148.183C148.558 18.4564 149.575 17.6163 151.012 17.6163Z" fill="white"/>
<path d="M164.939 15.118C163.391 15.118 162.33 15.6044 161.468 16.6656L160.981 15.4101C160.928 15.274 160.797 15.1844 160.651 15.1844H159.191C158.995 15.1844 158.837 15.3427 158.837 15.5381V26.769C158.837 26.9643 158.995 27.1227 159.191 27.1227H161.711C161.906 27.1227 162.065 26.9643 162.065 26.769V20.9325C162.065 18.9869 162.772 18.169 164.585 18.169H165.646C165.842 18.169 166 18.0106 166 17.8152V15.4718C166 15.2764 165.842 15.118 165.646 15.118H164.939Z" fill="white"/>
</svg>
