<svg width="202" height="62" viewBox="0 0 202 62" fill="none" xmlns="http://www.w3.org/2000/svg">
<rect x="1.29885" y="15.0102" width="184.808" height="33.0181" rx="16.5091" fill="white" stroke="#EF3841" stroke-width="1.94014"/>
<path d="M18.8718 31.1118H20.4579C20.9526 31.1118 21.3455 30.9808 21.6365 30.7189C21.9276 30.4473 22.0731 30.0884 22.0731 29.6421C22.0731 29.1862 21.9276 28.8273 21.6365 28.5654C21.3552 28.2937 20.9623 28.1579 20.4579 28.1579H18.8718V31.1118ZM20.7053 32.8434H18.8573V36.7285H16.8492V26.4118H20.7053C21.7141 26.4118 22.529 26.7125 23.1498 27.314C23.7804 27.9154 24.0957 28.6866 24.0957 29.6276C24.0957 30.5686 23.7804 31.3398 23.1498 31.9412C22.529 32.5427 21.7141 32.8434 20.7053 32.8434ZM32.0911 36.7285L31.2325 34.3712H27.0418L26.1833 36.7285H24.0589L28.0168 26.4118H30.3449L34.2737 36.7285H32.0911ZM29.1372 28.6381L27.7112 32.5378H30.5632L29.1372 28.6381ZM42.4793 28.318H39.2199V36.7285H37.1973V28.318H33.9378V26.4118H42.4793V28.318ZM50.596 36.7285H44.1353V26.4118H50.596V28.3034H46.1434V30.6607H50.174V32.4505H46.1434V34.8369H50.596V36.7285ZM61.6504 36.7285H59.5405L54.8551 29.4093V36.7285H52.847V26.4118H55.3498L59.6424 33.2363V26.4118H61.6504V36.7285ZM71.8401 28.318H68.5806V36.7285H66.558V28.318H63.2986V26.4118H71.8401V28.318ZM79.3563 31.1118H80.9424C81.4371 31.1118 81.83 30.9808 82.121 30.7189C82.412 30.4473 82.5576 30.0884 82.5576 29.6421C82.5576 29.1862 82.412 28.8273 82.121 28.5654C81.8397 28.2937 81.4468 28.1579 80.9424 28.1579H79.3563V31.1118ZM81.1898 32.8434H79.3418V36.7285H77.3337V26.4118H81.1898C82.1986 26.4118 83.0135 26.7125 83.6343 27.314C84.2649 27.9154 84.5802 28.6866 84.5802 29.6276C84.5802 30.5686 84.2649 31.3398 83.6343 31.9412C83.0135 32.5427 82.1986 32.8434 81.1898 32.8434ZM92.8187 36.7285H86.358V26.4118H92.8187V28.3034H88.3661V30.6607H92.3967V32.4505H88.3661V34.8369H92.8187V36.7285ZM103.873 36.7285H101.763L97.0778 29.4093V36.7285H95.0697V26.4118H97.5725L101.865 33.2363V26.4118H103.873V36.7285ZM108.475 34.866H110.076C110.978 34.866 111.72 34.5847 112.302 34.022C112.884 33.4594 113.175 32.6445 113.175 31.5774C113.175 30.5104 112.884 29.6955 112.302 29.1329C111.72 28.5605 110.983 28.2743 110.09 28.2743H108.475V34.866ZM110.149 36.7285H106.467V26.4118H110.163C111.667 26.4118 112.889 26.8726 113.83 27.7942C114.781 28.7157 115.256 29.9768 115.256 31.5774C115.256 33.1684 114.781 34.4246 113.83 35.3462C112.879 36.2677 111.652 36.7285 110.149 36.7285ZM119.276 36.7285H117.239V26.4118H119.276V36.7285ZM130.676 36.7285H128.566L123.881 29.4093V36.7285H121.873V26.4118H124.375L128.668 33.2363V26.4118H130.676V36.7285ZM142.612 36.7285H140.982L140.851 35.5499C140.589 35.9476 140.196 36.2823 139.673 36.5539C139.158 36.8158 138.538 36.9468 137.81 36.9468C136.374 36.9468 135.157 36.4569 134.158 35.4771C133.159 34.4974 132.659 33.1975 132.659 31.5774C132.659 29.9671 133.173 28.6672 134.201 27.6778C135.239 26.6883 136.486 26.1935 137.941 26.1935C139.202 26.1935 140.23 26.4991 141.026 27.1103C141.831 27.7214 142.374 28.4732 142.655 29.3657L140.735 30.0496C140.58 29.516 140.264 29.0553 139.789 28.6672C139.323 28.2695 138.707 28.0706 137.941 28.0706C137.068 28.0706 136.306 28.3714 135.656 28.9728C135.016 29.5742 134.696 30.4425 134.696 31.5774C134.696 32.693 135.006 33.5612 135.627 34.1821C136.258 34.8029 137.034 35.1133 137.956 35.1133C138.809 35.1133 139.464 34.8999 139.92 34.4731C140.376 34.0366 140.643 33.5806 140.72 33.1053H137.461V31.3592H142.612V36.7285Z" fill="black"/>
<path d="M156.189 2.50146L151.648 7.14549C155.539 14.1613 154.621 18.3785 153.351 24.2066C152.567 27.8085 151.648 32.0257 151.648 37.899C151.648 50.0133 165.764 57.3114 175.69 60.5368C185.616 57.3114 199.731 50.0133 199.731 37.899C199.731 32.0257 198.813 27.8085 198.028 24.2066C196.759 18.3785 195.84 14.1613 199.731 7.14549L195.19 2.50146C189.307 5.9049 181.328 7.38636 175.69 2.69293C170.051 7.38636 162.072 5.9049 156.189 2.50146Z" fill="#EF3841" stroke="#E32B3B" stroke-width="2.42518"/>
<path d="M165.676 29.4223L173.988 37.7337L189.252 22.4695" stroke="#FFFBFB" stroke-width="5.33539"/>
</svg>
