<svg width="100" height="100" viewBox="0 0 100 100" fill="none" xmlns="http://www.w3.org/2000/svg">
<g filter="url(#filter0_b)">
<path fill-rule="evenodd" clip-rule="evenodd" d="M50 100C77.6142 100 100 77.6142 100 50C100 22.3858 77.6142 0 50 0C22.3858 0 0 22.3858 0 50C0 77.6142 22.3858 100 50 100Z" fill="#333333" fill-opacity="0.3"/>
</g>
<path d="M58.3672 48.9185L43.4591 40.0551C43.3344 39.9808 43.1813 39.9817 43.0573 40.0573C42.9333 40.133 42.8571 40.272 42.8571 40.4223V58.1491C42.8571 58.2994 42.9333 58.4385 43.0573 58.5141C43.1813 58.5897 43.3344 58.5906 43.4591 58.5163L58.3672 49.6529C58.4934 49.578 58.5714 49.4377 58.5714 49.2857C58.5714 49.1337 58.4934 48.9935 58.3672 48.9185Z" fill="white"/>
<defs>
<filter id="filter0_b" x="-10" y="-10" width="120" height="120" filterUnits="userSpaceOnUse" color-interpolation-filters="sRGB">
<feFlood flood-opacity="0" result="BackgroundImageFix"/>
<feGaussianBlur in="BackgroundImage" stdDeviation="5"/>
<feComposite in2="SourceAlpha" operator="in" result="effect1_backgroundBlur"/>
<feBlend mode="normal" in="SourceGraphic" in2="effect1_backgroundBlur" result="shape"/>
</filter>
</defs>
</svg>
