<?xml version="1.0" encoding="UTF-8"?>
<svg xmlns="http://www.w3.org/2000/svg" width="478" height="479" viewBox="0 0 478 479" fill="none">
  <g clip-path="url(#clip0_99_354)">
    <path d="M0.772727 11.6136V10.3636H9.5V11.6136H5.84091V22H4.43182V11.6136H0.772727ZM13.7727 22.1818C12.9848 22.1818 12.2936 21.9943 11.6989 21.6193C11.108 21.2443 10.6458 20.7197 10.3125 20.0455C9.98295 19.3712 9.81818 18.5833 9.81818 17.6818C9.81818 16.7727 9.98295 15.9792 10.3125 15.3011C10.6458 14.6231 11.108 14.0966 11.6989 13.7216C12.2936 13.3466 12.9848 13.1591 13.7727 13.1591C14.5606 13.1591 15.25 13.3466 15.8409 13.7216C16.4356 14.0966 16.8977 14.6231 17.2273 15.3011C17.5606 15.9792 17.7273 16.7727 17.7273 17.6818C17.7273 18.5833 17.5606 19.3712 17.2273 20.0455C16.8977 20.7197 16.4356 21.2443 15.8409 21.6193C15.25 21.9943 14.5606 22.1818 13.7727 22.1818ZM13.7727 20.9773C14.3712 20.9773 14.8636 20.8239 15.25 20.517C15.6364 20.2102 15.9223 19.8068 16.108 19.3068C16.2936 18.8068 16.3864 18.2652 16.3864 17.6818C16.3864 17.0985 16.2936 16.5549 16.108 16.0511C15.9223 15.5473 15.6364 15.1402 15.25 14.8295C14.8636 14.5189 14.3712 14.3636 13.7727 14.3636C13.1742 14.3636 12.6818 14.5189 12.2955 14.8295C11.9091 15.1402 11.6231 15.5473 11.4375 16.0511C11.2519 16.5549 11.1591 17.0985 11.1591 17.6818C11.1591 18.2652 11.2519 18.8068 11.4375 19.3068C11.6231 19.8068 11.9091 20.2102 12.2955 20.517C12.6818 20.8239 13.1742 20.9773 13.7727 20.9773ZM23.5696 13.2727V14.4091H19.0469V13.2727H23.5696ZM20.3651 11.1818H21.706V19.5C21.706 19.8788 21.7609 20.1629 21.8707 20.3523C21.9844 20.5379 22.1283 20.6629 22.3026 20.7273C22.4806 20.7879 22.6681 20.8182 22.8651 20.8182C23.0128 20.8182 23.134 20.8106 23.2287 20.7955C23.3234 20.7765 23.3991 20.7614 23.456 20.75L23.7287 21.9545C23.6378 21.9886 23.5109 22.0227 23.348 22.0568C23.1851 22.0947 22.9787 22.1136 22.7287 22.1136C22.3499 22.1136 21.9787 22.0322 21.6151 21.8693C21.2552 21.7064 20.956 21.4583 20.7173 21.125C20.4825 20.7917 20.3651 20.3712 20.3651 19.8636V11.1818ZM28.1548 22.2045C27.6018 22.2045 27.0999 22.1004 26.6491 21.892C26.1984 21.6799 25.8404 21.375 25.5753 20.9773C25.3101 20.5758 25.1776 20.0909 25.1776 19.5227C25.1776 19.0227 25.276 18.6174 25.473 18.3068C25.67 17.9924 25.9332 17.7462 26.2628 17.5682C26.5923 17.3902 26.956 17.2576 27.3537 17.1705C27.7552 17.0795 28.1586 17.0076 28.5639 16.9545C29.0942 16.8864 29.5241 16.8352 29.8537 16.8011C30.187 16.7633 30.4295 16.7008 30.581 16.6136C30.7363 16.5265 30.8139 16.375 30.8139 16.1591V16.1136C30.8139 15.553 30.6605 15.1174 30.3537 14.8068C30.0507 14.4962 29.5904 14.3409 28.973 14.3409C28.3329 14.3409 27.831 14.4811 27.4673 14.7614C27.1037 15.0417 26.848 15.3409 26.7003 15.6591L25.4276 15.2045C25.6548 14.6742 25.9579 14.2614 26.3366 13.9659C26.7192 13.6667 27.1359 13.4583 27.5866 13.3409C28.0412 13.2197 28.4882 13.1591 28.9276 13.1591C29.2079 13.1591 29.5298 13.1932 29.8935 13.2614C30.2609 13.3258 30.6151 13.4602 30.956 13.6648C31.3007 13.8693 31.5866 14.178 31.8139 14.5909C32.0412 15.0038 32.1548 15.5568 32.1548 16.25V22H30.8139V20.8182H30.7457C30.6548 21.0076 30.5033 21.2102 30.2912 21.4261C30.0791 21.642 29.7969 21.8258 29.4446 21.9773C29.0923 22.1288 28.6624 22.2045 28.1548 22.2045ZM28.3594 21C28.8897 21 29.3366 20.8958 29.7003 20.6875C30.0677 20.4792 30.3442 20.2102 30.5298 19.8807C30.7192 19.5511 30.8139 19.2045 30.8139 18.8409V17.6136C30.7571 17.6818 30.6321 17.7443 30.4389 17.8011C30.2495 17.8542 30.0298 17.9015 29.7798 17.9432C29.5336 17.9811 29.2931 18.0152 29.0582 18.0455C28.8272 18.072 28.6397 18.0947 28.4957 18.1136C28.1473 18.1591 27.8215 18.233 27.5185 18.3352C27.2192 18.4337 26.9768 18.5833 26.7912 18.7841C26.6094 18.9811 26.5185 19.25 26.5185 19.5909C26.5185 20.0568 26.6908 20.4091 27.0355 20.6477C27.384 20.8826 27.8253 21 28.3594 21ZM35.9432 10.3636V22H34.6023V10.3636H35.9432ZM49.4446 13.2727C49.3764 12.697 49.0999 12.25 48.6151 11.9318C48.1302 11.6136 47.5355 11.4545 46.831 11.4545C46.3158 11.4545 45.8651 11.5379 45.4787 11.7045C45.0961 11.8712 44.7969 12.1004 44.581 12.392C44.3688 12.6837 44.2628 13.0152 44.2628 13.3864C44.2628 13.697 44.3366 13.964 44.4844 14.1875C44.6359 14.4072 44.8291 14.5909 45.0639 14.7386C45.2988 14.8826 45.545 15.0019 45.8026 15.0966C46.0601 15.1875 46.2969 15.2614 46.5128 15.3182L47.6946 15.6364C47.9976 15.7159 48.3348 15.8258 48.706 15.9659C49.081 16.1061 49.4389 16.2973 49.7798 16.5398C50.1245 16.7784 50.4086 17.0852 50.6321 17.4602C50.8556 17.8352 50.9673 18.2955 50.9673 18.8409C50.9673 19.4697 50.8026 20.0379 50.473 20.5455C50.1473 21.053 49.67 21.4564 49.0412 21.7557C48.4162 22.0549 47.6567 22.2045 46.7628 22.2045C45.9295 22.2045 45.2079 22.0701 44.598 21.8011C43.992 21.5322 43.5147 21.1572 43.1662 20.6761C42.8215 20.1951 42.6264 19.6364 42.581 19H44.0355C44.0734 19.4394 44.2211 19.803 44.4787 20.0909C44.7401 20.375 45.0696 20.5871 45.4673 20.7273C45.8688 20.8636 46.3007 20.9318 46.7628 20.9318C47.3007 20.9318 47.7836 20.8447 48.2116 20.6705C48.6397 20.4924 48.9787 20.2462 49.2287 19.9318C49.4787 19.6136 49.6037 19.2424 49.6037 18.8182C49.6037 18.4318 49.4957 18.1174 49.2798 17.875C49.0639 17.6326 48.7798 17.4356 48.4276 17.2841C48.0753 17.1326 47.6946 17 47.2855 16.8864L45.8537 16.4773C44.9446 16.2159 44.2249 15.8428 43.6946 15.358C43.1643 14.8731 42.8991 14.2386 42.8991 13.4545C42.8991 12.803 43.0753 12.2348 43.4276 11.75C43.7836 11.2614 44.2609 10.8826 44.8594 10.6136C45.4616 10.3409 46.134 10.2045 46.8764 10.2045C47.6264 10.2045 48.2931 10.339 48.8764 10.608C49.4598 10.8731 49.9219 11.2367 50.2628 11.6989C50.6075 12.161 50.7893 12.6856 50.8082 13.2727H49.4446ZM55.6705 22.2045C55.1174 22.2045 54.6155 22.1004 54.1648 21.892C53.714 21.6799 53.3561 21.375 53.0909 20.9773C52.8258 20.5758 52.6932 20.0909 52.6932 19.5227C52.6932 19.0227 52.7917 18.6174 52.9886 18.3068C53.1856 17.9924 53.4489 17.7462 53.7784 17.5682C54.108 17.3902 54.4716 17.2576 54.8693 17.1705C55.2708 17.0795 55.6742 17.0076 56.0795 16.9545C56.6098 16.8864 57.0398 16.8352 57.3693 16.8011C57.7027 16.7633 57.9451 16.7008 58.0966 16.6136C58.2519 16.5265 58.3295 16.375 58.3295 16.1591V16.1136C58.3295 15.553 58.1761 15.1174 57.8693 14.8068C57.5663 14.4962 57.1061 14.3409 56.4886 14.3409C55.8485 14.3409 55.3466 14.4811 54.983 14.7614C54.6193 15.0417 54.3636 15.3409 54.2159 15.6591L52.9432 15.2045C53.1705 14.6742 53.4735 14.2614 53.8523 13.9659C54.2348 13.6667 54.6515 13.4583 55.1023 13.3409C55.5568 13.2197 56.0038 13.1591 56.4432 13.1591C56.7235 13.1591 57.0455 13.1932 57.4091 13.2614C57.7765 13.3258 58.1307 13.4602 58.4716 13.6648C58.8163 13.8693 59.1023 14.178 59.3295 14.5909C59.5568 15.0038 59.6705 15.5568 59.6705 16.25V22H58.3295V20.8182H58.2614C58.1705 21.0076 58.0189 21.2102 57.8068 21.4261C57.5947 21.642 57.3125 21.8258 56.9602 21.9773C56.608 22.1288 56.178 22.2045 55.6705 22.2045ZM55.875 21C56.4053 21 56.8523 20.8958 57.2159 20.6875C57.5833 20.4792 57.8598 20.2102 58.0455 19.8807C58.2348 19.5511 58.3295 19.2045 58.3295 18.8409V17.6136C58.2727 17.6818 58.1477 17.7443 57.9545 17.8011C57.7652 17.8542 57.5455 17.9015 57.2955 17.9432C57.0492 17.9811 56.8087 18.0152 56.5739 18.0455C56.3428 18.072 56.1553 18.0947 56.0114 18.1136C55.6629 18.1591 55.3371 18.233 55.0341 18.3352C54.7348 18.4337 54.4924 18.5833 54.3068 18.7841C54.125 18.9811 54.0341 19.25 54.0341 19.5909C54.0341 20.0568 54.2064 20.4091 54.5511 20.6477C54.8996 20.8826 55.3409 21 55.875 21ZM63.4588 10.3636V22H62.1179V10.3636H63.4588ZM69.5739 22.1818C68.733 22.1818 68.0076 21.9962 67.3977 21.625C66.7917 21.25 66.3239 20.7273 65.9943 20.0568C65.6686 19.3826 65.5057 18.5985 65.5057 17.7045C65.5057 16.8106 65.6686 16.0227 65.9943 15.3409C66.3239 14.6553 66.7822 14.1212 67.3693 13.7386C67.9602 13.3523 68.6496 13.1591 69.4375 13.1591C69.892 13.1591 70.3409 13.2348 70.7841 13.3864C71.2273 13.5379 71.6307 13.7841 71.9943 14.125C72.358 14.4621 72.6477 14.9091 72.8636 15.4659C73.0795 16.0227 73.1875 16.7083 73.1875 17.5227V18.0909H66.4602V16.9318H71.8239C71.8239 16.4394 71.7254 16 71.5284 15.6136C71.3352 15.2273 71.0587 14.9223 70.6989 14.6989C70.3428 14.4754 69.9223 14.3636 69.4375 14.3636C68.9034 14.3636 68.4413 14.4962 68.0511 14.7614C67.6648 15.0227 67.3674 15.3636 67.1591 15.7841C66.9508 16.2045 66.8466 16.6553 66.8466 17.1364V17.9091C66.8466 18.5682 66.9602 19.1269 67.1875 19.5852C67.4186 20.0398 67.7386 20.3864 68.1477 20.625C68.5568 20.8598 69.0322 20.9773 69.5739 20.9773C69.9261 20.9773 70.2443 20.928 70.5284 20.8295C70.8163 20.7273 71.0644 20.5758 71.2727 20.375C71.4811 20.1705 71.642 19.9167 71.7557 19.6136L73.0511 19.9773C72.9148 20.4167 72.6856 20.803 72.3636 21.1364C72.0417 21.4659 71.6439 21.7235 71.1705 21.9091C70.697 22.0909 70.1648 22.1818 69.5739 22.1818ZM81.4091 15.2273L80.2045 15.5682C80.1288 15.3674 80.017 15.1723 79.8693 14.983C79.7254 14.7898 79.5284 14.6307 79.2784 14.5057C79.0284 14.3807 78.7083 14.3182 78.3182 14.3182C77.7841 14.3182 77.339 14.4413 76.983 14.6875C76.6307 14.9299 76.4545 15.2386 76.4545 15.6136C76.4545 15.947 76.5758 16.2102 76.8182 16.4034C77.0606 16.5966 77.4394 16.7576 77.9545 16.8864L79.25 17.2045C80.0303 17.3939 80.6117 17.6837 80.9943 18.0739C81.3769 18.4602 81.5682 18.9583 81.5682 19.5682C81.5682 20.0682 81.4242 20.5152 81.1364 20.9091C80.8523 21.303 80.4545 21.6136 79.9432 21.8409C79.4318 22.0682 78.8371 22.1818 78.1591 22.1818C77.2689 22.1818 76.5322 21.9886 75.9489 21.6023C75.3655 21.2159 74.9962 20.6515 74.8409 19.9091L76.1136 19.5909C76.2348 20.0606 76.464 20.4129 76.8011 20.6477C77.142 20.8826 77.5871 21 78.1364 21C78.7614 21 79.2576 20.8674 79.625 20.6023C79.9962 20.3333 80.1818 20.0114 80.1818 19.6364C80.1818 19.3333 80.0758 19.0795 79.8636 18.875C79.6515 18.6667 79.3258 18.5114 78.8864 18.4091L77.4318 18.0682C76.6326 17.8788 76.0455 17.5852 75.6705 17.1875C75.2992 16.786 75.1136 16.2841 75.1136 15.6818C75.1136 15.1894 75.2519 14.7538 75.5284 14.375C75.8087 13.9962 76.1894 13.6989 76.6705 13.483C77.1553 13.267 77.7045 13.1591 78.3182 13.1591C79.1818 13.1591 79.8598 13.3485 80.3523 13.7273C80.8485 14.1061 81.2008 14.6061 81.4091 15.2273Z" fill="#1A1A1A"></path>
    <path fill-rule="evenodd" clip-rule="evenodd" d="M101.231 23.6965C105.205 23.6965 108.427 20.4745 108.427 16.5001C108.427 12.5256 105.205 9.30368 101.231 9.30368C97.2562 9.30368 94.0343 12.5256 94.0343 16.5001C94.0343 20.4745 97.2562 23.6965 101.231 23.6965Z" stroke="#D0D1D2" stroke-width="1.43928" stroke-linecap="round" stroke-linejoin="round"></path>
    <path d="M101.231 13.6215V16.5001" stroke="#D0D1D2" stroke-width="1.43928" stroke-linecap="round" stroke-linejoin="round"></path>
    <circle cx="101.231" cy="19.3785" r="0.719639" fill="#D0D1D2"></circle>
  </g>
  <line x1="174.828" y1="19.1717" x2="157.172" y2="19.1717" stroke="#ECE9F1" stroke-width="4.34333" stroke-linecap="round" stroke-linejoin="round"></line>
  <path d="M190.715 22V12.5455H193.909C194.651 12.5455 195.258 12.6793 195.728 12.9471C196.202 13.2118 196.553 13.5703 196.781 14.0227C197.009 14.4751 197.123 14.9799 197.123 15.5369C197.123 16.094 197.009 16.6003 196.781 17.0558C196.556 17.5112 196.209 17.8744 195.738 18.1452C195.267 18.413 194.664 18.5469 193.928 18.5469H191.638V17.5312H193.891C194.399 17.5312 194.807 17.4435 195.114 17.2681C195.422 17.0927 195.645 16.8557 195.784 16.5572C195.925 16.2556 195.996 15.9155 195.996 15.5369C195.996 15.1584 195.925 14.8198 195.784 14.5213C195.645 14.2228 195.421 13.9889 195.11 13.8196C194.799 13.6473 194.387 13.5611 193.873 13.5611H191.86V22H190.715ZM198.819 22V14.9091H199.872V15.9801H199.946C200.075 15.6293 200.309 15.3446 200.647 15.1261C200.986 14.9076 201.367 14.7983 201.792 14.7983C201.872 14.7983 201.972 14.7998 202.092 14.8029C202.212 14.806 202.303 14.8106 202.365 14.8168V15.9247C202.328 15.9155 202.243 15.9016 202.111 15.8832C201.981 15.8616 201.844 15.8509 201.7 15.8509C201.355 15.8509 201.047 15.9232 200.777 16.0678C200.509 16.2094 200.296 16.4064 200.139 16.6587C199.986 16.908 199.909 17.1927 199.909 17.5128V22H198.819ZM206.413 22.1477C205.73 22.1477 205.141 21.9969 204.645 21.6953C204.153 21.3906 203.773 20.9659 203.505 20.4212C203.24 19.8733 203.108 19.2363 203.108 18.5099C203.108 17.7836 203.24 17.1435 203.505 16.5895C203.773 16.0324 204.145 15.5985 204.622 15.2876C205.102 14.9737 205.662 14.8168 206.302 14.8168C206.672 14.8168 207.036 14.8783 207.397 15.0014C207.757 15.1245 208.084 15.3246 208.38 15.6016C208.675 15.8755 208.911 16.2386 209.086 16.6911C209.262 17.1435 209.349 17.7005 209.349 18.3622V18.8239H203.883V17.8821H208.241C208.241 17.482 208.161 17.125 208.001 16.8111C207.844 16.4972 207.62 16.2494 207.327 16.0678C207.038 15.8862 206.696 15.7955 206.302 15.7955C205.868 15.7955 205.493 15.9032 205.176 16.1186C204.862 16.331 204.62 16.608 204.451 16.9496C204.282 17.2912 204.197 17.6574 204.197 18.0483V18.6761C204.197 19.2116 204.29 19.6656 204.474 20.038C204.662 20.4073 204.922 20.6889 205.254 20.8828C205.587 21.0736 205.973 21.169 206.413 21.169C206.699 21.169 206.958 21.129 207.189 21.049C207.423 20.9659 207.624 20.8428 207.794 20.6797C207.963 20.5135 208.094 20.3073 208.186 20.0611L209.239 20.3565C209.128 20.7135 208.942 21.0275 208.68 21.2983C208.418 21.5661 208.095 21.7753 207.71 21.9261C207.326 22.0739 206.893 22.1477 206.413 22.1477ZM216.589 14.9091L213.967 22H212.859L210.237 14.9091H211.419L213.376 20.5597H213.45L215.407 14.9091H216.589ZM218.027 22V14.9091H219.117V22H218.027ZM218.581 13.7273C218.369 13.7273 218.186 13.6549 218.032 13.5103C217.881 13.3656 217.806 13.1918 217.806 12.9886C217.806 12.7855 217.881 12.6116 218.032 12.467C218.186 12.3223 218.369 12.25 218.581 12.25C218.793 12.25 218.975 12.3223 219.126 12.467C219.28 12.6116 219.357 12.7855 219.357 12.9886C219.357 13.1918 219.28 13.3656 219.126 13.5103C218.975 13.6549 218.793 13.7273 218.581 13.7273ZM223.993 22.1477C223.353 22.1477 222.791 21.9954 222.308 21.6907C221.828 21.386 221.452 20.9598 221.181 20.4119C220.914 19.8641 220.78 19.224 220.78 18.4915C220.78 17.7528 220.914 17.1081 221.181 16.5572C221.452 16.0063 221.828 15.5785 222.308 15.2738C222.791 14.9691 223.353 14.8168 223.993 14.8168C224.633 14.8168 225.193 14.9691 225.673 15.2738C226.156 15.5785 226.532 16.0063 226.8 16.5572C227.07 17.1081 227.206 17.7528 227.206 18.4915C227.206 19.224 227.07 19.8641 226.8 20.4119C226.532 20.9598 226.156 21.386 225.673 21.6907C225.193 21.9954 224.633 22.1477 223.993 22.1477ZM223.993 21.169C224.479 21.169 224.879 21.0444 225.193 20.7951C225.507 20.5458 225.739 20.218 225.89 19.8118C226.041 19.4055 226.116 18.9654 226.116 18.4915C226.116 18.0175 226.041 17.5759 225.89 17.1665C225.739 16.7572 225.507 16.4264 225.193 16.174C224.879 15.9216 224.479 15.7955 223.993 15.7955C223.507 15.7955 223.106 15.9216 222.792 16.174C222.479 16.4264 222.246 16.7572 222.095 17.1665C221.945 17.5759 221.869 18.0175 221.869 18.4915C221.869 18.9654 221.945 19.4055 222.095 19.8118C222.246 20.218 222.479 20.5458 222.792 20.7951C223.106 21.0444 223.507 21.169 223.993 21.169ZM233.338 19.1009V14.9091H234.427V22H233.338V20.7997H233.264C233.098 21.1598 232.839 21.466 232.488 21.7184C232.137 21.9677 231.694 22.0923 231.159 22.0923C230.716 22.0923 230.322 21.9954 229.977 21.8015C229.632 21.6045 229.361 21.3091 229.164 20.9151C228.967 20.5181 228.869 20.018 228.869 19.4148V14.9091H229.958V19.3409C229.958 19.858 230.103 20.2704 230.392 20.5781C230.685 20.8859 231.057 21.0398 231.51 21.0398C231.78 21.0398 232.056 20.9705 232.336 20.832C232.619 20.6935 232.856 20.4812 233.047 20.195C233.241 19.9087 233.338 19.544 233.338 19.1009ZM241.445 16.4972L240.467 16.7741C240.405 16.611 240.314 16.4525 240.194 16.2987C240.077 16.1417 239.917 16.0124 239.714 15.9109C239.511 15.8093 239.251 15.7585 238.934 15.7585C238.5 15.7585 238.138 15.8585 237.849 16.0586C237.563 16.2556 237.42 16.5064 237.42 16.8111C237.42 17.0819 237.518 17.2958 237.715 17.4528C237.912 17.6097 238.22 17.7405 238.639 17.8452L239.691 18.1037C240.325 18.2576 240.798 18.493 241.108 18.81C241.419 19.1239 241.575 19.5286 241.575 20.0241C241.575 20.4304 241.458 20.7936 241.224 21.1136C240.993 21.4337 240.67 21.6861 240.254 21.8707C239.839 22.0554 239.356 22.1477 238.805 22.1477C238.081 22.1477 237.483 21.9908 237.009 21.6768C236.535 21.3629 236.235 20.9044 236.109 20.3011L237.143 20.0426C237.241 20.4242 237.427 20.7105 237.701 20.9013C237.978 21.0921 238.34 21.1875 238.786 21.1875C239.294 21.1875 239.697 21.0798 239.996 20.8643C240.297 20.6458 240.448 20.3842 240.448 20.0795C240.448 19.8333 240.362 19.6271 240.19 19.4609C240.017 19.2917 239.753 19.1655 239.396 19.0824L238.214 18.8054C237.564 18.6515 237.087 18.413 236.783 18.0898C236.481 17.7636 236.33 17.3558 236.33 16.8665C236.33 16.4664 236.443 16.1125 236.667 15.8047C236.895 15.4969 237.204 15.2553 237.595 15.0799C237.989 14.9045 238.435 14.8168 238.934 14.8168C239.636 14.8168 240.187 14.9706 240.587 15.2784C240.99 15.5862 241.276 15.9924 241.445 16.4972ZM247.019 12.5455H248.385L251.598 20.3935H251.709L254.922 12.5455H256.288V22H255.217V14.8168H255.125L252.171 22H251.137L248.182 14.8168H248.09V22H247.019V12.5455ZM261.317 22.1477C260.677 22.1477 260.115 21.9954 259.632 21.6907C259.152 21.386 258.776 20.9598 258.506 20.4119C258.238 19.8641 258.104 19.224 258.104 18.4915C258.104 17.7528 258.238 17.1081 258.506 16.5572C258.776 16.0063 259.152 15.5785 259.632 15.2738C260.115 14.9691 260.677 14.8168 261.317 14.8168C261.957 14.8168 262.517 14.9691 262.997 15.2738C263.481 15.5785 263.856 16.0063 264.124 16.5572C264.395 17.1081 264.53 17.7528 264.53 18.4915C264.53 19.224 264.395 19.8641 264.124 20.4119C263.856 20.9598 263.481 21.386 262.997 21.6907C262.517 21.9954 261.957 22.1477 261.317 22.1477ZM261.317 21.169C261.803 21.169 262.203 21.0444 262.517 20.7951C262.831 20.5458 263.064 20.218 263.214 19.8118C263.365 19.4055 263.441 18.9654 263.441 18.4915C263.441 18.0175 263.365 17.5759 263.214 17.1665C263.064 16.7572 262.831 16.4264 262.517 16.174C262.203 15.9216 261.803 15.7955 261.317 15.7955C260.831 15.7955 260.431 15.9216 260.117 16.174C259.803 16.4264 259.57 16.7572 259.42 17.1665C259.269 17.5759 259.193 18.0175 259.193 18.4915C259.193 18.9654 259.269 19.4055 259.42 19.8118C259.57 20.218 259.803 20.5458 260.117 20.7951C260.431 21.0444 260.831 21.169 261.317 21.169ZM267.283 17.7344V22H266.193V14.9091H267.246V16.017H267.338C267.504 15.657 267.757 15.3677 268.095 15.1491C268.434 14.9276 268.871 14.8168 269.406 14.8168C269.886 14.8168 270.306 14.9152 270.667 15.1122C271.027 15.3061 271.307 15.6016 271.507 15.9986C271.707 16.3925 271.807 16.8911 271.807 17.4943V22H270.717V17.5682C270.717 17.0111 270.573 16.5772 270.283 16.2663C269.994 15.9524 269.597 15.7955 269.092 15.7955C268.745 15.7955 268.434 15.8709 268.16 16.0217C267.889 16.1725 267.675 16.3925 267.518 16.6818C267.361 16.9711 267.283 17.322 267.283 17.7344ZM276.881 14.9091V15.8324H273.207V14.9091H276.881ZM274.278 13.2102H275.367V19.9688C275.367 20.2765 275.412 20.5073 275.501 20.6612C275.593 20.812 275.71 20.9136 275.852 20.9659C275.997 21.0152 276.149 21.0398 276.309 21.0398C276.429 21.0398 276.528 21.0336 276.604 21.0213C276.681 21.0059 276.743 20.9936 276.789 20.9844L277.011 21.9631C276.937 21.9908 276.834 22.0185 276.701 22.0462C276.569 22.0769 276.401 22.0923 276.198 22.0923C275.89 22.0923 275.589 22.0262 275.293 21.8938C275.001 21.7615 274.758 21.5599 274.564 21.2891C274.373 21.0182 274.278 20.6766 274.278 20.2642V13.2102ZM279.762 17.7344V22H278.673V12.5455H279.762V16.017H279.854C280.021 15.6508 280.27 15.36 280.602 15.1445C280.938 14.926 281.384 14.8168 281.941 14.8168C282.424 14.8168 282.847 14.9137 283.211 15.1076C283.574 15.2984 283.855 15.5923 284.055 15.9893C284.259 16.3833 284.36 16.8849 284.36 17.4943V22H283.271V17.5682C283.271 17.005 283.124 16.5695 282.832 16.2617C282.543 15.9509 282.141 15.7955 281.627 15.7955C281.27 15.7955 280.95 15.8709 280.667 16.0217C280.387 16.1725 280.165 16.3925 280.002 16.6818C279.842 16.9711 279.762 17.322 279.762 17.7344Z" fill="#D0D1D2"></path>
  <rect x="298.683" y="1.19959" width="110.691" height="31.6008" rx="3.80042" fill="white"></rect>
  <path d="M310.531 22H309.331L312.802 12.5454H313.984L317.456 22H316.256L313.43 14.0412H313.356L310.531 22ZM310.974 18.3068H315.812V19.3224H310.974V18.3068ZM318.781 24.6591V14.9091H319.833V16.0355H319.963C320.043 15.9124 320.153 15.7554 320.295 15.5646C320.44 15.3707 320.646 15.1984 320.914 15.0476C321.184 14.8937 321.551 14.8167 322.012 14.8167C322.609 14.8167 323.136 14.966 323.591 15.2645C324.047 15.5631 324.402 15.9862 324.658 16.5341C324.913 17.0819 325.041 17.7282 325.041 18.473C325.041 19.2239 324.913 19.8749 324.658 20.4258C324.402 20.9736 324.048 21.3983 323.596 21.6999C323.143 21.9984 322.622 22.1477 322.031 22.1477C321.575 22.1477 321.211 22.0723 320.937 21.9215C320.663 21.7676 320.452 21.5937 320.304 21.3998C320.156 21.2029 320.043 21.0397 319.963 20.9105H319.87V24.6591H318.781ZM319.852 18.4545C319.852 18.99 319.93 19.4624 320.087 19.8718C320.244 20.278 320.473 20.5966 320.775 20.8274C321.077 21.0551 321.446 21.169 321.883 21.169C322.338 21.169 322.719 21.049 323.023 20.8089C323.331 20.5658 323.562 20.2396 323.716 19.8302C323.873 19.4178 323.951 18.9592 323.951 18.4545C323.951 17.9559 323.874 17.5066 323.72 17.1065C323.57 16.7033 323.34 16.3848 323.033 16.1509C322.728 15.9139 322.345 15.7954 321.883 15.7954C321.44 15.7954 321.067 15.9078 320.766 16.1324C320.464 16.354 320.236 16.6649 320.083 17.065C319.929 17.462 319.852 17.9252 319.852 18.4545ZM326.703 22V14.9091H327.755V15.9801H327.829C327.958 15.6292 328.192 15.3445 328.531 15.126C328.869 14.9075 329.251 14.7983 329.676 14.7983C329.756 14.7983 329.856 14.7998 329.976 14.8029C330.096 14.806 330.187 14.8106 330.248 14.8167V15.9247C330.211 15.9155 330.126 15.9016 329.994 15.8831C329.865 15.8616 329.728 15.8508 329.583 15.8508C329.239 15.8508 328.931 15.9231 328.66 16.0678C328.392 16.2094 328.18 16.4063 328.023 16.6587C327.869 16.908 327.792 17.1927 327.792 17.5128V22H326.703ZM331.54 22V14.9091H332.629V22H331.54ZM332.093 13.7272C331.881 13.7272 331.698 13.6549 331.544 13.5103C331.393 13.3656 331.318 13.1917 331.318 12.9886C331.318 12.7855 331.393 12.6116 331.544 12.4669C331.698 12.3223 331.881 12.25 332.093 12.25C332.306 12.25 332.487 12.3223 332.638 12.4669C332.792 12.6116 332.869 12.7855 332.869 12.9886C332.869 13.1917 332.792 13.3656 332.638 13.5103C332.487 13.6549 332.306 13.7272 332.093 13.7272ZM335.714 12.5454V22H334.624V12.5454H335.714ZM341.347 22V21.169L344.468 17.7528C344.834 17.3527 345.136 17.0049 345.373 16.7095C345.61 16.411 345.785 16.1309 345.899 15.8693C346.016 15.6046 346.074 15.3276 346.074 15.0383C346.074 14.7059 345.994 14.4182 345.834 14.175C345.677 13.9319 345.462 13.7442 345.188 13.6118C344.914 13.4795 344.606 13.4133 344.265 13.4133C343.902 13.4133 343.585 13.4887 343.314 13.6395C343.046 13.7873 342.838 13.995 342.691 14.2628C342.546 14.5305 342.474 14.8444 342.474 15.2045H341.384C341.384 14.6505 341.512 14.1643 341.767 13.7457C342.023 13.3271 342.371 13.0009 342.811 12.767C343.254 12.5331 343.751 12.4162 344.302 12.4162C344.856 12.4162 345.347 12.5331 345.774 12.767C346.202 13.0009 346.538 13.3164 346.781 13.7134C347.024 14.1104 347.146 14.5521 347.146 15.0383C347.146 15.3861 347.082 15.7262 346.956 16.0586C346.833 16.3879 346.618 16.7557 346.31 17.1619C346.005 17.5651 345.582 18.0575 345.04 18.6392L342.917 20.9105V20.9843H347.312V22H341.347ZM352.302 22.1292C351.607 22.1292 351.014 21.94 350.525 21.5614C350.035 21.1798 349.661 20.6273 349.403 19.9041C349.144 19.1778 349.015 18.3006 349.015 17.2727C349.015 16.2509 349.144 15.3784 349.403 14.6552C349.665 13.9288 350.04 13.3749 350.529 12.9932C351.022 12.6085 351.613 12.4162 352.302 12.4162C352.992 12.4162 353.581 12.6085 354.07 12.9932C354.563 13.3749 354.938 13.9288 355.197 14.6552C355.458 15.3784 355.589 16.2509 355.589 17.2727C355.589 18.3006 355.46 19.1778 355.201 19.9041C354.943 20.6273 354.569 21.1798 354.079 21.5614C353.59 21.94 352.998 22.1292 352.302 22.1292ZM352.302 21.1136C352.992 21.1136 353.527 20.7812 353.909 20.1164C354.29 19.4517 354.481 18.5038 354.481 17.2727C354.481 16.454 354.393 15.757 354.218 15.1814C354.046 14.6059 353.796 14.1673 353.47 13.8657C353.147 13.5641 352.758 13.4133 352.302 13.4133C351.619 13.4133 351.085 13.7503 350.7 14.4243C350.316 15.0953 350.123 16.0447 350.123 17.2727C350.123 18.0914 350.209 18.7869 350.382 19.3593C350.554 19.9318 350.802 20.3673 351.125 20.6658C351.451 20.9643 351.844 21.1136 352.302 21.1136ZM357.343 22V21.169L360.464 17.7528C360.83 17.3527 361.132 17.0049 361.369 16.7095C361.606 16.411 361.781 16.1309 361.895 15.8693C362.012 15.6046 362.071 15.3276 362.071 15.0383C362.071 14.7059 361.991 14.4182 361.831 14.175C361.674 13.9319 361.458 13.7442 361.184 13.6118C360.91 13.4795 360.603 13.4133 360.261 13.4133C359.898 13.4133 359.581 13.4887 359.31 13.6395C359.042 13.7873 358.834 13.995 358.687 14.2628C358.542 14.5305 358.47 14.8444 358.47 15.2045H357.38C357.38 14.6505 357.508 14.1643 357.763 13.7457C358.019 13.3271 358.367 13.0009 358.807 12.767C359.25 12.5331 359.747 12.4162 360.298 12.4162C360.852 12.4162 361.343 12.5331 361.771 12.767C362.198 13.0009 362.534 13.3164 362.777 13.7134C363.02 14.1104 363.142 14.5521 363.142 15.0383C363.142 15.3861 363.079 15.7262 362.952 16.0586C362.829 16.3879 362.614 16.7557 362.306 17.1619C362.001 17.5651 361.578 18.0575 361.036 18.6392L358.913 20.9105V20.9843H363.308V22H357.343ZM368.409 22.1292C367.8 22.1292 367.256 22.0246 366.779 21.8153C366.305 21.606 365.928 21.3152 365.648 20.9428C365.371 20.5673 365.221 20.1318 365.196 19.6363H366.359C366.384 19.941 366.489 20.2042 366.673 20.4258C366.858 20.6443 367.099 20.8135 367.398 20.9336C367.697 21.0536 368.027 21.1136 368.391 21.1136C368.797 21.1136 369.157 21.0428 369.471 20.9012C369.785 20.7597 370.031 20.5627 370.209 20.3103C370.388 20.058 370.477 19.7656 370.477 19.4332C370.477 19.0854 370.391 18.7792 370.219 18.5145C370.046 18.2468 369.794 18.0375 369.462 17.8867C369.129 17.7359 368.723 17.6605 368.243 17.6605H367.486V16.6449H368.243C368.618 16.6449 368.948 16.5771 369.231 16.4417C369.517 16.3063 369.74 16.1155 369.9 15.8693C370.063 15.6231 370.145 15.3338 370.145 15.0014C370.145 14.6813 370.074 14.4028 369.932 14.1658C369.791 13.9288 369.591 13.7442 369.332 13.6118C369.077 13.4795 368.775 13.4133 368.427 13.4133C368.101 13.4133 367.793 13.4733 367.504 13.5934C367.218 13.7103 366.984 13.8811 366.802 14.1058C366.621 14.3274 366.522 14.5951 366.507 14.9091H365.399C365.418 14.4136 365.567 13.9796 365.847 13.6072C366.127 13.2317 366.493 12.9394 366.946 12.7301C367.401 12.5208 367.901 12.4162 368.446 12.4162C369.031 12.4162 369.532 12.5347 369.951 12.7716C370.369 13.0055 370.691 13.3148 370.916 13.6995C371.14 14.0842 371.253 14.4997 371.253 14.946C371.253 15.4784 371.113 15.9324 370.833 16.3079C370.556 16.6833 370.179 16.9434 369.702 17.088V17.1619C370.299 17.2604 370.765 17.5143 371.1 17.9236C371.436 18.3299 371.604 18.8331 371.604 19.4332C371.604 19.9472 371.464 20.4088 371.184 20.8182C370.907 21.2244 370.528 21.5445 370.048 21.7784C369.568 22.0123 369.021 22.1292 368.409 22.1292Z" fill="#1A1A1A"></path>
  <path fill-rule="evenodd" clip-rule="evenodd" d="M385.757 13.1996C385.757 12.5 386.324 11.9328 387.024 11.9328H395.891C396.591 11.9328 397.158 12.5 397.158 13.1996V22.0673C397.158 22.7669 396.591 23.3341 395.891 23.3341H387.024C386.324 23.3341 385.757 22.7669 385.757 22.0673V13.1996Z" stroke="#2FCE64" stroke-opacity="0.87" stroke-width="1.26681" stroke-linecap="round" stroke-linejoin="round"></path>
  <path d="M393.991 10.6659V13.1995" stroke="#2FCE64" stroke-opacity="0.87" stroke-width="1.26681" stroke-linecap="round" stroke-linejoin="round"></path>
  <path d="M388.924 10.6659V13.1995" stroke="#2FCE64" stroke-opacity="0.87" stroke-width="1.26681" stroke-linecap="round" stroke-linejoin="round"></path>
  <path d="M385.757 15.7332H397.158" stroke="#2FCE64" stroke-opacity="0.87" stroke-width="1.26681" stroke-linecap="round" stroke-linejoin="round"></path>
  <rect x="298.683" y="1.19959" width="110.691" height="31.6008" rx="3.80042" stroke="#ECE9F1" stroke-width="1.08583"></rect>
  <rect x="423.03" y="1.25541" width="31.4892" height="31.4892" rx="3.80042" fill="white"></rect>
  <path fill-rule="evenodd" clip-rule="evenodd" d="M438.774 18.2667C439.474 18.2667 440.041 17.6996 440.041 16.9999C440.041 16.3003 439.474 15.7331 438.774 15.7331C438.074 15.7331 437.507 16.3003 437.507 16.9999C437.507 17.6996 438.074 18.2667 438.774 18.2667Z" stroke="#2FCE64" stroke-opacity="0.87" stroke-width="1.26681" stroke-linecap="round" stroke-linejoin="round"></path>
  <path fill-rule="evenodd" clip-rule="evenodd" d="M443.841 18.2667C444.541 18.2667 445.108 17.6996 445.108 16.9999C445.108 16.3003 444.541 15.7331 443.841 15.7331C443.142 15.7331 442.575 16.3003 442.575 16.9999C442.575 17.6996 443.142 18.2667 443.841 18.2667Z" stroke="#2FCE64" stroke-opacity="0.87" stroke-width="1.26681" stroke-linecap="round" stroke-linejoin="round"></path>
  <path fill-rule="evenodd" clip-rule="evenodd" d="M433.707 18.2667C434.407 18.2667 434.974 17.6996 434.974 16.9999C434.974 16.3003 434.407 15.7331 433.707 15.7331C433.007 15.7331 432.44 16.3003 432.44 16.9999C432.44 17.6996 433.007 18.2667 433.707 18.2667Z" stroke="#2FCE64" stroke-opacity="0.87" stroke-width="1.26681" stroke-linecap="round" stroke-linejoin="round"></path>
  <rect x="423.03" y="1.25541" width="31.4892" height="31.4892" rx="3.80042" stroke="#ECE9F1" stroke-width="1.08583"></rect>
  <path d="M44 289.64C68.8752 280.407 67.2169 335.252 99.9693 343.254C132.722 351.255 141.843 295.244 156.768 279.241C171.693 263.238 178.326 190.314 203.202 195.238C228.077 200.162 240.514 249.5 261.244 255.655C281.973 261.81 286.119 302.63 305.605 332.79C325.09 362.95 342.917 366.643 367.378 360.488C391.839 354.333 398.472 292.102 410.081 289.64C421.689 287.178 432.054 316.854 442.004 323.624C451.954 330.395 454.856 360.488 476 360.488" stroke="#ECE9F1" stroke-width="4" stroke-linecap="round" stroke-linejoin="round"></path>
  <path d="M3.47727 76.0909V65.1818H4.17614V76.0909H3.47727ZM5.82955 68.4545C5.77841 68.0227 5.57102 67.6875 5.20739 67.4489C4.84375 67.2102 4.39773 67.0909 3.86932 67.0909C3.48295 67.0909 3.14489 67.1534 2.85511 67.2784C2.56818 67.4034 2.34375 67.5753 2.18182 67.794C2.02273 68.0128 1.94318 68.2614 1.94318 68.5398C1.94318 68.7727 1.99858 68.973 2.10938 69.1406C2.22301 69.3054 2.3679 69.4432 2.54403 69.554C2.72017 69.6619 2.90483 69.7514 3.09801 69.8224C3.29119 69.8906 3.46875 69.946 3.63068 69.9886L4.51705 70.2273C4.74432 70.2869 4.99716 70.3693 5.27557 70.4744C5.55682 70.5795 5.82528 70.723 6.08097 70.9048C6.33949 71.0838 6.55256 71.3139 6.72017 71.5952C6.88778 71.8764 6.97159 72.2216 6.97159 72.6307C6.97159 73.1023 6.84801 73.5284 6.60085 73.9091C6.35653 74.2898 5.99858 74.5923 5.52699 74.8168C5.05824 75.0412 4.48864 75.1534 3.81818 75.1534C3.19318 75.1534 2.65199 75.0526 2.1946 74.8509C1.74006 74.6491 1.3821 74.3679 1.12074 74.0071C0.862216 73.6463 0.715909 73.2273 0.681818 72.75H1.77273C1.80114 73.0795 1.91193 73.3523 2.10511 73.5682C2.30114 73.7812 2.5483 73.9403 2.84659 74.0455C3.14773 74.1477 3.47159 74.1989 3.81818 74.1989C4.22159 74.1989 4.58381 74.1335 4.90483 74.0028C5.22585 73.8693 5.48011 73.6847 5.66761 73.4489C5.85511 73.2102 5.94886 72.9318 5.94886 72.6136C5.94886 72.3239 5.8679 72.0881 5.70597 71.9062C5.54403 71.7244 5.33097 71.5767 5.06676 71.4631C4.80256 71.3494 4.51705 71.25 4.21023 71.1648L3.13636 70.858C2.45455 70.6619 1.91477 70.3821 1.51705 70.0185C1.11932 69.6548 0.920455 69.179 0.920455 68.5909C0.920455 68.1023 1.05256 67.6761 1.31676 67.3125C1.58381 66.946 1.94176 66.6619 2.39062 66.4602C2.84233 66.2557 3.34659 66.1534 3.90341 66.1534C4.46591 66.1534 4.96591 66.2543 5.40341 66.456C5.84091 66.6548 6.1875 66.9276 6.44318 67.2741C6.7017 67.6207 6.83807 68.0142 6.85227 68.4545H5.82955ZM8.55575 75V74.233L11.4364 71.0795C11.7745 70.7102 12.0529 70.3892 12.2717 70.1165C12.4904 69.8409 12.6523 69.5824 12.7575 69.3409C12.8654 69.0966 12.9194 68.8409 12.9194 68.5739C12.9194 68.267 12.8455 68.0014 12.6978 67.777C12.5529 67.5526 12.354 67.3793 12.1012 67.2571C11.8484 67.1349 11.5643 67.0739 11.2489 67.0739C10.9137 67.0739 10.6211 67.1435 10.3711 67.2827C10.1239 67.419 9.93217 67.6108 9.79581 67.858C9.66229 68.1051 9.59553 68.3949 9.59553 68.7273H8.58984C8.58984 68.2159 8.70774 67.767 8.94354 67.3807C9.17933 66.9943 9.50036 66.6932 9.90661 66.4773C10.3157 66.2614 10.7745 66.1534 11.283 66.1534C11.7944 66.1534 12.2475 66.2614 12.6424 66.4773C13.0373 66.6932 13.3469 66.9844 13.5714 67.3509C13.7958 67.7173 13.908 68.125 13.908 68.5739C13.908 68.8949 13.8498 69.2088 13.7333 69.5156C13.6197 69.8196 13.4208 70.1591 13.1367 70.5341C12.8555 70.9062 12.4648 71.3608 11.9648 71.8977L10.0046 73.9943V74.0625H14.0614V75H8.55575ZM18.7191 75.1193C18.3612 75.1136 18.0032 75.0455 17.6452 74.9148C17.2873 74.7841 16.9606 74.5639 16.6651 74.2543C16.3697 73.9418 16.1325 73.5199 15.9535 72.9886C15.7745 72.4545 15.685 71.7841 15.685 70.9773C15.685 70.2045 15.7575 69.5199 15.9023 68.9233C16.0472 68.3239 16.2575 67.8196 16.533 67.4105C16.8086 66.9986 17.141 66.6861 17.5302 66.473C17.9222 66.2599 18.364 66.1534 18.8555 66.1534C19.3441 66.1534 19.7788 66.2514 20.1594 66.4474C20.543 66.6406 20.8555 66.9105 21.0969 67.2571C21.3384 67.6037 21.4947 68.0028 21.5657 68.4545H20.5259C20.4293 68.0625 20.2418 67.7372 19.9634 67.4787C19.685 67.2202 19.3157 67.0909 18.8555 67.0909C18.1793 67.0909 17.6467 67.3849 17.2575 67.973C16.8711 68.5611 16.6765 69.3864 16.6737 70.4489H16.7418C16.9009 70.2074 17.0898 70.0014 17.3086 69.831C17.5302 69.6577 17.7745 69.5241 18.0415 69.4304C18.3086 69.3366 18.5913 69.2898 18.8896 69.2898C19.3896 69.2898 19.8469 69.4148 20.2617 69.6648C20.6765 69.9119 21.0089 70.2543 21.2589 70.6918C21.5089 71.1264 21.6339 71.625 21.6339 72.1875C21.6339 72.7273 21.5131 73.2216 21.2717 73.6705C21.0302 74.1165 20.6907 74.4716 20.2532 74.7358C19.8185 74.9972 19.3072 75.125 18.7191 75.1193ZM18.7191 74.1818C19.0771 74.1818 19.3981 74.0923 19.6822 73.9134C19.9691 73.7344 20.195 73.4943 20.3597 73.1932C20.5273 72.892 20.6112 72.5568 20.6112 72.1875C20.6112 71.8267 20.5302 71.4986 20.3683 71.2031C20.2092 70.9048 19.989 70.6676 19.7077 70.4915C19.4293 70.3153 19.1112 70.2273 18.7532 70.2273C18.4833 70.2273 18.2319 70.2812 17.9989 70.3892C17.766 70.4943 17.5614 70.6392 17.3853 70.8239C17.212 71.0085 17.0756 71.2202 16.9762 71.4588C16.8768 71.6946 16.8271 71.9432 16.8271 72.2045C16.8271 72.5511 16.908 72.875 17.07 73.1761C17.2347 73.4773 17.4592 73.7202 17.7433 73.9048C18.0302 74.0895 18.3555 74.1818 18.7191 74.1818ZM26.1562 75.1193C25.5142 75.1193 24.9673 74.9446 24.5156 74.5952C24.0639 74.2429 23.7188 73.733 23.4801 73.0653C23.2415 72.3949 23.1222 71.5852 23.1222 70.6364C23.1222 69.6932 23.2415 68.8878 23.4801 68.2202C23.7216 67.5497 24.0682 67.0384 24.5199 66.6861C24.9744 66.331 25.5199 66.1534 26.1562 66.1534C26.7926 66.1534 27.3366 66.331 27.7884 66.6861C28.2429 67.0384 28.5895 67.5497 28.8281 68.2202C29.0696 68.8878 29.1903 69.6932 29.1903 70.6364C29.1903 71.5852 29.071 72.3949 28.8324 73.0653C28.5938 73.733 28.2486 74.2429 27.7969 74.5952C27.3452 74.9446 26.7983 75.1193 26.1562 75.1193ZM26.1562 74.1818C26.7926 74.1818 27.2869 73.875 27.6392 73.2614C27.9915 72.6477 28.1676 71.7727 28.1676 70.6364C28.1676 69.8807 28.0866 69.2372 27.9247 68.706C27.7656 68.1747 27.5355 67.7699 27.2344 67.4915C26.9361 67.2131 26.5767 67.0739 26.1562 67.0739C25.5256 67.0739 25.0327 67.3849 24.6776 68.0071C24.3224 68.6264 24.1449 69.5028 24.1449 70.6364C24.1449 71.392 24.2244 72.0341 24.3835 72.5625C24.5426 73.0909 24.7713 73.4929 25.0696 73.7685C25.3707 74.044 25.733 74.1818 26.1562 74.1818ZM30.9631 75V66.2727H32.0199V70.6023H32.1222L36.0426 66.2727H37.4233L33.7585 70.2102L37.4233 75H36.1449L33.1108 70.9432L32.0199 72.1705V75H30.9631Z" fill="#A2A3A5"></path>
  <path d="M3.47727 185.091V174.182H4.17614V185.091H3.47727ZM5.82955 177.455C5.77841 177.023 5.57102 176.688 5.20739 176.449C4.84375 176.21 4.39773 176.091 3.86932 176.091C3.48295 176.091 3.14489 176.153 2.85511 176.278C2.56818 176.403 2.34375 176.575 2.18182 176.794C2.02273 177.013 1.94318 177.261 1.94318 177.54C1.94318 177.773 1.99858 177.973 2.10938 178.141C2.22301 178.305 2.3679 178.443 2.54403 178.554C2.72017 178.662 2.90483 178.751 3.09801 178.822C3.29119 178.891 3.46875 178.946 3.63068 178.989L4.51705 179.227C4.74432 179.287 4.99716 179.369 5.27557 179.474C5.55682 179.58 5.82528 179.723 6.08097 179.905C6.33949 180.084 6.55256 180.314 6.72017 180.595C6.88778 180.876 6.97159 181.222 6.97159 181.631C6.97159 182.102 6.84801 182.528 6.60085 182.909C6.35653 183.29 5.99858 183.592 5.52699 183.817C5.05824 184.041 4.48864 184.153 3.81818 184.153C3.19318 184.153 2.65199 184.053 2.1946 183.851C1.74006 183.649 1.3821 183.368 1.12074 183.007C0.862216 182.646 0.715909 182.227 0.681818 181.75H1.77273C1.80114 182.08 1.91193 182.352 2.10511 182.568C2.30114 182.781 2.5483 182.94 2.84659 183.045C3.14773 183.148 3.47159 183.199 3.81818 183.199C4.22159 183.199 4.58381 183.134 4.90483 183.003C5.22585 182.869 5.48011 182.685 5.66761 182.449C5.85511 182.21 5.94886 181.932 5.94886 181.614C5.94886 181.324 5.8679 181.088 5.70597 180.906C5.54403 180.724 5.33097 180.577 5.06676 180.463C4.80256 180.349 4.51705 180.25 4.21023 180.165L3.13636 179.858C2.45455 179.662 1.91477 179.382 1.51705 179.018C1.11932 178.655 0.920455 178.179 0.920455 177.591C0.920455 177.102 1.05256 176.676 1.31676 176.312C1.58381 175.946 1.94176 175.662 2.39062 175.46C2.84233 175.256 3.34659 175.153 3.90341 175.153C4.46591 175.153 4.96591 175.254 5.40341 175.456C5.84091 175.655 6.1875 175.928 6.44318 176.274C6.7017 176.621 6.83807 177.014 6.85227 177.455H5.82955ZM8.55575 184V183.233L11.4364 180.08C11.7745 179.71 12.0529 179.389 12.2717 179.116C12.4904 178.841 12.6523 178.582 12.7575 178.341C12.8654 178.097 12.9194 177.841 12.9194 177.574C12.9194 177.267 12.8455 177.001 12.6978 176.777C12.5529 176.553 12.354 176.379 12.1012 176.257C11.8484 176.135 11.5643 176.074 11.2489 176.074C10.9137 176.074 10.6211 176.143 10.3711 176.283C10.1239 176.419 9.93217 176.611 9.79581 176.858C9.66229 177.105 9.59553 177.395 9.59553 177.727H8.58984C8.58984 177.216 8.70774 176.767 8.94354 176.381C9.17933 175.994 9.50036 175.693 9.90661 175.477C10.3157 175.261 10.7745 175.153 11.283 175.153C11.7944 175.153 12.2475 175.261 12.6424 175.477C13.0373 175.693 13.3469 175.984 13.5714 176.351C13.7958 176.717 13.908 177.125 13.908 177.574C13.908 177.895 13.8498 178.209 13.7333 178.516C13.6197 178.82 13.4208 179.159 13.1367 179.534C12.8555 179.906 12.4648 180.361 11.9648 180.898L10.0046 182.994V183.062H14.0614V184H8.55575ZM15.8214 184V183.233L18.7021 180.08C19.0401 179.71 19.3185 179.389 19.5373 179.116C19.756 178.841 19.918 178.582 20.0231 178.341C20.131 178.097 20.185 177.841 20.185 177.574C20.185 177.267 20.1112 177.001 19.9634 176.777C19.8185 176.553 19.6197 176.379 19.3668 176.257C19.114 176.135 18.8299 176.074 18.5146 176.074C18.1793 176.074 17.8867 176.143 17.6367 176.283C17.3896 176.419 17.1978 176.611 17.0614 176.858C16.9279 177.105 16.8612 177.395 16.8612 177.727H15.8555C15.8555 177.216 15.9734 176.767 16.2092 176.381C16.445 175.994 16.766 175.693 17.1722 175.477C17.5813 175.261 18.0401 175.153 18.5487 175.153C19.06 175.153 19.5131 175.261 19.908 175.477C20.3029 175.693 20.6126 175.984 20.837 176.351C21.0614 176.717 21.1737 177.125 21.1737 177.574C21.1737 177.895 21.1154 178.209 20.9989 178.516C20.8853 178.82 20.6864 179.159 20.4023 179.534C20.1211 179.906 19.7305 180.361 19.2305 180.898L17.2702 182.994V183.062H21.3271V184H15.8214ZM25.9336 184.119C25.2915 184.119 24.7447 183.945 24.293 183.595C23.8413 183.243 23.4961 182.733 23.2575 182.065C23.0188 181.395 22.8995 180.585 22.8995 179.636C22.8995 178.693 23.0188 177.888 23.2575 177.22C23.4989 176.55 23.8455 176.038 24.2972 175.686C24.7518 175.331 25.2972 175.153 25.9336 175.153C26.57 175.153 27.114 175.331 27.5657 175.686C28.0202 176.038 28.3668 176.55 28.6055 177.22C28.8469 177.888 28.9677 178.693 28.9677 179.636C28.9677 180.585 28.8484 181.395 28.6097 182.065C28.3711 182.733 28.0259 183.243 27.5742 183.595C27.1225 183.945 26.5756 184.119 25.9336 184.119ZM25.9336 183.182C26.57 183.182 27.0643 182.875 27.4165 182.261C27.7688 181.648 27.945 180.773 27.945 179.636C27.945 178.881 27.864 178.237 27.7021 177.706C27.543 177.175 27.3129 176.77 27.0117 176.491C26.7134 176.213 26.354 176.074 25.9336 176.074C25.3029 176.074 24.81 176.385 24.4549 177.007C24.0998 177.626 23.9222 178.503 23.9222 179.636C23.9222 180.392 24.0018 181.034 24.1609 181.562C24.32 182.091 24.5487 182.493 24.8469 182.768C25.1481 183.044 25.5103 183.182 25.9336 183.182ZM30.7404 184V175.273H31.7972V179.602H31.8995L35.82 175.273H37.2006L33.5359 179.21L37.2006 184H35.9222L32.8881 179.943L31.7972 181.17V184H30.7404Z" fill="#A2A3A5"></path>
  <path d="M3.47727 295.091V284.182H4.17614V295.091H3.47727ZM5.82955 287.455C5.77841 287.023 5.57102 286.688 5.20739 286.449C4.84375 286.21 4.39773 286.091 3.86932 286.091C3.48295 286.091 3.14489 286.153 2.85511 286.278C2.56818 286.403 2.34375 286.575 2.18182 286.794C2.02273 287.013 1.94318 287.261 1.94318 287.54C1.94318 287.773 1.99858 287.973 2.10938 288.141C2.22301 288.305 2.3679 288.443 2.54403 288.554C2.72017 288.662 2.90483 288.751 3.09801 288.822C3.29119 288.891 3.46875 288.946 3.63068 288.989L4.51705 289.227C4.74432 289.287 4.99716 289.369 5.27557 289.474C5.55682 289.58 5.82528 289.723 6.08097 289.905C6.33949 290.084 6.55256 290.314 6.72017 290.595C6.88778 290.876 6.97159 291.222 6.97159 291.631C6.97159 292.102 6.84801 292.528 6.60085 292.909C6.35653 293.29 5.99858 293.592 5.52699 293.817C5.05824 294.041 4.48864 294.153 3.81818 294.153C3.19318 294.153 2.65199 294.053 2.1946 293.851C1.74006 293.649 1.3821 293.368 1.12074 293.007C0.862216 292.646 0.715909 292.227 0.681818 291.75H1.77273C1.80114 292.08 1.91193 292.352 2.10511 292.568C2.30114 292.781 2.5483 292.94 2.84659 293.045C3.14773 293.148 3.47159 293.199 3.81818 293.199C4.22159 293.199 4.58381 293.134 4.90483 293.003C5.22585 292.869 5.48011 292.685 5.66761 292.449C5.85511 292.21 5.94886 291.932 5.94886 291.614C5.94886 291.324 5.8679 291.088 5.70597 290.906C5.54403 290.724 5.33097 290.577 5.06676 290.463C4.80256 290.349 4.51705 290.25 4.21023 290.165L3.13636 289.858C2.45455 289.662 1.91477 289.382 1.51705 289.018C1.11932 288.655 0.920455 288.179 0.920455 287.591C0.920455 287.102 1.05256 286.676 1.31676 286.312C1.58381 285.946 1.94176 285.662 2.39062 285.46C2.84233 285.256 3.34659 285.153 3.90341 285.153C4.46591 285.153 4.96591 285.254 5.40341 285.456C5.84091 285.655 6.1875 285.928 6.44318 286.274C6.7017 286.621 6.83807 287.014 6.85227 287.455H5.82955ZM11.6239 285.273V294H10.5671V286.381H10.516L8.3853 287.795V286.722L10.5671 285.273H11.6239ZM16.9293 294.119C16.3441 294.119 15.8271 294.016 15.3782 293.808C14.9322 293.598 14.5842 293.31 14.3342 292.943C14.0842 292.574 13.9606 292.153 13.9634 291.682C13.9606 291.312 14.033 290.972 14.1808 290.659C14.3285 290.344 14.5302 290.081 14.7859 289.871C15.0444 289.658 15.3327 289.523 15.6509 289.466V289.415C15.2333 289.307 14.9009 289.072 14.6538 288.712C14.4066 288.348 14.2844 287.935 14.2873 287.472C14.2844 287.028 14.3967 286.632 14.6239 286.283C14.8512 285.933 15.1637 285.658 15.5614 285.456C15.962 285.254 16.418 285.153 16.9293 285.153C17.435 285.153 17.8867 285.254 18.2844 285.456C18.6822 285.658 18.9947 285.933 19.2219 286.283C19.4521 286.632 19.5685 287.028 19.5714 287.472C19.5685 287.935 19.4421 288.348 19.1921 288.712C18.945 289.072 18.6168 289.307 18.2077 289.415V289.466C18.5231 289.523 18.8072 289.658 19.06 289.871C19.3129 290.081 19.5146 290.344 19.6651 290.659C19.8157 290.972 19.8924 291.312 19.8952 291.682C19.8924 292.153 19.7646 292.574 19.5117 292.943C19.2617 293.31 18.9137 293.598 18.4677 293.808C18.0245 294.016 17.5117 294.119 16.9293 294.119ZM16.9293 293.182C17.3242 293.182 17.6651 293.118 17.9521 292.99C18.239 292.862 18.4606 292.682 18.6168 292.449C18.7731 292.216 18.8526 291.943 18.8555 291.631C18.8526 291.301 18.7674 291.01 18.5998 290.757C18.4322 290.504 18.2035 290.305 17.9137 290.161C17.6268 290.016 17.2987 289.943 16.9293 289.943C16.5572 289.943 16.2248 290.016 15.9322 290.161C15.6424 290.305 15.4137 290.504 15.2461 290.757C15.0813 291.01 15.0004 291.301 15.0032 291.631C15.0004 291.943 15.0756 292.216 15.229 292.449C15.3853 292.682 15.6083 292.862 15.8981 292.99C16.1879 293.118 16.5316 293.182 16.9293 293.182ZM16.9293 289.04C17.2418 289.04 17.5188 288.977 17.7603 288.852C18.0046 288.727 18.1964 288.553 18.3356 288.328C18.4748 288.104 18.5458 287.841 18.5487 287.54C18.5458 287.244 18.4762 286.987 18.3398 286.768C18.2035 286.547 18.0146 286.376 17.7731 286.257C17.5316 286.135 17.2504 286.074 16.9293 286.074C16.6026 286.074 16.3171 286.135 16.0728 286.257C15.8285 286.376 15.6396 286.547 15.506 286.768C15.3725 286.987 15.3072 287.244 15.31 287.54C15.3072 287.841 15.3739 288.104 15.5103 288.328C15.6495 288.553 15.8413 288.727 16.0856 288.852C16.3299 288.977 16.6112 289.04 16.9293 289.04ZM24.375 294.119C23.733 294.119 23.1861 293.945 22.7344 293.595C22.2827 293.243 21.9375 292.733 21.6989 292.065C21.4602 291.395 21.3409 290.585 21.3409 289.636C21.3409 288.693 21.4602 287.888 21.6989 287.22C21.9403 286.55 22.2869 286.038 22.7386 285.686C23.1932 285.331 23.7386 285.153 24.375 285.153C25.0114 285.153 25.5554 285.331 26.0071 285.686C26.4616 286.038 26.8082 286.55 27.0469 287.22C27.2884 287.888 27.4091 288.693 27.4091 289.636C27.4091 290.585 27.2898 291.395 27.0511 292.065C26.8125 292.733 26.4673 293.243 26.0156 293.595C25.5639 293.945 25.017 294.119 24.375 294.119ZM24.375 293.182C25.0114 293.182 25.5057 292.875 25.858 292.261C26.2102 291.648 26.3864 290.773 26.3864 289.636C26.3864 288.881 26.3054 288.237 26.1435 287.706C25.9844 287.175 25.7543 286.77 25.4531 286.491C25.1548 286.213 24.7955 286.074 24.375 286.074C23.7443 286.074 23.2514 286.385 22.8963 287.007C22.5412 287.626 22.3636 288.503 22.3636 289.636C22.3636 290.392 22.4432 291.034 22.6023 291.562C22.7614 292.091 22.9901 292.493 23.2884 292.768C23.5895 293.044 23.9517 293.182 24.375 293.182ZM29.1818 294V285.273H30.2386V289.602H30.3409L34.2614 285.273H35.642L31.9773 289.21L35.642 294H34.3636L31.3295 289.943L30.2386 291.17V294H29.1818Z" fill="#A2A3A5"></path>
  <path d="M3.47727 404.091V393.182H4.17614V404.091H3.47727ZM5.82955 396.455C5.77841 396.023 5.57102 395.688 5.20739 395.449C4.84375 395.21 4.39773 395.091 3.86932 395.091C3.48295 395.091 3.14489 395.153 2.85511 395.278C2.56818 395.403 2.34375 395.575 2.18182 395.794C2.02273 396.013 1.94318 396.261 1.94318 396.54C1.94318 396.773 1.99858 396.973 2.10938 397.141C2.22301 397.305 2.3679 397.443 2.54403 397.554C2.72017 397.662 2.90483 397.751 3.09801 397.822C3.29119 397.891 3.46875 397.946 3.63068 397.989L4.51705 398.227C4.74432 398.287 4.99716 398.369 5.27557 398.474C5.55682 398.58 5.82528 398.723 6.08097 398.905C6.33949 399.084 6.55256 399.314 6.72017 399.595C6.88778 399.876 6.97159 400.222 6.97159 400.631C6.97159 401.102 6.84801 401.528 6.60085 401.909C6.35653 402.29 5.99858 402.592 5.52699 402.817C5.05824 403.041 4.48864 403.153 3.81818 403.153C3.19318 403.153 2.65199 403.053 2.1946 402.851C1.74006 402.649 1.3821 402.368 1.12074 402.007C0.862216 401.646 0.715909 401.227 0.681818 400.75H1.77273C1.80114 401.08 1.91193 401.352 2.10511 401.568C2.30114 401.781 2.5483 401.94 2.84659 402.045C3.14773 402.148 3.47159 402.199 3.81818 402.199C4.22159 402.199 4.58381 402.134 4.90483 402.003C5.22585 401.869 5.48011 401.685 5.66761 401.449C5.85511 401.21 5.94886 400.932 5.94886 400.614C5.94886 400.324 5.8679 400.088 5.70597 399.906C5.54403 399.724 5.33097 399.577 5.06676 399.463C4.80256 399.349 4.51705 399.25 4.21023 399.165L3.13636 398.858C2.45455 398.662 1.91477 398.382 1.51705 398.018C1.11932 397.655 0.920455 397.179 0.920455 396.591C0.920455 396.102 1.05256 395.676 1.31676 395.312C1.58381 394.946 1.94176 394.662 2.39062 394.46C2.84233 394.256 3.34659 394.153 3.90341 394.153C4.46591 394.153 4.96591 394.254 5.40341 394.456C5.84091 394.655 6.1875 394.928 6.44318 395.274C6.7017 395.621 6.83807 396.014 6.85227 396.455H5.82955ZM11.6239 394.273V403H10.5671V395.381H10.516L8.3853 396.795V395.722L10.5671 394.273H11.6239ZM13.9293 401.21V400.341L17.7646 394.273H18.3952V395.619H17.9691L15.0714 400.205V400.273H20.2362V401.21H13.9293ZM18.0373 403V400.946V400.541V394.273H19.043V403H18.0373ZM24.6797 403.119C24.0376 403.119 23.4908 402.945 23.0391 402.595C22.5874 402.243 22.2422 401.733 22.0036 401.065C21.7649 400.395 21.6456 399.585 21.6456 398.636C21.6456 397.693 21.7649 396.888 22.0036 396.22C22.245 395.55 22.5916 395.038 23.0433 394.686C23.4979 394.331 24.0433 394.153 24.6797 394.153C25.3161 394.153 25.8601 394.331 26.3118 394.686C26.7663 395.038 27.1129 395.55 27.3516 396.22C27.593 396.888 27.7138 397.693 27.7138 398.636C27.7138 399.585 27.5945 400.395 27.3558 401.065C27.1172 401.733 26.772 402.243 26.3203 402.595C25.8686 402.945 25.3217 403.119 24.6797 403.119ZM24.6797 402.182C25.3161 402.182 25.8104 401.875 26.1626 401.261C26.5149 400.648 26.6911 399.773 26.6911 398.636C26.6911 397.881 26.6101 397.237 26.4482 396.706C26.2891 396.175 26.0589 395.77 25.7578 395.491C25.4595 395.213 25.1001 395.074 24.6797 395.074C24.049 395.074 23.5561 395.385 23.201 396.007C22.8459 396.626 22.6683 397.503 22.6683 398.636C22.6683 399.392 22.7479 400.034 22.907 400.562C23.0661 401.091 23.2947 401.493 23.593 401.768C23.8942 402.044 24.2564 402.182 24.6797 402.182ZM29.4865 403V394.273H30.5433V398.602H30.6456L34.5661 394.273H35.9467L32.282 398.21L35.9467 403H34.6683L31.6342 398.943L30.5433 400.17V403H29.4865Z" fill="#A2A3A5"></path>
  <line x1="44" y1="75.4571" x2="476" y2="75.4571" stroke="#ECE9F1" stroke-width="1.08583"></line>
  <line x1="44" y1="184.457" x2="476" y2="184.457" stroke="#ECE9F1" stroke-width="1.08583"></line>
  <line x1="44" y1="293.457" x2="476" y2="293.457" stroke="#ECE9F1" stroke-width="1.08583"></line>
  <line x1="44" y1="403.457" x2="476" y2="403.457" stroke="#ECE9F1" stroke-width="1.08583"></line>
  <path d="M44 379C63.0011 370.814 78.626 320.893 101.298 312.502C113.381 308.03 123.062 316.734 133.863 330.259C144.663 343.784 142.549 349.624 166.84 360.051C186.885 368.656 192.128 275.887 211.771 279.451C231.413 283.015 240.498 171.479 261.237 180.789C281.975 190.1 286.118 166.028 305.612 211.65C325.106 257.272 343.117 150.93 367.588 141.619C392.059 132.309 398.432 231.13 410.046 227.406C421.659 223.682 432.116 294.098 442.07 304.34C452.024 314.582 454.847 277.377 476 277.377" stroke="#2FCE64" stroke-opacity="0.87" stroke-width="4" stroke-linecap="round" stroke-linejoin="round"></path>
  <path d="M101.298 313.032C78.626 321.547 63.0011 369.766 44 378.073V403H476V277.304C454.847 277.304 452.024 314.215 442.07 303.822C432.116 293.429 421.659 224.901 410.046 228.68C398.432 232.46 392.059 132.18 367.588 141.628C343.117 151.076 325.106 258.987 305.612 212.692C286.118 166.397 281.975 190.824 261.237 181.376C240.498 171.928 231.413 283.006 211.771 279.389C192.128 275.772 186.885 368.181 166.84 359.449C142.549 348.869 144.663 344.775 133.863 331.051C123.062 317.327 113.381 308.494 101.298 313.032Z" fill="url(#paint0_linear_99_354)" fill-opacity="0.4"></path>
  <path d="M48.3977 441.273H49.4545V447.511C49.4545 448.068 49.3523 448.541 49.1477 448.93C48.9432 449.32 48.6548 449.615 48.2827 449.817C47.9105 450.019 47.4716 450.119 46.9659 450.119C46.4886 450.119 46.0639 450.033 45.6918 449.859C45.3196 449.683 45.027 449.433 44.8139 449.109C44.6009 448.786 44.4943 448.401 44.4943 447.955H45.5341C45.5341 448.202 45.5952 448.418 45.7173 448.602C45.8423 448.784 46.0128 448.926 46.2287 449.028C46.4446 449.131 46.6903 449.182 46.9659 449.182C47.2699 449.182 47.5284 449.118 47.7415 448.99C47.9545 448.862 48.1165 448.675 48.2273 448.428C48.3409 448.178 48.3977 447.872 48.3977 447.511V441.273ZM53.3622 450.153C52.9474 450.153 52.571 450.075 52.233 449.919C51.8949 449.76 51.6264 449.531 51.4276 449.233C51.2287 448.932 51.1293 448.568 51.1293 448.142C51.1293 447.767 51.2031 447.463 51.3509 447.23C51.4986 446.994 51.696 446.81 51.9432 446.676C52.1903 446.543 52.4631 446.443 52.7614 446.378C53.0625 446.31 53.3651 446.256 53.669 446.216C54.0668 446.165 54.3892 446.126 54.6364 446.101C54.8864 446.073 55.0682 446.026 55.1818 445.96C55.2983 445.895 55.3565 445.781 55.3565 445.619V445.585C55.3565 445.165 55.2415 444.838 55.0114 444.605C54.7841 444.372 54.4389 444.256 53.9759 444.256C53.4957 444.256 53.1193 444.361 52.8466 444.571C52.5739 444.781 52.3821 445.006 52.2713 445.244L51.3168 444.903C51.4872 444.506 51.7145 444.196 51.9986 443.974C52.2855 443.75 52.598 443.594 52.9361 443.506C53.277 443.415 53.6122 443.369 53.9418 443.369C54.152 443.369 54.3935 443.395 54.6662 443.446C54.9418 443.494 55.2074 443.595 55.4631 443.749C55.7216 443.902 55.9361 444.134 56.1065 444.443C56.277 444.753 56.3622 445.168 56.3622 445.688V450H55.3565V449.114H55.3054C55.2372 449.256 55.1236 449.408 54.9645 449.57C54.8054 449.732 54.5938 449.869 54.3295 449.983C54.0653 450.097 53.7429 450.153 53.3622 450.153ZM53.5156 449.25C53.9134 449.25 54.2486 449.172 54.5213 449.016C54.7969 448.859 55.0043 448.658 55.1435 448.411C55.2855 448.163 55.3565 447.903 55.3565 447.631V446.71C55.3139 446.761 55.2202 446.808 55.0753 446.851C54.9332 446.891 54.7685 446.926 54.581 446.957C54.3963 446.986 54.2159 447.011 54.0398 447.034C53.8665 447.054 53.7259 447.071 53.6179 447.085C53.3565 447.119 53.1122 447.175 52.8849 447.251C52.6605 447.325 52.4787 447.438 52.3395 447.588C52.2031 447.736 52.1349 447.938 52.1349 448.193C52.1349 448.543 52.2642 448.807 52.5227 448.986C52.7841 449.162 53.1151 449.25 53.5156 449.25ZM59.2035 446.063V450H58.1978V443.455H59.1694V444.477H59.2546C59.408 444.145 59.641 443.878 59.9535 443.676C60.266 443.472 60.6694 443.369 61.1637 443.369C61.6069 443.369 61.9947 443.46 62.3271 443.642C62.6594 443.821 62.918 444.094 63.1026 444.46C63.2873 444.824 63.3796 445.284 63.3796 445.841V450H62.3739V445.909C62.3739 445.395 62.2404 444.994 61.9734 444.707C61.7063 444.418 61.3398 444.273 60.8739 444.273C60.5529 444.273 60.266 444.342 60.0131 444.482C59.7631 444.621 59.5657 444.824 59.4208 445.091C59.2759 445.358 59.2035 445.682 59.2035 446.063Z" fill="#A2A3A5"></path>
  <path d="M114.057 450V441.273H119.29V442.21H115.114V445.159H118.898V446.097H115.114V450H114.057ZM123.227 450.136C122.597 450.136 122.053 449.997 121.595 449.719C121.141 449.438 120.79 449.046 120.543 448.543C120.298 448.037 120.176 447.449 120.176 446.778C120.176 446.108 120.298 445.517 120.543 445.006C120.79 444.492 121.134 444.091 121.574 443.804C122.017 443.514 122.534 443.369 123.125 443.369C123.466 443.369 123.803 443.426 124.135 443.54C124.467 443.653 124.77 443.838 125.043 444.094C125.315 444.347 125.533 444.682 125.695 445.099C125.857 445.517 125.938 446.031 125.938 446.642V447.068H120.892V446.199H124.915C124.915 445.83 124.841 445.5 124.693 445.21C124.548 444.921 124.341 444.692 124.071 444.524C123.804 444.357 123.489 444.273 123.125 444.273C122.724 444.273 122.378 444.372 122.085 444.571C121.795 444.767 121.572 445.023 121.416 445.338C121.26 445.653 121.182 445.992 121.182 446.352V446.932C121.182 447.426 121.267 447.845 121.438 448.189C121.611 448.53 121.851 448.79 122.158 448.969C122.464 449.145 122.821 449.233 123.227 449.233C123.491 449.233 123.73 449.196 123.943 449.122C124.159 449.046 124.345 448.932 124.501 448.781C124.658 448.628 124.778 448.438 124.864 448.21L125.835 448.483C125.733 448.813 125.561 449.102 125.32 449.352C125.078 449.599 124.78 449.793 124.425 449.932C124.07 450.068 123.67 450.136 123.227 450.136ZM127.604 450V441.273H128.609V444.494H128.695C128.768 444.381 128.871 444.236 129.001 444.06C129.135 443.881 129.325 443.722 129.572 443.582C129.822 443.44 130.161 443.369 130.587 443.369C131.138 443.369 131.624 443.507 132.044 443.783C132.464 444.058 132.793 444.449 133.028 444.955C133.264 445.46 133.382 446.057 133.382 446.744C133.382 447.438 133.264 448.038 133.028 448.547C132.793 449.053 132.466 449.445 132.048 449.723C131.631 449.999 131.149 450.136 130.604 450.136C130.183 450.136 129.847 450.067 129.594 449.928C129.341 449.786 129.146 449.625 129.01 449.446C128.874 449.264 128.768 449.114 128.695 448.994H128.575V450H127.604ZM128.592 446.727C128.592 447.222 128.665 447.658 128.81 448.036C128.955 448.411 129.166 448.705 129.445 448.918C129.723 449.128 130.064 449.233 130.467 449.233C130.888 449.233 131.239 449.122 131.52 448.901C131.804 448.676 132.017 448.375 132.159 447.997C132.304 447.617 132.376 447.193 132.376 446.727C132.376 446.267 132.305 445.852 132.163 445.483C132.024 445.111 131.813 444.817 131.528 444.601C131.247 444.382 130.893 444.273 130.467 444.273C130.058 444.273 129.714 444.376 129.436 444.584C129.158 444.788 128.947 445.075 128.805 445.445C128.663 445.811 128.592 446.239 128.592 446.727Z" fill="#A2A3A5"></path>
  <path d="M183.106 441.273H184.367L187.333 448.517H187.435L190.401 441.273H191.662V450H190.674V443.369H190.589L187.861 450H186.907L184.18 443.369H184.094V450H183.106V441.273ZM195.571 450.153C195.156 450.153 194.78 450.075 194.442 449.919C194.104 449.76 193.835 449.531 193.637 449.233C193.438 448.932 193.338 448.568 193.338 448.142C193.338 447.767 193.412 447.463 193.56 447.23C193.708 446.994 193.905 446.81 194.152 446.676C194.399 446.543 194.672 446.443 194.97 446.378C195.271 446.31 195.574 446.256 195.878 446.216C196.276 446.165 196.598 446.126 196.845 446.101C197.095 446.073 197.277 446.026 197.391 445.96C197.507 445.895 197.566 445.781 197.566 445.619V445.585C197.566 445.165 197.45 444.838 197.22 444.605C196.993 444.372 196.648 444.256 196.185 444.256C195.705 444.256 195.328 444.361 195.056 444.571C194.783 444.781 194.591 445.006 194.48 445.244L193.526 444.903C193.696 444.506 193.923 444.196 194.208 443.974C194.494 443.75 194.807 443.594 195.145 443.506C195.486 443.415 195.821 443.369 196.151 443.369C196.361 443.369 196.602 443.395 196.875 443.446C197.151 443.494 197.416 443.595 197.672 443.749C197.931 443.902 198.145 444.134 198.316 444.443C198.486 444.753 198.571 445.168 198.571 445.688V450H197.566V449.114H197.514C197.446 449.256 197.333 449.408 197.173 449.57C197.014 449.732 196.803 449.869 196.539 449.983C196.274 450.097 195.952 450.153 195.571 450.153ZM195.725 449.25C196.122 449.25 196.458 449.172 196.73 449.016C197.006 448.859 197.213 448.658 197.352 448.411C197.494 448.163 197.566 447.903 197.566 447.631V446.71C197.523 446.761 197.429 446.808 197.284 446.851C197.142 446.891 196.977 446.926 196.79 446.957C196.605 446.986 196.425 447.011 196.249 447.034C196.075 447.054 195.935 447.071 195.827 447.085C195.566 447.119 195.321 447.175 195.094 447.251C194.869 447.325 194.688 447.438 194.548 447.588C194.412 447.736 194.344 447.938 194.344 448.193C194.344 448.543 194.473 448.807 194.732 448.986C194.993 449.162 195.324 449.25 195.725 449.25ZM200.407 450V443.455H201.378V444.443H201.447C201.566 444.119 201.782 443.857 202.094 443.655C202.407 443.453 202.759 443.352 203.151 443.352C203.225 443.352 203.317 443.354 203.428 443.357C203.539 443.359 203.623 443.364 203.68 443.369V444.392C203.645 444.384 203.567 444.371 203.445 444.354C203.326 444.334 203.199 444.324 203.066 444.324C202.748 444.324 202.464 444.391 202.214 444.524C201.966 444.655 201.77 444.837 201.626 445.07C201.483 445.3 201.412 445.563 201.412 445.858V450H200.407Z" fill="#A2A3A5"></path>
  <path d="M253.471 450H252.363L255.568 441.273H256.659L259.863 450H258.756L256.148 442.653H256.079L253.471 450ZM253.881 446.591H258.346V447.528H253.881V446.591ZM261.086 452.455V443.455H262.058V444.494H262.177C262.251 444.381 262.354 444.236 262.484 444.06C262.618 443.881 262.808 443.722 263.055 443.582C263.305 443.44 263.643 443.369 264.069 443.369C264.621 443.369 265.106 443.507 265.527 443.783C265.947 444.058 266.275 444.449 266.511 444.955C266.747 445.46 266.865 446.057 266.865 446.744C266.865 447.438 266.747 448.038 266.511 448.547C266.275 449.053 265.949 449.445 265.531 449.723C265.113 449.999 264.632 450.136 264.086 450.136C263.666 450.136 263.329 450.067 263.077 449.928C262.824 449.786 262.629 449.625 262.493 449.446C262.356 449.264 262.251 449.114 262.177 448.994H262.092V452.455H261.086ZM262.075 446.727C262.075 447.222 262.148 447.658 262.292 448.036C262.437 448.411 262.649 448.705 262.927 448.918C263.206 449.128 263.547 449.233 263.95 449.233C264.371 449.233 264.721 449.122 265.003 448.901C265.287 448.676 265.5 448.375 265.642 447.997C265.787 447.617 265.859 447.193 265.859 446.727C265.859 446.267 265.788 445.852 265.646 445.483C265.507 445.111 265.295 444.817 265.011 444.601C264.73 444.382 264.376 444.273 263.95 444.273C263.541 444.273 263.197 444.376 262.919 444.584C262.64 444.788 262.43 445.075 262.288 445.445C262.146 445.811 262.075 446.239 262.075 446.727ZM268.399 450V443.455H269.371V444.443H269.439C269.558 444.119 269.774 443.857 270.086 443.655C270.399 443.453 270.751 443.352 271.143 443.352C271.217 443.352 271.309 443.354 271.42 443.357C271.531 443.359 271.615 443.364 271.672 443.369V444.392C271.638 444.384 271.559 444.371 271.437 444.354C271.318 444.334 271.192 444.324 271.058 444.324C270.74 444.324 270.456 444.391 270.206 444.524C269.959 444.655 269.763 444.837 269.618 445.07C269.476 445.3 269.405 445.563 269.405 445.858V450H268.399Z" fill="#A2A3A5"></path>
  <path d="M324.644 441.273H325.701V447.511C325.701 448.068 325.598 448.541 325.394 448.93C325.189 449.32 324.901 449.615 324.529 449.817C324.157 450.019 323.718 450.119 323.212 450.119C322.735 450.119 322.31 450.033 321.938 449.859C321.566 449.683 321.273 449.433 321.06 449.109C320.847 448.786 320.74 448.401 320.74 447.955H321.78C321.78 448.202 321.841 448.418 321.963 448.602C322.088 448.784 322.259 448.926 322.475 449.028C322.691 449.131 322.936 449.182 323.212 449.182C323.516 449.182 323.775 449.118 323.988 448.99C324.201 448.862 324.363 448.675 324.473 448.428C324.587 448.178 324.644 447.872 324.644 447.511V441.273ZM331.807 447.324V443.455H332.813V450H331.807V448.892H331.739C331.586 449.224 331.347 449.507 331.023 449.74C330.699 449.97 330.29 450.085 329.796 450.085C329.387 450.085 329.023 449.996 328.705 449.817C328.387 449.635 328.137 449.362 327.955 448.999C327.773 448.632 327.682 448.171 327.682 447.614V443.455H328.688V447.546C328.688 448.023 328.821 448.403 329.088 448.688C329.358 448.972 329.702 449.114 330.12 449.114C330.37 449.114 330.624 449.05 330.882 448.922C331.144 448.794 331.363 448.598 331.539 448.334C331.718 448.07 331.807 447.733 331.807 447.324ZM335.661 446.063V450H334.655V443.455H335.626V444.477H335.712C335.865 444.145 336.098 443.878 336.411 443.676C336.723 443.472 337.126 443.369 337.621 443.369C338.064 443.369 338.452 443.46 338.784 443.642C339.116 443.821 339.375 444.094 339.56 444.46C339.744 444.824 339.837 445.284 339.837 445.841V450H338.831V445.909C338.831 445.395 338.697 444.994 338.43 444.707C338.163 444.418 337.797 444.273 337.331 444.273C337.01 444.273 336.723 444.342 336.47 444.482C336.22 444.621 336.023 444.824 335.878 445.091C335.733 445.358 335.661 445.682 335.661 446.063Z" fill="#A2A3A5"></path>
  <path d="M393.73 441.273H394.787V447.511C394.787 448.068 394.684 448.541 394.48 448.93C394.275 449.32 393.987 449.615 393.615 449.817C393.243 450.019 392.804 450.119 392.298 450.119C391.821 450.119 391.396 450.033 391.024 449.859C390.652 449.683 390.359 449.433 390.146 449.109C389.933 448.786 389.826 448.401 389.826 447.955H390.866C390.866 448.202 390.927 448.418 391.049 448.602C391.174 448.784 391.345 448.926 391.561 449.028C391.777 449.131 392.022 449.182 392.298 449.182C392.602 449.182 392.86 449.118 393.074 448.99C393.287 448.862 393.449 448.675 393.559 448.428C393.673 448.178 393.73 447.872 393.73 447.511V441.273ZM400.893 447.324V443.455H401.899V450H400.893V448.892H400.825C400.672 449.224 400.433 449.507 400.109 449.74C399.785 449.97 399.376 450.085 398.882 450.085C398.473 450.085 398.109 449.996 397.791 449.817C397.473 449.635 397.223 449.362 397.041 448.999C396.859 448.632 396.768 448.171 396.768 447.614V443.455H397.774V447.546C397.774 448.023 397.907 448.403 398.174 448.688C398.444 448.972 398.788 449.114 399.206 449.114C399.456 449.114 399.71 449.05 399.968 448.922C400.23 448.794 400.449 448.598 400.625 448.334C400.804 448.07 400.893 447.733 400.893 447.324ZM404.746 441.273V450H403.741V441.273H404.746Z" fill="#A2A3A5"></path>
  <path d="M456.02 450H454.912L458.117 441.273H459.208L462.412 450H461.304L458.696 442.653H458.628L456.02 450ZM456.429 446.591H460.895V447.528H456.429V446.591ZM467.76 447.324V443.455H468.766V450H467.76V448.892H467.692C467.539 449.224 467.3 449.507 466.976 449.74C466.652 449.97 466.243 450.085 465.749 450.085C465.34 450.085 464.976 449.996 464.658 449.817C464.34 449.635 464.09 449.362 463.908 448.999C463.726 448.632 463.635 448.171 463.635 447.614V443.455H464.641V447.546C464.641 448.023 464.775 448.403 465.042 448.688C465.311 448.972 465.655 449.114 466.073 449.114C466.323 449.114 466.577 449.05 466.836 448.922C467.097 448.794 467.316 448.598 467.492 448.334C467.671 448.07 467.76 447.733 467.76 447.324ZM473.25 452.591C472.764 452.591 472.347 452.528 471.997 452.403C471.648 452.281 471.357 452.119 471.124 451.918C470.893 451.719 470.71 451.506 470.574 451.278L471.375 450.716C471.466 450.835 471.581 450.972 471.72 451.125C471.859 451.281 472.05 451.416 472.291 451.53C472.536 451.646 472.855 451.705 473.25 451.705C473.778 451.705 474.214 451.577 474.558 451.321C474.902 451.065 475.074 450.665 475.074 450.119V448.79H474.989C474.915 448.909 474.81 449.057 474.673 449.233C474.54 449.406 474.347 449.561 474.094 449.698C473.844 449.831 473.506 449.898 473.08 449.898C472.551 449.898 472.077 449.773 471.656 449.523C471.239 449.273 470.908 448.909 470.663 448.432C470.422 447.955 470.301 447.375 470.301 446.693C470.301 446.023 470.419 445.439 470.655 444.942C470.891 444.442 471.219 444.055 471.639 443.783C472.06 443.507 472.545 443.369 473.097 443.369C473.523 443.369 473.861 443.44 474.111 443.582C474.364 443.722 474.557 443.881 474.69 444.06C474.827 444.236 474.932 444.381 475.006 444.494H475.108V443.455H476.08V450.188C476.08 450.75 475.952 451.207 475.696 451.56C475.443 451.915 475.102 452.175 474.673 452.34C474.247 452.507 473.773 452.591 473.25 452.591ZM473.216 448.994C473.619 448.994 473.96 448.902 474.239 448.717C474.517 448.533 474.729 448.267 474.874 447.921C475.018 447.574 475.091 447.159 475.091 446.676C475.091 446.205 475.02 445.788 474.878 445.428C474.736 445.067 474.526 444.784 474.247 444.58C473.969 444.375 473.625 444.273 473.216 444.273C472.79 444.273 472.435 444.381 472.151 444.597C471.869 444.813 471.658 445.102 471.516 445.466C471.376 445.83 471.307 446.233 471.307 446.676C471.307 447.131 471.378 447.533 471.52 447.882C471.665 448.229 471.878 448.501 472.159 448.7C472.443 448.896 472.795 448.994 473.216 448.994Z" fill="#A2A3A5"></path>
  <line x1="257.418" y1="187" x2="257.418" y2="402" stroke="#2FCE64" stroke-opacity="0.87" stroke-width="0.835248" stroke-dasharray="3.68 3.68"></line>
  <g filter="url(#filter0_dd_99_354)">
    <path fill-rule="evenodd" clip-rule="evenodd" d="M260.382 165.308C258.785 167.37 256.196 167.37 254.599 165.308L251.06 160.964C250.324 160.059 249.955 159.607 249.5 159.282C249.098 158.994 248.647 158.779 248.169 158.649C247.629 158.502 247.046 158.502 245.88 158.502H205.061C199.476 158.502 197.451 157.92 195.409 156.828C193.368 155.737 191.765 154.134 190.673 152.092C189.581 150.051 189 148.026 189 142.441V101.061C189 95.4763 189.581 93.4511 190.673 91.4094C191.765 89.3677 193.368 87.7653 195.409 86.6734C197.451 85.5815 199.476 85 205.061 85H310.755C316.34 85 318.365 85.5815 320.407 86.6734C322.448 87.7653 324.051 89.3677 325.143 91.4094C326.234 93.4511 326.816 95.4763 326.816 101.061V142.441C326.816 148.026 326.234 150.051 325.143 152.092C324.051 154.134 322.448 155.737 320.407 156.828C318.365 157.92 316.34 158.502 310.755 158.502H272.277C269.943 158.502 268.777 158.502 267.698 158.796C266.742 159.057 265.84 159.485 265.035 160.062C264.125 160.712 263.388 161.617 261.915 163.426L260.382 165.308Z" fill="white"></path>
  </g>
  <g clip-path="url(#clip1_99_354)">
    <path d="M201.274 99.3558V98.8338H204.919V99.3558H203.391V103.693H202.802V99.3558H201.274ZM206.311 101.501V103.693H205.751V98.8338H206.311V100.618H206.358C206.444 100.43 206.572 100.28 206.743 100.17C206.915 100.057 207.145 100.001 207.431 100.001C207.679 100.001 207.897 100.051 208.083 100.151C208.27 100.249 208.415 100.4 208.518 100.604C208.622 100.806 208.674 101.064 208.674 101.377V103.693H208.114V101.415C208.114 101.126 208.039 100.902 207.889 100.744C207.74 100.584 207.534 100.504 207.27 100.504C207.086 100.504 206.922 100.543 206.776 100.621C206.632 100.698 206.518 100.811 206.434 100.96C206.352 101.109 206.311 101.289 206.311 101.501ZM209.699 103.693V100.049H210.259V103.693H209.699ZM209.984 99.4412C209.874 99.4412 209.78 99.404 209.701 99.3297C209.624 99.2553 209.585 99.166 209.585 99.0616C209.585 98.9572 209.624 98.8678 209.701 98.7934C209.78 98.7191 209.874 98.6819 209.984 98.6819C210.093 98.6819 210.186 98.7191 210.264 98.7934C210.343 98.8678 210.382 98.9572 210.382 99.0616C210.382 99.166 210.343 99.2553 210.264 99.3297C210.186 99.404 210.093 99.4412 209.984 99.4412ZM213.866 100.865L213.363 101.007C213.331 100.923 213.285 100.842 213.223 100.763C213.163 100.682 213.081 100.616 212.976 100.564C212.872 100.511 212.738 100.485 212.575 100.485C212.352 100.485 212.166 100.537 212.018 100.64C211.871 100.741 211.797 100.87 211.797 101.026C211.797 101.165 211.848 101.275 211.949 101.356C212.05 101.437 212.208 101.504 212.423 101.558L212.964 101.691C213.29 101.77 213.533 101.891 213.693 102.054C213.853 102.215 213.933 102.423 213.933 102.678C213.933 102.887 213.872 103.073 213.752 103.238C213.634 103.402 213.467 103.532 213.254 103.627C213.04 103.722 212.792 103.769 212.509 103.769C212.137 103.769 211.829 103.689 211.586 103.527C211.342 103.366 211.188 103.13 211.123 102.82L211.655 102.687C211.705 102.883 211.801 103.031 211.942 103.129C212.084 103.227 212.27 103.276 212.499 103.276C212.76 103.276 212.968 103.22 213.121 103.11C213.276 102.997 213.354 102.863 213.354 102.706C213.354 102.58 213.309 102.474 213.221 102.388C213.132 102.301 212.996 102.236 212.813 102.194L212.205 102.051C211.871 101.972 211.626 101.85 211.47 101.684C211.315 101.516 211.237 101.306 211.237 101.055C211.237 100.849 211.295 100.667 211.41 100.509C211.527 100.351 211.686 100.227 211.887 100.136C212.09 100.046 212.319 100.001 212.575 100.001C212.936 100.001 213.219 100.08 213.425 100.238C213.632 100.397 213.779 100.606 213.866 100.865ZM216.731 98.8338H217.433L219.085 102.868H219.142L220.793 98.8338H221.495V103.693H220.945V100.001H220.898L219.379 103.693H218.847L217.329 100.001H217.281V103.693H216.731V98.8338ZM224.08 103.769C223.751 103.769 223.462 103.691 223.214 103.534C222.967 103.378 222.774 103.159 222.635 102.877C222.497 102.596 222.429 102.267 222.429 101.89C222.429 101.51 222.497 101.179 222.635 100.896C222.774 100.613 222.967 100.393 223.214 100.236C223.462 100.08 223.751 100.001 224.08 100.001C224.409 100.001 224.697 100.08 224.944 100.236C225.192 100.393 225.385 100.613 225.523 100.896C225.662 101.179 225.732 101.51 225.732 101.89C225.732 102.267 225.662 102.596 225.523 102.877C225.385 103.159 225.192 103.378 224.944 103.534C224.697 103.691 224.409 103.769 224.08 103.769ZM224.08 103.266C224.33 103.266 224.536 103.202 224.697 103.074C224.858 102.946 224.978 102.777 225.055 102.569C225.133 102.36 225.172 102.134 225.172 101.89C225.172 101.646 225.133 101.419 225.055 101.209C224.978 100.999 224.858 100.829 224.697 100.699C224.536 100.569 224.33 100.504 224.08 100.504C223.83 100.504 223.625 100.569 223.463 100.699C223.302 100.829 223.182 100.999 223.105 101.209C223.027 101.419 222.989 101.646 222.989 101.89C222.989 102.134 223.027 102.36 223.105 102.569C223.182 102.777 223.302 102.946 223.463 103.074C223.625 103.202 223.83 103.266 224.08 103.266ZM227.146 101.501V103.693H226.586V100.049H227.127V100.618H227.175C227.26 100.433 227.39 100.284 227.564 100.172C227.738 100.058 227.963 100.001 228.238 100.001C228.485 100.001 228.701 100.052 228.886 100.153C229.071 100.253 229.215 100.405 229.318 100.609C229.42 100.811 229.472 101.067 229.472 101.377V103.693H228.912V101.415C228.912 101.129 228.838 100.906 228.689 100.746C228.54 100.585 228.336 100.504 228.077 100.504C227.898 100.504 227.738 100.543 227.597 100.621C227.458 100.698 227.348 100.811 227.267 100.96C227.187 101.109 227.146 101.289 227.146 101.501ZM232.08 100.049V100.523H230.191V100.049H232.08ZM230.742 99.1755H231.302V102.649C231.302 102.808 231.325 102.926 231.371 103.005C231.418 103.083 231.478 103.135 231.551 103.162C231.625 103.187 231.704 103.2 231.786 103.2C231.848 103.2 231.898 103.197 231.938 103.19C231.977 103.182 232.009 103.176 232.033 103.171L232.147 103.674C232.109 103.689 232.056 103.703 231.988 103.717C231.92 103.733 231.833 103.741 231.729 103.741C231.571 103.741 231.416 103.707 231.264 103.639C231.114 103.571 230.989 103.467 230.889 103.328C230.791 103.189 230.742 103.013 230.742 102.801V99.1755ZM233.561 101.501V103.693H233.001V98.8338H233.561V100.618H233.608C233.694 100.43 233.822 100.28 233.993 100.17C234.165 100.057 234.395 100.001 234.681 100.001C234.929 100.001 235.147 100.051 235.333 100.151C235.52 100.249 235.665 100.4 235.768 100.604C235.872 100.806 235.924 101.064 235.924 101.377V103.693H235.364V101.415C235.364 101.126 235.289 100.902 235.139 100.744C234.99 100.584 234.784 100.504 234.52 100.504C234.336 100.504 234.172 100.543 234.026 100.621C233.882 100.698 233.768 100.811 233.684 100.96C233.602 101.109 233.561 101.289 233.561 101.501Z" fill="#1A1A1A" fill-opacity="0.6"></path>
    <path d="M206.232 127.364V110.659H207.302V127.364H206.232ZM209.834 115.67C209.755 115.009 209.438 114.496 208.881 114.13C208.324 113.765 207.641 113.582 206.832 113.582C206.24 113.582 205.723 113.678 205.279 113.869C204.839 114.061 204.496 114.324 204.248 114.659C204.004 114.994 203.882 115.375 203.882 115.801C203.882 116.158 203.967 116.464 204.137 116.721C204.311 116.973 204.533 117.184 204.802 117.354C205.072 117.519 205.355 117.656 205.651 117.765C205.947 117.869 206.218 117.954 206.466 118.02L207.824 118.385C208.172 118.476 208.559 118.602 208.985 118.763C209.416 118.924 209.827 119.144 210.219 119.423C210.614 119.697 210.941 120.049 211.197 120.48C211.454 120.91 211.582 121.439 211.582 122.065C211.582 122.787 211.393 123.44 211.015 124.023C210.641 124.606 210.092 125.069 209.37 125.413C208.652 125.756 207.78 125.928 206.754 125.928C205.797 125.928 204.968 125.774 204.267 125.465C203.571 125.156 203.023 124.725 202.623 124.173C202.227 123.62 202.003 122.979 201.951 122.248H203.621C203.665 122.753 203.835 123.17 204.13 123.501C204.431 123.827 204.809 124.071 205.266 124.232C205.727 124.388 206.223 124.467 206.754 124.467C207.371 124.467 207.926 124.367 208.418 124.166C208.909 123.962 209.298 123.679 209.586 123.318C209.873 122.953 210.016 122.526 210.016 122.039C210.016 121.595 209.892 121.234 209.644 120.956C209.396 120.678 209.07 120.451 208.666 120.277C208.261 120.103 207.824 119.951 207.354 119.821L205.71 119.351C204.665 119.051 203.839 118.622 203.23 118.065C202.621 117.508 202.316 116.78 202.316 115.879C202.316 115.131 202.519 114.478 202.923 113.922C203.332 113.36 203.88 112.925 204.568 112.617C205.259 112.303 206.031 112.147 206.884 112.147C207.745 112.147 208.511 112.301 209.181 112.61C209.851 112.915 210.382 113.332 210.773 113.863C211.169 114.394 211.378 114.996 211.4 115.67H209.834ZM214.008 125.693V124.519L218.419 119.69C218.937 119.125 219.363 118.633 219.698 118.215C220.033 117.793 220.281 117.397 220.442 117.028C220.607 116.654 220.69 116.262 220.69 115.853C220.69 115.383 220.577 114.977 220.351 114.633C220.129 114.289 219.824 114.024 219.437 113.837C219.05 113.65 218.615 113.556 218.132 113.556C217.619 113.556 217.171 113.663 216.788 113.876C216.409 114.085 216.116 114.378 215.907 114.757C215.703 115.135 215.6 115.579 215.6 116.088H214.06C214.06 115.305 214.241 114.618 214.602 114.026C214.963 113.434 215.455 112.973 216.077 112.643C216.703 112.312 217.406 112.147 218.184 112.147C218.967 112.147 219.661 112.312 220.266 112.643C220.871 112.973 221.345 113.419 221.689 113.98C222.032 114.542 222.204 115.166 222.204 115.853C222.204 116.345 222.115 116.825 221.936 117.295C221.762 117.761 221.458 118.281 221.023 118.855C220.592 119.425 219.994 120.121 219.228 120.943L216.227 124.153V124.258H222.439V125.693H214.008ZM225.134 125.693V124.519L229.545 119.69C230.063 119.125 230.489 118.633 230.824 118.215C231.159 117.793 231.407 117.397 231.568 117.028C231.733 116.654 231.816 116.262 231.816 115.853C231.816 115.383 231.703 114.977 231.477 114.633C231.255 114.289 230.95 114.024 230.563 113.837C230.176 113.65 229.741 113.556 229.258 113.556C228.745 113.556 228.297 113.663 227.914 113.876C227.535 114.085 227.242 114.378 227.033 114.757C226.828 115.135 226.726 115.579 226.726 116.088H225.186C225.186 115.305 225.367 114.618 225.728 114.026C226.089 113.434 226.58 112.973 227.202 112.643C227.829 112.312 228.531 112.147 229.31 112.147C230.093 112.147 230.787 112.312 231.392 112.643C231.996 112.973 232.471 113.419 232.814 113.98C233.158 114.542 233.33 115.166 233.33 115.853C233.33 116.345 233.241 116.825 233.062 117.295C232.888 117.761 232.584 118.281 232.149 118.855C231.718 119.425 231.12 120.121 230.354 120.943L227.353 124.153V124.258H233.565V125.693H225.134ZM240.619 125.876C239.635 125.876 238.798 125.609 238.106 125.073C237.415 124.534 236.886 123.753 236.521 122.731C236.155 121.704 235.973 120.464 235.973 119.011C235.973 117.567 236.155 116.334 236.521 115.312C236.89 114.285 237.421 113.502 238.113 112.962C238.809 112.419 239.644 112.147 240.619 112.147C241.593 112.147 242.426 112.419 243.118 112.962C243.814 113.502 244.345 114.285 244.71 115.312C245.08 116.334 245.265 117.567 245.265 119.011C245.265 120.464 245.082 121.704 244.717 122.731C244.351 123.753 243.823 124.534 243.131 125.073C242.439 125.609 241.602 125.876 240.619 125.876ZM240.619 124.441C241.593 124.441 242.35 123.971 242.889 123.031C243.429 122.091 243.699 120.752 243.699 119.011C243.699 117.854 243.575 116.869 243.327 116.055C243.083 115.242 242.731 114.622 242.27 114.196C241.813 113.769 241.262 113.556 240.619 113.556C239.653 113.556 238.898 114.033 238.354 114.985C237.811 115.934 237.539 117.276 237.539 119.011C237.539 120.169 237.66 121.152 237.904 121.961C238.148 122.77 238.498 123.386 238.955 123.808C239.416 124.23 239.97 124.441 240.619 124.441ZM249.601 123.866L249.496 124.571C249.422 125.067 249.309 125.598 249.157 126.163C249.009 126.729 248.855 127.262 248.694 127.762C248.533 128.262 248.4 128.66 248.296 128.956H247.121C247.178 128.678 247.252 128.31 247.343 127.853C247.434 127.397 247.526 126.885 247.617 126.32C247.713 125.759 247.791 125.184 247.852 124.597L247.93 123.866H249.601ZM252.115 122.953V121.622L257.988 112.329H258.953V114.391H258.301L253.864 121.413V121.517H261.772V122.953H252.115ZM258.405 125.693V122.548V121.928V112.329H259.945V125.693H258.405ZM268.394 125.876C267.628 125.876 266.939 125.724 266.325 125.419C265.712 125.115 265.22 124.697 264.851 124.166C264.481 123.636 264.279 123.031 264.244 122.352H265.81C265.871 122.957 266.145 123.457 266.632 123.853C267.124 124.245 267.711 124.441 268.394 124.441C268.942 124.441 269.429 124.312 269.856 124.056C270.286 123.799 270.623 123.446 270.867 122.998C271.115 122.546 271.239 122.035 271.239 121.465C271.239 120.882 271.111 120.362 270.854 119.905C270.602 119.444 270.254 119.081 269.81 118.816C269.366 118.55 268.859 118.415 268.29 118.411C267.881 118.407 267.461 118.47 267.03 118.6C266.599 118.726 266.245 118.89 265.966 119.09L264.453 118.907L265.262 112.329H272.205V113.765H266.619L266.149 117.706H266.227C266.502 117.489 266.845 117.308 267.259 117.165C267.672 117.021 268.102 116.949 268.551 116.949C269.368 116.949 270.097 117.145 270.737 117.537C271.38 117.924 271.885 118.455 272.25 119.129C272.62 119.803 272.805 120.573 272.805 121.439C272.805 122.291 272.614 123.053 272.231 123.723C271.852 124.388 271.33 124.915 270.665 125.302C269.999 125.685 269.242 125.876 268.394 125.876ZM279.835 125.876C279.286 125.867 278.738 125.763 278.19 125.563C277.642 125.363 277.142 125.026 276.689 124.551C276.237 124.073 275.874 123.427 275.6 122.613C275.326 121.796 275.188 120.769 275.188 119.533C275.188 118.35 275.299 117.302 275.521 116.388C275.743 115.47 276.065 114.698 276.487 114.072C276.909 113.441 277.418 112.962 278.014 112.636C278.614 112.31 279.291 112.147 280.043 112.147C280.792 112.147 281.457 112.297 282.04 112.597C282.627 112.893 283.106 113.306 283.476 113.837C283.845 114.368 284.085 114.979 284.193 115.67H282.601C282.453 115.07 282.166 114.572 281.74 114.176C281.314 113.78 280.748 113.582 280.043 113.582C279.008 113.582 278.192 114.033 277.596 114.933C277.005 115.834 276.707 117.097 276.702 118.724H276.807C277.05 118.355 277.34 118.039 277.675 117.778C278.014 117.513 278.388 117.308 278.797 117.165C279.206 117.021 279.639 116.949 280.096 116.949C280.861 116.949 281.562 117.141 282.197 117.524C282.832 117.902 283.341 118.426 283.724 119.096C284.106 119.762 284.298 120.525 284.298 121.387C284.298 122.213 284.113 122.97 283.743 123.657C283.373 124.34 282.854 124.884 282.184 125.289C281.518 125.689 280.735 125.885 279.835 125.876ZM279.835 124.441C280.383 124.441 280.874 124.303 281.309 124.029C281.749 123.755 282.094 123.388 282.347 122.927C282.603 122.466 282.732 121.952 282.732 121.387C282.732 120.834 282.608 120.332 282.36 119.879C282.116 119.423 281.779 119.059 281.348 118.79C280.922 118.52 280.435 118.385 279.887 118.385C279.473 118.385 279.088 118.468 278.732 118.633C278.375 118.794 278.062 119.016 277.792 119.299C277.527 119.581 277.318 119.905 277.166 120.271C277.013 120.632 276.937 121.013 276.937 121.413C276.937 121.943 277.061 122.439 277.309 122.901C277.562 123.362 277.905 123.734 278.34 124.016C278.78 124.299 279.278 124.441 279.835 124.441Z" fill="#1A1A1A"></path>
    <path d="M202.192 143.693H201.266L203.943 136.404H204.854L207.531 143.693H206.605L204.427 137.557H204.37L202.192 143.693ZM202.533 140.846H206.264V141.629H202.533V140.846ZM208.552 145.744V138.226H209.364V139.095H209.463C209.525 139 209.61 138.879 209.72 138.732C209.831 138.582 209.99 138.449 210.197 138.333C210.405 138.214 210.688 138.155 211.044 138.155C211.504 138.155 211.91 138.27 212.261 138.5C212.612 138.731 212.886 139.057 213.083 139.479C213.28 139.902 213.379 140.4 213.379 140.974C213.379 141.553 213.28 142.055 213.083 142.48C212.886 142.902 212.613 143.229 212.265 143.462C211.916 143.692 211.514 143.807 211.058 143.807C210.707 143.807 210.426 143.749 210.214 143.633C210.003 143.514 209.841 143.38 209.727 143.231C209.613 143.079 209.525 142.953 209.463 142.853H209.392V145.744H208.552ZM209.378 140.96C209.378 141.373 209.438 141.737 209.559 142.053C209.68 142.366 209.857 142.611 210.09 142.789C210.322 142.965 210.607 143.053 210.944 143.053C211.295 143.053 211.588 142.96 211.823 142.775C212.06 142.588 212.238 142.336 212.357 142.021C212.478 141.703 212.539 141.349 212.539 140.96C212.539 140.575 212.479 140.229 212.361 139.921C212.244 139.61 212.068 139.364 211.83 139.184C211.595 139.001 211.3 138.91 210.944 138.91C210.602 138.91 210.315 138.996 210.083 139.17C209.85 139.34 209.675 139.58 209.556 139.889C209.437 140.195 209.378 140.552 209.378 140.96ZM214.66 143.693V138.226H215.471V139.052H215.528C215.628 138.782 215.808 138.562 216.069 138.394C216.33 138.225 216.625 138.141 216.952 138.141C217.014 138.141 217.091 138.142 217.183 138.144C217.276 138.147 217.346 138.15 217.393 138.155V139.009C217.365 139.002 217.3 138.992 217.198 138.977C217.098 138.961 216.992 138.952 216.881 138.952C216.615 138.952 216.378 139.008 216.169 139.12C215.963 139.229 215.799 139.381 215.678 139.575C215.559 139.767 215.5 139.987 215.5 140.234V143.693H214.66ZM218.389 143.693V138.226H219.229V143.693H218.389ZM218.816 137.315C218.653 137.315 218.511 137.259 218.393 137.148C218.276 137.036 218.218 136.902 218.218 136.746C218.218 136.589 218.276 136.455 218.393 136.343C218.511 136.232 218.653 136.176 218.816 136.176C218.98 136.176 219.12 136.232 219.236 136.343C219.355 136.455 219.414 136.589 219.414 136.746C219.414 136.902 219.355 137.036 219.236 137.148C219.12 137.259 218.98 137.315 218.816 137.315ZM221.608 136.404V143.693H220.768V136.404H221.608Z" fill="#1A1A1A" fill-opacity="0.6"></path>
  </g>
  <g filter="url(#filter1_dd_99_354)">
    <rect x="249" y="170" width="16.705" height="16.705" rx="8.35248" fill="#2FCE64" fill-opacity="0.87"></rect>
    <rect x="250.67" y="171.67" width="13.364" height="13.364" rx="6.68199" stroke="white" stroke-width="3.34099"></rect>
  </g>
  <defs>
    <filter id="filter0_dd_99_354" x="175.636" y="78.318" width="164.544" height="108.582" color-interpolation-filters="sRGB">
      <feFlood flood-opacity="0" result="BackgroundImageFix"></feFlood>
      <feColorMatrix in="SourceAlpha" type="matrix" values="0 0 0 0 0 0 0 0 0 0 0 0 0 0 0 0 0 0 127 0" result="hardAlpha"></feColorMatrix>
      <feOffset dy="6.68199"></feOffset>
      <feGaussianBlur stdDeviation="6.68199"></feGaussianBlur>
      <feColorMatrix type="matrix" values="0 0 0 0 0.196487 0 0 0 0 0.196487 0 0 0 0 0.279476 0 0 0 0.06 0"></feColorMatrix>
      <feBlend mode="multiply" in2="BackgroundImageFix" result="effect1_dropShadow_99_354"></feBlend>
      <feColorMatrix in="SourceAlpha" type="matrix" values="0 0 0 0 0 0 0 0 0 0 0 0 0 0 0 0 0 0 127 0" result="hardAlpha"></feColorMatrix>
      <feOffset dy="6.68199"></feOffset>
      <feGaussianBlur stdDeviation="3.34099"></feGaussianBlur>
      <feColorMatrix type="matrix" values="0 0 0 0 0.196487 0 0 0 0 0.196487 0 0 0 0 0.279476 0 0 0 0.08 0"></feColorMatrix>
      <feBlend mode="multiply" in2="effect1_dropShadow_99_354" result="effect2_dropShadow_99_354"></feBlend>
      <feBlend mode="normal" in="SourceGraphic" in2="effect2_dropShadow_99_354" result="shape"></feBlend>
    </filter>
    <filter id="filter1_dd_99_354" x="244.545" y="167.773" width="25.6143" height="25.6143" color-interpolation-filters="sRGB">
      <feFlood flood-opacity="0" result="BackgroundImageFix"></feFlood>
      <feColorMatrix in="SourceAlpha" type="matrix" values="0 0 0 0 0 0 0 0 0 0 0 0 0 0 0 0 0 0 127 0" result="hardAlpha"></feColorMatrix>
      <feOffset dy="2.22733"></feOffset>
      <feGaussianBlur stdDeviation="2.22733"></feGaussianBlur>
      <feColorMatrix type="matrix" values="0 0 0 0 0.196487 0 0 0 0 0.196487 0 0 0 0 0.279476 0 0 0 0.06 0"></feColorMatrix>
      <feBlend mode="multiply" in2="BackgroundImageFix" result="effect1_dropShadow_99_354"></feBlend>
      <feColorMatrix in="SourceAlpha" type="matrix" values="0 0 0 0 0 0 0 0 0 0 0 0 0 0 0 0 0 0 127 0" result="hardAlpha"></feColorMatrix>
      <feOffset dy="2.22733"></feOffset>
      <feGaussianBlur stdDeviation="1.11366"></feGaussianBlur>
      <feColorMatrix type="matrix" values="0 0 0 0 0.196487 0 0 0 0 0.196487 0 0 0 0 0.279476 0 0 0 0.06 0"></feColorMatrix>
      <feBlend mode="multiply" in2="effect1_dropShadow_99_354" result="effect2_dropShadow_99_354"></feBlend>
      <feBlend mode="normal" in="SourceGraphic" in2="effect2_dropShadow_99_354" result="shape"></feBlend>
    </filter>
    <linearGradient id="paint0_linear_99_354" x1="260" y1="141" x2="260" y2="512.594" gradientUnits="userSpaceOnUse">
      <stop stop-color="#47D175"></stop>
      <stop offset="0.998978" stop-color="white" stop-opacity="0"></stop>
    </linearGradient>
    <clipPath id="clip0_99_354">
      <rect width="109.867" height="27" fill="white" transform="translate(0 3)"></rect>
    </clipPath>
    <clipPath id="clip1_99_354">
      <rect width="85" height="52" fill="white" transform="translate(200.694 96.6934)"></rect>
    </clipPath>
  </defs>
</svg>
