<?xml version="1.0" encoding="UTF-8"?>
<svg xmlns="http://www.w3.org/2000/svg" width="202" height="62" viewBox="0 0 202 62" fill="none">
  <rect x="1.29885" y="14.5084" width="184.808" height="33.0181" rx="16.5091" fill="white" stroke="#2FCE64" stroke-width="1.94014"></rect>
  <path d="M16.5239 36.2266V26.4084H20.3975C21.1422 26.4084 21.7766 26.5506 22.3007 26.835C22.8249 27.1163 23.2244 27.5078 23.4993 28.0096C23.7773 28.5082 23.9163 29.0835 23.9163 29.7354C23.9163 30.3874 23.7757 30.9627 23.4945 31.4613C23.2132 31.9599 22.8057 32.3482 22.272 32.6262C21.7414 32.9043 21.099 33.0433 20.3448 33.0433H17.8758V31.3798H20.0092C20.4087 31.3798 20.7379 31.3111 20.9968 31.1737C21.2588 31.033 21.4538 30.8397 21.5816 30.5936C21.7127 30.3443 21.7782 30.0582 21.7782 29.7354C21.7782 29.4094 21.7127 29.125 21.5816 28.8821C21.4538 28.636 21.2588 28.4458 20.9968 28.3116C20.7347 28.1742 20.4023 28.1055 19.9996 28.1055H18.5997V36.2266H16.5239ZM26.0657 36.2266H23.8412L27.2306 26.4084H29.9057L33.2903 36.2266H31.0659L28.6065 28.652H28.5298L26.0657 36.2266ZM25.9266 32.3674H31.1809V33.9877H25.9266V32.3674ZM33.1409 28.1199V26.4084H41.2045V28.1199H38.1986V36.2266H36.1468V28.1199H33.1409ZM42.7749 36.2266V26.4084H49.3907V28.1199H44.8507V30.4593H49.0503V32.1708H44.8507V34.5151H49.4099V36.2266H42.7749ZM59.4957 26.4084V36.2266H57.7028L53.4313 30.0471H53.3594V36.2266H51.2836V26.4084H53.1053L57.3432 32.5831H57.4295V26.4084H59.4957ZM61.0794 28.1199V26.4084H69.1429V28.1199H66.1371V36.2266H64.0852V28.1199H61.0794ZM74.0804 36.2266V26.4084H77.954C78.6987 26.4084 79.3331 26.5506 79.8573 26.835C80.3814 27.1163 80.7809 27.5078 81.0558 28.0096C81.3338 28.5082 81.4728 29.0835 81.4728 29.7354C81.4728 30.3874 81.3322 30.9627 81.051 31.4613C80.7697 31.9599 80.3622 32.3482 79.8285 32.6262C79.2979 32.9043 78.6555 33.0433 77.9013 33.0433H75.4324V31.3798H77.5657C77.9652 31.3798 78.2944 31.3111 78.5533 31.1737C78.8154 31.033 79.0103 30.8397 79.1381 30.5936C79.2692 30.3443 79.3347 30.0582 79.3347 29.7354C79.3347 29.4094 79.2692 29.125 79.1381 28.8821C79.0103 28.636 78.8154 28.4458 78.5533 28.3116C78.2912 28.1742 77.9588 28.1055 77.5561 28.1055H76.1563V36.2266H74.0804ZM83.0637 36.2266V26.4084H89.6794V28.1199H85.1395V30.4593H89.3391V32.1708H85.1395V34.5151H89.6986V36.2266H83.0637ZM99.7845 26.4084V36.2266H97.9915L93.72 30.0471H93.6481V36.2266H91.5723V26.4084H93.3941L97.632 32.5831H97.7183V26.4084H99.7845ZM105.223 36.2266H101.742V26.4084H105.251C106.239 26.4084 107.089 26.6049 107.802 26.998C108.514 27.388 109.063 27.9489 109.446 28.6808C109.833 29.4126 110.026 30.2884 110.026 31.3079C110.026 32.3306 109.833 33.2095 109.446 33.9446C109.063 34.6797 108.511 35.2438 107.792 35.6369C107.076 36.03 106.22 36.2266 105.223 36.2266ZM103.818 34.448H105.136C105.75 34.448 106.266 34.3393 106.685 34.122C107.107 33.9015 107.423 33.5611 107.634 33.1009C107.848 32.6374 107.955 32.0398 107.955 31.3079C107.955 30.5824 107.848 29.9895 107.634 29.5293C107.423 29.0691 107.108 28.7303 106.69 28.513C106.271 28.2956 105.755 28.187 105.141 28.187H103.818V34.448ZM113.882 26.4084V36.2266H111.806V26.4084H113.882ZM124.045 26.4084V36.2266H122.252L117.98 30.0471H117.908V36.2266H115.833V26.4084H117.654L121.892 32.5831H121.979V26.4084H124.045ZM132.513 29.582C132.446 29.3487 132.351 29.1426 132.23 28.9636C132.108 28.7814 131.96 28.628 131.784 28.5034C131.611 28.3755 131.413 28.2781 131.189 28.2109C130.969 28.1438 130.724 28.1103 130.456 28.1103C129.954 28.1103 129.513 28.2349 129.133 28.4842C128.756 28.7335 128.462 29.0962 128.251 29.5724C128.04 30.0455 127.934 30.6239 127.934 31.3079C127.934 31.9918 128.038 32.5735 128.246 33.0529C128.454 33.5323 128.748 33.8983 129.128 34.1507C129.508 34.4 129.957 34.5247 130.475 34.5247C130.945 34.5247 131.346 34.4416 131.678 34.2754C132.014 34.106 132.27 33.8679 132.446 33.5611C132.625 33.2543 132.714 32.8915 132.714 32.4728L133.136 32.5352H130.605V30.9723H134.713V32.2092C134.713 33.0721 134.531 33.8136 134.167 34.4336C133.802 35.0504 133.3 35.5266 132.661 35.8622C132.022 36.1946 131.29 36.3608 130.466 36.3608C129.545 36.3608 128.737 36.1578 128.04 35.752C127.343 35.3429 126.8 34.7628 126.41 34.0117C126.023 33.2575 125.83 32.3626 125.83 31.3271C125.83 30.5312 125.945 29.8217 126.175 29.1985C126.408 28.5721 126.734 28.0415 127.153 27.6069C127.572 27.1722 128.059 26.8414 128.615 26.6145C129.171 26.3876 129.774 26.2741 130.422 26.2741C130.979 26.2741 131.496 26.3556 131.976 26.5186C132.455 26.6784 132.88 26.9054 133.251 27.1994C133.625 27.4934 133.93 27.8434 134.167 28.2493C134.403 28.652 134.555 29.0962 134.622 29.582H132.513Z" fill="black"></path>
  <path d="M156.189 2L151.648 6.64402C155.539 13.6598 154.621 17.8771 153.351 23.7051C152.567 27.307 151.648 31.5242 151.648 37.3975C151.648 49.5118 165.764 56.8099 175.69 60.0353C185.616 56.8099 199.731 49.5118 199.731 37.3975C199.731 31.5242 198.813 27.307 198.028 23.7051C196.759 17.8771 195.84 13.6598 199.731 6.64402L195.19 2C189.307 5.40344 181.328 6.88489 175.69 2.19146C170.051 6.88489 162.072 5.40344 156.189 2Z" fill="#2FCE64" stroke="#16A23D" stroke-width="2.42518"></path>
  <path d="M165.676 28.9206L173.988 37.232L189.252 21.9678" stroke="white" stroke-width="5.33539"></path>
</svg>
