<?xml version="1.0" encoding="UTF-8"?>
<svg xmlns="http://www.w3.org/2000/svg" width="38" height="38" viewBox="0 0 38 38" fill="none">
  <path d="M18.5 21.85H14.2132C12.8047 21.85 12.1005 21.85 11.8056 21.3885C11.5107 20.9269 11.8065 20.2879 12.3982 19.0098L18.0462 6.81006C18.4204 6.00182 18.6075 5.5977 18.8038 5.64091C19 5.68413 19 6.12947 19 7.02013V15.65C19 15.8857 19 16.0036 19.0732 16.0768C19.1464 16.15 19.2643 16.15 19.5 16.15H23.7868C25.1952 16.15 25.8994 16.15 26.1944 16.6115C26.4893 17.0731 26.1934 17.7121 25.6017 18.9902L19.9537 31.1899C19.5795 31.9982 19.3924 32.4023 19.1962 32.3591C19 32.3159 19 31.8705 19 30.9799V22.35C19 22.1143 19 21.9964 18.9268 21.9232C18.8535 21.85 18.7357 21.85 18.5 21.85Z" stroke="#FEDD00" stroke-width="3"></path>
</svg>
