<?xml version="1.0" encoding="UTF-8"?>
<svg xmlns="http://www.w3.org/2000/svg" width="38" height="38" viewBox="0 0 38 38" fill="none">
  <path d="M6.75 26.9167H14.25C15.883 26.9167 16.6995 26.9167 17.3269 27.2261C17.9192 27.5182 18.3985 27.9975 18.6906 28.5898C19 29.2172 19 30.0337 19 31.6667V12.3334C19 9.50495 19 8.09073 18.1213 7.21205C17.2426 6.33337 15.8284 6.33337 13 6.33337H6.75C5.80719 6.33337 5.33579 6.33337 5.04289 6.62627C4.75 6.91916 4.75 7.39057 4.75 8.33338V24.9167C4.75 25.8595 4.75 26.3309 5.04289 26.6238C5.33579 26.9167 5.80719 26.9167 6.75 26.9167Z" stroke="#FEDD00" stroke-width="3"></path>
  <path d="M31.25 26.9167H23.75C22.117 26.9167 21.3005 26.9167 20.6731 27.2261C20.0808 27.5182 19.6015 27.9975 19.3094 28.5898C19 29.2172 19 30.0337 19 31.6667V12.3334C19 9.50495 19 8.09073 19.8787 7.21205C20.7574 6.33337 22.1716 6.33337 25 6.33337H31.25C32.1928 6.33337 32.6642 6.33337 32.9571 6.62627C33.25 6.91916 33.25 7.39057 33.25 8.33338V24.9167C33.25 25.8595 33.25 26.3309 32.9571 26.6238C32.6642 26.9167 32.1928 26.9167 31.25 26.9167Z" stroke="#FEDD00" stroke-width="3"></path>
</svg>
